<mxfile host="Electron" agent="Mozilla/5.0 (X11; Linux x86_64) AppleWebKit/537.36 (KHTML, like Gecko) draw.io/24.7.17 Chrome/128.0.6613.36 Electron/32.0.1 Safari/537.36" version="24.7.17">
  <diagram name="Page-1" id="as9AKTJ7yE1r1pSqu1H4">
    <mxGraphModel dx="2193" dy="794" grid="1" gridSize="10" guides="1" tooltips="1" connect="1" arrows="1" fold="1" page="1" pageScale="1" pageWidth="827" pageHeight="1169" math="0" shadow="0">
      <root>
        <mxCell id="0" />
        <mxCell id="1" parent="0" />
        <mxCell id="rAWmaDzB11iuQqpBFQuq-2" value="" style="rounded=1;whiteSpace=wrap;html=1;fillColor=#000000;" vertex="1" parent="1">
          <mxGeometry x="-530" y="470" width="1010" height="200" as="geometry" />
        </mxCell>
        <mxCell id="rAWmaDzB11iuQqpBFQuq-1" value="" style="shape=image;verticalLabelPosition=bottom;labelBackgroundColor=default;verticalAlign=top;aspect=fixed;imageAspect=0;image=data:image/png,iVBORw0KGgoAAAANSUhEUgAABhsAAAYbCAYAAAAGsQssAAAACXBIWXMAAC4jAAAuIwF4pT92AAAE+2lUWHRYTUw6Y29tLmFkb2JlLnhtcAAAAAAAPHg6eG1wbWV0YSB4bWxuczp4PSdhZG9iZTpuczptZXRhLyc+CiAgICAgICAgPHJkZjpSREYgeG1sbnM6cmRmPSdodHRwOi8vd3d3LnczLm9yZy8xOTk5LzAyLzIyLXJkZi1zeW50YXgtbnMjJz4KCiAgICAgICAgPHJkZjpEZXNjcmlwdGlvbiByZGY6YWJvdXQ9JycKICAgICAgICB4bWxuczpkYz0naHR0cDovL3B1cmwub3JnL2RjL2VsZW1lbnRzLzEuMS8nPgogICAgICAgIDxkYzp0aXRsZT4KICAgICAgICA8cmRmOkFsdD4KICAgICAgICA8cmRmOmxpIHhtbDpsYW5nPSd4LWRlZmF1bHQnPkJJT1RFQyBDb21wYW55IExvZ28gLSA2PC9yZGY6bGk+CiAgICAgICAgPC9yZGY6QWx0PgogICAgICAgIDwvZGM6dGl0bGU+CiAgICAgICAgPC9yZGY6RGVzY3JpcHRpb24+CgogICAgICAgIDxyZGY6RGVzY3JpcHRpb24gcmRmOmFib3V0PScnCiAgICAgICAgeG1sbnM6QXR0cmliPSdodHRwOi8vbnMuYXR0cmlidXRpb24uY29tL2Fkcy8xLjAvJz4KICAgICAgICA8QXR0cmliOkFkcz4KICAgICAgICA8cmRmOlNlcT4KICAgICAgICA8cmRmOmxpIHJkZjpwYXJzZVR5cGU9J1Jlc291cmNlJz4KICAgICAgICA8QXR0cmliOkNyZWF0ZWQ+MjAyNC0wNi0xNTwvQXR0cmliOkNyZWF0ZWQ+CiAgICAgICAgPEF0dHJpYjpFeHRJZD5jYjJkN2Q0YS01NGJlLTQxYmQtYjY0OS1iODk3YjVjMjJhMzY8L0F0dHJpYjpFeHRJZD4KICAgICAgICA8QXR0cmliOkZiSWQ+NTI1MjY1OTE0MTc5NTgwPC9BdHRyaWI6RmJJZD4KICAgICAgICA8QXR0cmliOlRvdWNoVHlwZT4yPC9BdHRyaWI6VG91Y2hUeXBlPgogICAgICAgIDwvcmRmOmxpPgogICAgICAgIDwvcmRmOlNlcT4KICAgICAgICA8L0F0dHJpYjpBZHM+CiAgICAgICAgPC9yZGY6RGVzY3JpcHRpb24+CgogICAgICAgIDxyZGY6RGVzY3JpcHRpb24gcmRmOmFib3V0PScnCiAgICAgICAgeG1sbnM6cGRmPSdodHRwOi8vbnMuYWRvYmUuY29tL3BkZi8xLjMvJz4KICAgICAgICA8cGRmOkF1dGhvcj5KdWRpdGggTW9zc21hbjwvcGRmOkF1dGhvcj4KICAgICAgICA8L3JkZjpEZXNjcmlwdGlvbj4KCiAgICAgICAgPHJkZjpEZXNjcmlwdGlvbiByZGY6YWJvdXQ9JycKICAgICAgICB4bWxuczp4bXA9J2h0dHA6Ly9ucy5hZG9iZS5jb20veGFwLzEuMC8nPgogICAgICAgIDx4bXA6Q3JlYXRvclRvb2w+Q2FudmEgKFJlbmRlcmVyKTwveG1wOkNyZWF0b3JUb29sPgogICAgICAgIDwvcmRmOkRlc2NyaXB0aW9uPgogICAgICAgIAogICAgICAgIDwvcmRmOlJERj4KICAgICAgICA8L3g6eG1wbWV0YT5dnzvSAAFdrElEQVR4nOzZwQ3AIBDAsIP9d253IA+EZE+Qf9bMfAMAAAAAAHBo3w4AAAAAAADeZjYAAAAAAACJ2QAAAAAAACRmAwAAAAAAkJgNAAAAAABAYjYAAAAAAACJ2QAAAAAAACRmAwAAAAAAkJgNAAAAAABAYjYAAAAAAACJ2QAAAAAAACRmAwAAAAAAkJgNAAAAAABAYjYAAAAAAACJ2QAAAAAAACRmAwAAAAAAkJgNAAAAAABAYjYAAAAAAACJ2QAAAAAAACRmAwAAAAAAkJgNAAAAAABAYjYAAAAAAACJ2QAAAAAAACRmAwAAAAAAkJgNAAAAAABAYjYAAAAAAACJ2QAAAAAAACRmAwAAAAAAkJgNAAAAAABAYjYAAAAAAACJ2QAAAAAAACRmAwAAAAAAkJgNAAAAAABAYjYAAAAAAACJ2QAAAAAAACRmAwAAAAAAkJgNAAAAAABAYjYAAAAAAACJ2QAAAAAAACRmAwAAAAAAkJgNAAAAAABA8gMAAP//7NmxAAAAAMAgf+tB7C2NZAMAAAAAALDIBgAAAAAAYJENAAAAAADAIhsAAAAAAIBFNgAAAAAAAItsAAAAAAAAFtkAAAAAAAAssgEAAAAAAFhkAwAAAAAAsMgGAAAAAABgkQ0AAAAAAMAiGwAAAAAAgEU2AAAAAAAAi2wAAAAAAAAW2QAAAAAAACyyAQAAAAAAWGQDAAAAAACwyAYAAAAAAGCRDQAAAAAAwCIbAAAAAACARTYAAAAAAACLbAAAAAAAABbZAAAAAAAALLIBAAAAAABYZAMAAAAAALDIBgAAAAAAYJENAAAAAADAIhsAAAAAAIBFNgAAAAAAAItsAAAAAAAAFtkAAAAAAAAssgEAAAAAAFhkAwAAAAAAsMgGAAAAAABgkQ0AAAAAAMAiGwAAAAAAgEU2AAAAAAAAi2wAAAAAAAAW2QAAAAAAACyyAQAAAAAAWGQDAAAAAACwyAYAAAAAAGAJAAD//+zZsQAAAADAIH/rQewtjWQDAAAAAACwyAYAAAAAAGCRDQAAAAAAwCIbAAAAAACARTYAAAAAAACLbAAAAAAAABbZAAAAAAAALLIBAAAAAABYZAMAAAAAALDIBgAAAAAAYJENAAAAAADAIhsAAAAAAIBFNgAAAAAAAItsAAAAAAAAFtkAAAAAAAAssgEAAAAAAFhkAwAAAAAAsMgGAAAAAABgkQ0AAAAAAMAiGwAAAAAAgEU2AAAAAAAAi2wAAAAAAAAW2QAAAAAAACyyAQAAAAAAWGQDAAAAAACwyAYAAAAAAGCRDQAAAAAAwCIbAAAAAACARTYAAAAAAACLbAAAAAAAABbZAAAAAAAALLIBAAAAAABYZAMAAAAAALDIBgAAAAAAYJENAAAAAADAIhsAAAAAAIBFNgAAAAAAAItsAAAAAAAAFtkAAAAAAAAssgEAAAAAAFhkAwAAAAAAsMgGAAAAAABgCQAA///s2bEAAAAAwCB/60HsLY1kAwAAAAAAsMgGAAAAAABgkQ0AAAAAAMAiGwAAAAAAgEU2AAAAAAAAi2wAAAAAAAAW2QAAAAAAACyyAQAAAAAAWGQDAAAAAACwyAYAAAAAAGCRDQAAAAAAwCIbAAAAAACARTYAAAAAAACLbAAAAAAAABbZAAAAAAAALLIBAAAAAABYZAMAAAAAALDIBgAAAAAAYJENAAAAAADAIhsAAAAAAIBFNgAAAAAAAItsAAAAAAAAFtkAAAAAAAAssgEAAAAAAFhkAwAAAAAAsMgGAAAAAABgkQ0AAAAAAMAiGwAAAAAAgEU2AAAAAAAAi2wAAAAAAAAW2QAAAAAAACyyAQAAAAAAWGQDAAAAAACwyAYAAAAAAGCRDQAAAAAAwCIbAAAAAACARTYAAAAAAACLbAAAAAAAABbZAAAAAAAALLIBAAAAAABYZAMAAAAAALDIBgAAAAAAYAkAAP//7NmxAAAAAMAgf+tB7C2NZAMAAAAAALDIBgAAAAAAYJENAAAAAADAIhsAAAAAAIBFNgAAAAAAAItsAAAAAAAAFtkAAAAAAAAssgEAAAAAAFhkAwAAAAAAsMgGAAAAAABgkQ0AAAAAAMAiGwAAAAAAgEU2AAAAAAAAi2wAAAAAAAAW2QAAAAAAACyyAQAAAAAAWGQDAAAAAACwyAYAAAAAAGCRDQAAAAAAwCIbAAAAAACARTYAAAAAAACLbAAAAAAAABbZAAAAAAAALLIBAAAAAABYZAMAAAAAALDIBgAAAAAAYJENAAAAAADAIhsAAAAAAIBFNgAAAAAAAItsAAAAAAAAFtkAAAAAAAAssgEAAAAAAFhkAwAAAAAAsMgGAAAAAABgkQ0AAAAAAMAiGwAAAAAAgEU2AAAAAAAAi2wAAAAAAAAW2QAAAAAAACyyAQAAAAAAWGQDAAAAAACwyAYAAAAAAGCRDQAAAAAAwBIAAAD//+zZsQAAAADAIH/rQewtjWQDAAAAAACwyAYAAAAAAGCRDQAAAAAAwCIbAAAAAACARTYAAAAAAACLbAAAAAAAABbZAAAAAAAALLIBAAAAAABYZAMAAAAAALDIBgAAAAAAYJENAAAAAADAIhsAAAAAAIBFNgAAAAAAAItsAAAAAAAAFtkAAAAAAAAssgEAAAAAAFhkAwAAAAAAsMgGAAAAAABgkQ0AAAAAAMAiGwAAAAAAgEU2AAAAAAAAi2wAAAAAAAAW2QAAAAAAACyyAQAAAAAAWGQDAAAAAACwyAYAAAAAAGCRDQAAAAAAwCIbAAAAAACARTYAAAAAAACLbAAAAAAAABbZAAAAAAAALLIBAAAAAABYZAMAAAAAALDIBgAAAAAAYJENAAAAAADAIhsAAAAAAIBFNgAAAAAAAItsAAAAAAAAFtkAAAAAAAAssgEAAAAAAFhkAwAAAAAAsMgGAAAAAABgCQAA///s2bEAAAAAwCB/60HsLY1kAwAAAAAAsMgGAAAAAABgkQ0AAAAAAMAiGwAAAAAAgEU2AAAAAAAAi2wAAAAAAAAW2QAAAAAAACyyAQAAAAAAWGQDAAAAAACwyAYAAAAAAGCRDQAAAAAAwCIbAAAAAACARTYAAAAAAACLbAAAAAAAABbZAAAAAAAALLIBAAAAAABYZAMAAAAAALDIBgAAAAAAYJENAAAAAADAIhsAAAAAAIBFNgAAAAAAAItsAAAAAAAAFtkAAAAAAAAssgEAAAAAAFhkAwAAAAAAsMgGAAAAAABgkQ0AAAAAAMAiGwAAAAAAgEU2AAAAAAAAi2wAAAAAAAAW2QAAAAAAACyyAQAAAAAAWGQDAAAAAACwyAYAAAAAAGCRDQAAAAAAwCIbAAAAAACARTYAAAAAAACLbAAAAAAAABbZAAAAAAAALLIBAAAAAABYZAMAAAAAALDIBgAAAAAAYAkAAP//7NmxAAAAAMAgf+tB7C2NZAMAAAAAALDIBgAAAAAAYJENAAAAAADAIhsAAAAAAIBFNgAAAAAAAItsAAAAAAAAFtkAAAAAAAAssgEAAAAAAFhkAwAAAAAAsMgGAAAAAABgkQ0AAAAAAMAiGwAAAAAAgEU2AAAAAAAAi2wAAAAAAAAW2QAAAAAAACyyAQAAAAAAWGQDAAAAAACwyAYAAAAAAGCRDQAAAAAAwCIbAAAAAACARTYAAAAAAACLbAAAAAAAABbZAAAAAAAALLIBAAAAAABYZAMAAAAAALDIBgAAAAAAYJENAAAAAADAIhsAAAAAAIBFNgAAAAAAAItsAAAAAAAAFtkAAAAAAAAssgEAAAAAAFhkAwAAAAAAsMgGAAAAAABgkQ0AAAAAAMAiGwAAAAAAgEU2AAAAAAAAi2wAAAAAAAAW2QAAAAAAACyyAQAAAAAAWGQDAAAAAACwyAYAAAAAAGAJAAD//+zZsQAAAADAIH/rQewtjWQDAAAAAACwyAYAAAAAAGCRDQAAAAAAwCIbAAAAAACARTYAAAAAAACLbAAAAAAAABbZAAAAAAAALLIBAAAAAABYZAMAAAAAALDIBgAAAAAAYJENAAAAAADAIhsAAAAAAIBFNgAAAAAAAItsAAAAAAAAFtkAAAAAAAAssgEAAAAAAFhkAwAAAAAAsMgGAAAAAABgkQ0AAAAAAMAiGwAAAAAAgEU2AAAAAAAAi2wAAAAAAAAW2QAAAAAAACyyAQAAAAAAWGQDAAAAAACwyAYAAAAAAGCRDQAAAAAAwCIbAAAAAACARTYAAAAAAACLbAAAAAAAABbZAAAAAAAALLIBAAAAAABYZAMAAAAAALDIBgAAAAAAYJENAAAAAADAIhsAAAAAAIBFNgAAAAAAAItsAAAAAAAAFtkAAAAAAAAssgEAAAAAAFhkAwAAAAAAsMgGAAAAAABgkQ0AAAAAAMASAAAA///s2bEAAAAAwCB/60HsLY1kAwAAAAAAsMgGAAAAAABgkQ0AAAAAAMAiGwAAAAAAgEU2AAAAAAAAi2wAAAAAAAAW2QAAAAAAACyyAQAAAAAAWGQDAAAAAACwyAYAAAAAAGCRDQAAAAAAwCIbAAAAAACARTYAAAAAAACLbAAAAAAAABbZAAAAAAAALLIBAAAAAABYZAMAAAAAALDIBgAAAAAAYJENAAAAAADAIhsAAAAAAIBFNgAAAAAAAItsAAAAAAAAFtkAAAAAAAAssgEAAAAAAFhkAwAAAAAAsMgGAAAAAABgkQ0AAAAAAMAiGwAAAAAAgEU2AAAAAAAAi2wAAAAAAAAW2QAAAAAAACyyAQAAAAAAWGQDAAAAAACwyAYAAAAAAGCRDQAAAAAAwCIbAAAAAACARTYAAAAAAACLbAAAAAAAABbZAAAAAAAALLIBAAAAAABYZAMAAAAAALDIBgAAAAAAYAkAAP//7NmxAAAAAMAgf+tB7C2NZAMAAAAAALDIBgAAAAAAYJENAAAAAADAIhsAAAAAAIBFNgAAAAAAAItsAAAAAAAAFtkAAAAAAAAssgEAAAAAAFhkAwAAAAAAsMgGAAAAAABgkQ0AAAAAAMAiGwAAAAAAgEU2AAAAAAAAi2wAAAAAAAAW2QAAAAAAACyyAQAAAAAAWGQDAAAAAACwyAYAAAAAAGCRDQAAAAAAwCIbAAAAAACARTYAAAAAAACLbAAAAAAAABbZAAAAAAAALLIBAAAAAABYZAMAAAAAALDIBgAAAAAAYJENAAAAAADAIhsAAAAAAIBFNgAAAAAAAItsAAAAAAAAFtkAAAAAAAAssgEAAAAAAFhkAwAAAAAAsMgGAAAAAABgkQ0AAAAAAMAiGwAAAAAAgEU2AAAAAAAAi2wAAAAAAAAW2QAAAAAAACyyAQAAAAAAWGQDAAAAAACwyAYAAAAAAGAJAAD//+zZPUtbYRjH4bvQ4SgBA466OCQKenzZxC0R/AbixzSDo6hgBvElq6OrDoLiiSQu7VKEQtvltj1JvS644Rn/POtPbAAAAAAAAFLEBgAAAAAAIEVsAAAAAAAAUsQGAAAAAAAgRWwAAAAAAABSxAYAAAAAACBFbAAAAAAAAFLEBgAAAAAAIEVsAAAAAAAAUsQGAAAAAAAgRWwAAAAAAABSxAYAAAAAACBFbAAAAAAAAFLEBgAAAAAAIEVsAAAAAAAAUsQGAAAAAAAgRWwAAAAAAABSxAYAAAAAACBFbAAAAAAAAFLEBgAAAAAAIEVsAAAAAAAAUsQGAAAAAAAgRWwAAAAAAABSxAYAAAAAACBFbAAAAAAAAFLEBgAAAAAAIEVsAAAAAAAAUsQGAAAAAAAgRWwAAAAAAABSxAYAAAAAACBFbAAAAAAAAFLEBgAAAAAAIEVsAAAAAAAAUsQGAAAAAAAgRWwAAAAAAABSvtY9AAAA+LcWFxdjaWkp5ufno9ls/vIajUbMzs5GURRRFEXMzMy8v4uiiIiIl5eXeHt7i9FoFKPRKMbjcYzH46iqKqqqioeHh/e7v7//6T0cDmv+BQAA4CN9iYhvdY8AAAA+3urqarTb7VheXn6/VqsVjUaj7mnx9PQUd3d3vz0AAGC6iA0AADDlFhYWoizLKMsy1tfXY21tLVZWVuqelTIYDOLq6ipubm7i+vo6bm9v654EAAD8gdgAAABTZG5uLnZ3d2N7ezs2NzejLMtoNpt1z/rrqqqKwWAQl5eXcX5+Hv1+P15fX+ueBQAA/CA2AADABCuKInZ2dqLb7Ua3242tra26J02Mfr8fJycncXp6GhcXF3XPAQCAT01sAACACbOxsRF7e3vR6XSi0+nUPWcqDIfDODs7i8PDwzg6Oorn5+e6JwEAwKciNgAAwARotVpxcHAQ+/v70W63654z9Y6Pj6PX60Wv14vHx8e65wAAwH/vOwAAAP//7N19TNXl/8fx13Kpx4wj3hsKpYlKdhDLMBSwacfUwJuExCW1OaxVtLII3aydlvsupRvndFg6y2lZWoqSMkWMoBsyvAEx8YYQLdOpwCEQtJa/P/p92W+/ouTwOVxwfD62Mzc91/t6ifOf8zrX56JsAAAAAAwJDAxUXFyc4uLiFBoaajqOz/rqq6/06aef6pNPPlF1dbXpOAAAAIBPomwAAAAAWlGvXr0UHx+vmTNnavTo0abj3HCysrL08ccfa8eOHaqrqzMdBwAAAPAZlA0AAABAK0hISNCsWbPkdDpNR4GkhoYGffbZZ1q2bJlKSkpMxwEAAADaPcoGAAAAwEsiIyM1e/ZszZgxQ35+fqbjoAlff/21VqxYoYyMDNNRAAAAgHaLsgEAAACw0KBBgzRnzhw99thjCggIMB0HzXDu3DktX75ca9euldvtNh0HAAAAaFcoGwAAAAALREVF6aWXXtKDDz5oOgpa6PLly9q4caOWL1+u48ePm44DAAAAtAuUDQAAAEALxMTEKCUlRaNGjTIdBV7w5Zdf6o033lBubq7pKAAAAECbRtkAAAAAeGDWrFl6+eWXNWzYMNNRPFJbW6sTJ07o/PnzqqqqUmVlpaqqqlRVVaVLly7p0qVLqqurU319fePr8uXLamhoUG1trSTJbrfLZrOpc+fOstls6tSpk2w2m7p06aIePXqoe/fu8vf3b/zV399fvXv31tChQ9W1a1fDP4Hm2bVrlxYuXKijR4+ajgIAAAC0SZQNAAAAwHW45ZZbNH/+fD300EO6++67dfPNN5uO9K8aGhpUVFSksrIylZWV6ccff2x8Xbx40Wi2Xr16afDgwQoODtbgwYM1ePBgjRgxQgMGDDCa69+sW7dOLpdL586dMx0FAAAAaFMoGwAAAIAmREdHa9y4cQoLC9OECRPUoUMH05Ga1NDQoOLiYhUWFqqoqEiHDh1ScXGx6VjN1q9fP0VERGjMmDGKjo5WSEiI6Uh/UV9frzfffFNvv/22GhoaTMcBAAAA2gTKBgAAAOB/hYSEKDY2VtHR0QoPD5fNZjMdqUnV1dX68ssvlZubq2+++aZdFgvXw263a+zYsRo3bpwiIyMVGhpqOlKjn3/+WQsXLtTmzZstm3n77berX79+6t69u/z8/BpfklRTU9P4unjxos6cOaOzZ89atjcAAADQEpQNAAAAuKGNHTtWU6ZM0eTJkxUcHGw6TpMuX76s/Pz8xoLh4MGDpiMZYbfbFR0drejoaI0fP15DhgwxHUnffvutkpOTdeTIket6/5AhQxQSEqKQkBCFhoYqKChIAQEB6tGjh0f7nzx5UidPntS+fft04MABFRQUyO12ezQLAAAA8BRlAwAAAG44o0aN0pw5cxQXF6du3bqZjtOk8vJybdu2TZmZmfrmm29Mx2mTgoODNW3aNE2bNk1hYWFGs6Snp2vx4sWqrKxs/L2wsDDdd999cjgccjgcuvfee1slS2FhoXbs2KEdO3bo8OHDrbInAAAAbmyUDQAAALghDB8+XDNnztTMmTM1aNAg03GaVFxc3Fgw8CFx8/Tv31/Tp0/XI488ovDwcCMZamtrtWHDBtXU1GjmzJkaOHCgkRz/1759+7Rw4UIKKwAAAHgVZQMAAAB8VlhYmKZPn66pU6e26Uck/dfPP/8sl8ulDRs2mI7S7vXv31+PPvqo4uLi2tQ9DyZlZ2dr0aJFPnu/BwAAAMyibAAAAIBP6dOnj+bMmaO5c+fq9ttvNx3HIxUVFVq8eDGlg0WGDBmixMREzZ49W3379jUdx7h169bplVde0YULF0xHAQAAgA+hbAAAAIBPGD9+vJ5++mlNnjzZdBTLVFRUaN68ecrLyzMdxWdMmjRJiYmJmjZtmukoRlVXVys2Nlbff/+96SgAAADwEZQNAAAAaNcSExP13HPP6a677jIdxWvy8vKUkpLC428s1KdPH82fP1/z5s1T586dTccxJjExUZs3bzYdAwAAAD6ggySX6RAAAABAc/Tr108vv/yy1q9fr/j4ePXu3dt0JK8KCgpSUlKSJCk/P99wGt9QV1enPXv2aM2aNerQoYOGDx+ujh07mo7V6qZPny632619+/aZjgIAAIB2jrIBAAAA7cawYcP0zjvv6N1339WYMWPUpUsX05FaVVRUlGJjY3X8+HFVVFSYjuMT6uvrtWfPHr333nuqr6/XiBEjbriTDk6nU9euXaPIAgAAQItQNgAAAKDNGzlypJYvX6633npLISEhpuMY9d8LsPk2urWuXLmi/Px8paenq6amRqGhoTdUmRUdHa1ff/1V3333nekoAAAAaKe4swEAAABt1rhx47RgwQJFR0ebjtImZWZmKikpSW6323QUn+Pn56fU1FTNnz/fdJRW9fDDDysnJ8d0DAAAALRDlA0AAABoc2JjY5WamqqRI0eajvIXdXV1qqqq0tWrV3Xt2jV17NhRAwYMMJanoqJC8fHxXB7tBVlZWRo3bpzpGK2qrq5O4eHhKisrMx0FAAAA7QxlAwAAANoMp9Mpl8ulsLAw01Ea/fTTT9q5c6dKSkpUVFTU5KOLoqKiGl8Oh0N2u73VMrrdbjmdTgoHC33yySeKjY01HcOIgwcPKiIiwnQMAAAAtDOUDQAAADAuLCxMb7zxhqKiokxHkSSVlpZq9+7d2rhxow4dOuTRjKioKMXExCg2NlaBgYEWJ/x78+bN0/r161tlL1+2ePFivfjii0b2/vXXX3X06FFduXLlL3/WqVMnORyOVrnA2uVyacmSJV7fBwAAAL6DsgEAAADGBAcH67XXXtO0adNMR1F2drbWrl2r3NxcVVdXWzrb4XAoOTlZMTExXj/xQOHQMk888YTS09NbZa8DBw7oyJEjOnLkiA4fPqzS0lKdPXv2X9cFBwdr+PDhGj16tMLDw3Xfffd5JV9wcLDOnDnjldkAAADwPZQNAAAAaHWBgYFyuVxKSEgwmiMnJ0fZ2dnaunWrTp8+7fX97Ha7YmNjtWjRIq+edqBw8MwDDzygnTt3em3+F198oZ07dyo3N1clJSWWzQ0ICNCjjz6q5ORk9e3b17K5GRkZxv+PAgAAoP2gbAAAAECr6dy5s15//XUlJSWpU6dORjLs3btXGzduVEZGhmpra41kkP58zNKiRYsUGRnplfkUDs1js9lUXFys/v37Wzr3999/17p16+RyuXTx4kVLZ/+d5ORkvfbaa7LZbJbMczqdys/Pt2QWAAAAfBtlAwAAAFrFCy+8IJfLpY4dO7b63pWVlXr//fe1cuVK/fLLL62+/z+JiopSWlqaHA6HpXNNXxptt9vlcDgUGhqqoqIiFRcXy+12G8lyPVwul1JTUy2bd/XqVX3wwQdasGCB6uvrLZt7PQYNGqQPP/xQoaGhLZ61f/9+jR071oJUAAAA8HWUDQAAAPCqgIAAff755xo6dKixDD/99JO2b9+uvXv36osvvtDly5eNZWnKnDlzlJaWZumdDiYKB4fDobS0tL+97DsvL08pKSnGCpCm3HHHHfrhhx8sm/fBBx8oNTVVNTU1ls1sri5dumjTpk0aP358i2fNmjVL27ZtsyAVAAAAfBllAwAAALzmySef1NKlS42cZvgneXl52r17t7Zt26aTJ0+ajtPIbrdr9erViomJsWxmcXGxwsPDLZv3T66nMHG73UpJSWlTj3jatGmTJT/z2tpazZ07V9u3b7cglTWs+LuVlpYqLCzMokQAAADwVZQNAAAAsFxQUJDWrl2riIgI01H+VU5OjtasWaOMjAzTURrFxMRo9erVlp1yWLFihVJSUiyZ1RSHw6Hdu3dfd+bw8PA2ccIhIiJCOTk5LZ5z/PhxTZ06VadOnWp5KItt3bpVDz30UItmzJgxQ1lZWRYlAgAAgC+ibAAAAIClZs+erWXLlunWW281HaVZTp06pbfeektr1qwxHUXSn4XNpk2bLLvLIT4+XpmZmZbM+ju7du3620cnNSUvL08TJ070Wp7rtWXLFk2aNKlFMyoqKhQdHa3z589blMpaNptNe/fu1YgRIzyekZ+fL6fTaWEqAAAA+BrKBgAAAFiia9euWrlypeLj401HaZHy8nL95z//0YYNG0xHkSStXr1ajz32WIvnuN1uDRkyxCuXNAcFBam0tLTZ60yfbrjzzjt1+PDhFs04ceKEJk6c2OYuHv//unfvrgMHDqhPnz4ez4iIiNDBgwctTAUAAABfcpPpAAAAAGj/Ro0apcLCwnZfNEh/Xha8evVq7d+/v008BiopKcmS4sNut+vNN9+0INFfNedEgxXrrDJ37twWra+pqZHT6WzzRYMkVVZWKikpqUUzkpOTLUoDAAAAX0TZAAAAgBZJTU1VXl6egoKCTEexVEhIiHJycrR27Vr16NHDaJakpCRL7lyIjIy0IM1fefpv361bN4uTNE9LT4w8//zzOnfunEVpvC87O1ubN2/2eH1CQoJ69+5tYSIAAAD4EsoGAAAAeOS2225Tdna2XC6X6ShelZCQoJKSkhY/17+lVqxY0eITDm2tEDJ5smHChAnq2bOnx+uzsrK0ceNGCxO1jldffbVF65966imLkgAAAMDXUDYAAACg2caMGaPvv/9eY8eONR2lVXTr1k1btmzR22+/bTSHFY9U8kbhkJeX59E6u91ucZLr9/DDD3u8tqGhQc8884yFaVrPqVOntHLlSo/Xt/RRTAAAAPBdXBANAACAZklOTtbSpUtNxzCmqKhIU6ZM0aVLl4xl2L17t8ePRLLZbBan+fOEwq5duzxa640816O8vFx9+/b1aO2yZcu0cOFCixO1nu7du6usrEydO3f2aP3p06e1f/9+nThxQmfOnFFZWZkOHjyo6upqi5MCAACgPaFsAAAAwHWx2Wx6//33NXXqVNNRjDt27JgmT56ss2fPGtnfbrfr2LFjzT4ZkJ+fL6fTaXmeoKAglZaWerTWRNkwePBgFRcXe7w+MDBQFy5csDBR61uyZImee+45S2eWlpbqwIED2r9/vwoLC3X48GHV19dbugcAAADaLsoGAAAA/KuePXsqMzNTI0aMMB2lzaioqJDT6dTp06eN7O/JaYJ58+Zp/fr1Xsnj6YfKJsqGJ554Qunp6R6tXbVqlV544QWLE7W+vn37qry83Ov7HD16VAUFBdq1a5dyc3Pldru9vicAAADMoGwAAADAPxo4cKCysrIUGBho+ezffvtNx44da/wQsrq6WseOHdOVK1f+8t6bbrpJf/zxh6Q/v9l/2223KTAwUGFhYbrnnnvk5+dneb5/U15ersjISGOPVHr22WeVlpZ2Xe/NzMxUfHy817J4WjaEh4e36JSBJ959910lJiZ6tPb+++/XoUOHLE5kxqpVq/T444+36p65ubnavHmztmzZwmOXAAAAfAxlAwAAAJo0evRobdmyRf7+/pbP/uijj/Tiiy9a9oGjv7+/+vXrpzvuuEMTJkxQTEyMAgICLJn9TwoLCz2+P8EKaWlpevbZZ//xPfn5+YqLi/Pqt8o9LRsmTpzo8QXTniooKFBoaGiz11VUVGjo0KFeSGRGaGioCgoKjO2fk5OjjIwMbd261egdKAAAALDG/wAAAP//7N17VJR1/gfwt786uyIlD3lZ16MxXspLHRxMKzlHeNBKvKBjJbHeGFwvnRO7DiXWZrsMZatnbUM3KJVcZsyy1YxBzQoDBqi20uPMYBZqMAO5XSyF8YKerV1/f/ib+TEwwMwz32G4vF/ndArm+Xyejx7s1PN5vp8Pmw1ERERE5FVSUhL27NkjPO+FCxewatUqmEwm4blbuvPOO5GYmIiZM2ciNjY2aPcpLCzEwoULg5a/I3Fxcdi0aROio6M9vl9fX4/169cHbXRSc92p2aC01ry8PKxZs0ZwNaFVWVmJSZMmhboMvP/++zAYDJ3y7wUiIiIiCg42G4iIiIioldTUVGzdulV43s8++wyLFi3CmTNnhOfuiCRJmDt3LlJSUpCQkCA8/5o1a5CXlyc8rz+ioqIQFRUFAGhsbOzU8UTdpdkQyHLoBQsW4ODBg4IrCq2lS5di27ZtoS7D7ezZs9i9ezeMRiO+/PLLUJdDRERERH5gs4GIiIiIPOj1ejz55JPC82ZnZ2Pjxo3C8yoxevRoZGRkYNmyZcJyXr16FRMmTAjZwuhQioqKQnV1taLYzt7ZMGvWLOzbt09R7LBhw3rkuJ/z58+HZFF3R44dO4bt27fDaDSGuhQiIiIi8sH/hLoAIiIiIuo68vLyhDcarFYr7rrrri7TaACAr776Co899hhmzJiBuro6ITn79u2Ll19+WUiu7sZ1mkKJzl4OrVKpFMX961//6pGNBgB47733Ql2CVxMnTsTWrVtx4sQJLF68ONTlEBEREVEH2GwgIiIiIgDAtm3bhL7pD1w/zTBlyhR88cUXQvOKUlFRgYkTJwp7c3r69Ol45JFHhOTqTlruiujKBg8erCiuq/4Mi7Bu3bpQl9CukSNHIj8/HzabDSkpKaEuh4iIiIjawGYDEREREeHVV1/F0qVLheW7fPky5s6d26VOM7SlqakJjz76KJKTk3HhwoWA8z3zzDMCqupe4uLiFMWFYuTUwIEDFcWdPn1acCVdh91uVzwGqzPdfvvtKCgogM1mQ3JycqjLISIiIqIW2GwgIiIi6uV27tyJRYsWCctXW1uL2NhYHD58WFjOznDgwAFMmjQJNpstoDyjR4+GRqMRVFX3oPRkg6gRVv6IjIxUFNfTd3GsXbs21CX47Pbbb4fRaITFYkFiYmKoyyEiIiKi/8NmAxEREVEvtmXLFixYsEBYvtLSUsTGxuLUqVPCcnamr7/+GgkJCbBarQHl6U2nG6KiohTvbKioqBBcTcduvvlmRXE9dV+Dy+HDh7tdQ2Xs2LEoLCzEO++8g7Fjx4a6HCIiIqJej80GIiIiol7qySefxMqVK4Xle+WVVzB79mw4nU5hOUPhypUrmDNnDmpraxXnuOOOOzBt2jSBVXVdS5YsURwbipMNYWFhiuK6+8+1L/Lz80NdgiLTpk2DxWLBq6++iqFDh4a6HCIiIqJei80GIiIiol7oN7/5DfR6vbB8q1atwuOPPy4sn4tWq0VZWRnsdjtkWRaevy3nzp3DQw89FFAOkaOpurLFixcrjg3FyYYbb7xRUdyVK1cEV9L1FBQUhLqEgCxatAg1NTXYuHEjIiIiQl0OERERUa/DZgMRERFRLzNr1iz8/e9/F5KrqakJSUlJ2Llzp5B8LalUKsiyDJVK1e4eBJVKBbvdjqysLKhUKiH3rq6uRnZ2tuL4+fPnK36LvrtYsmSJ4hFK9fX1ITnZ8D//o+x/gX7++WfBlXQ9586dwxtvvKE4vrq6Gi+//DIsFovAqvy3evVqHD9+HDNnzgxpHURERES9DZsNRERERL3IHXfcgV27dgnJ5XQ6MWPGDHzwwQdC8nVk3rx5bX6m1+uhUqmg1+uh1WqF3XPjxo04efKkotiwsDDMnj1bWC1dUXc71QAA//73v0Ny3+4iNzdXcezYsWOxf/9+xMbGYtCgQViyZAn27duHixcvCqzQN4MGDcLbb7+NgoICnnIgIiIi6iRsNhARERH1EpGRkTCZTELetv/hhx8QHx+Po0ePBpRHpVJBrVb7fG1WVpb7r9TUVPfJh9TUVPd1JpMpoJpa2rBhg+LYlJQUgZV0Lenp6YiLi1Mcv3//foHV+O6nn35SFNe3b1/BlXRNFosFH3/8seL4F154AQBw6dIlvPXWW1i8eDEGDx6MWbNm4ZVXXun03RcpKSmwWq24//77O/W+RERERL1RHwDXQl0EEREREQVfSUkJYmNjA87z448/IiEhAV999VVAeTQajXtGfEJCAqxWq/uz1NRUyLIMjUYDSZJ8zul0Ov263ldVVVW47bbbFMX2xFFKEREROHnypOI3xp1OJ4YMGSK4Kt/s2bMHSUlJfsctXrwY+/btC0JFXU9SUhL27NmjOH7VqlXtjlZ76KGHsGjRok4fc2QwGLB27dqQnLQgIiIi6g14soGIiIioF9i0aZOQRsP58+dx//33B9xoAACdTgdJkiBJEsrKyqBWq5Gamgq73Q6DwQCtVut346ChoUHYzobmDAaD4lhfT26IEB0djYULFyIzMxOzZ8/GrbfeGpT75OfnBzSa5sCBAwKr8c+lS5cUxd1yyy2CK+m6Dhw4gNraWsXx2dnZCA8Pb/Pzffv24cEHH8TQoUORmZmJ06dPK76XP7RaLaqqqjB9+vROuR8RERFRb8NmAxEREVEPl5iYiPT09IDzOJ1OJCYmorq6WkBV1/csuEiSBIvFAoPBEFCzQKVSwWKxYPXq1YEX2Ewgb3lPnjxZYCXezZkzB3a7HZ9++il27NiBZ599Fm+99RZOnjyJkpISxUucvVmyZImikwHNvfTSS4Kq8d+5c+cUxQ0ePFhwJV3bli1bFMcOGTIEOp2uw+saGhqQm5uL6OhozJs3D8XFxYrv6U9tBw8eDGj5OxERERF5x2YDERERUQ82bNiwgN7Kd7ly5QrmzJmD48ePB17U/zGbzTAajcLyuUiShM2bN7tHNAHXmxBlZWUeDQ5/nDlzBh999JGi2LvuuktRnK9eeOEF7N27t82xRLGxsaisrMTo0aMDvldcXBy2b98eUI7KykpUVVUFXItSZ8+eVRQ3dOhQwZV0ba+99hrOnz+vOP6JJ57wq8lVXFyMefPmYfz48cjLy8OFCxcU39sXa9euxbvvvsvl0UREREQCsdlARERE1IPt3r1byMM0jUYT8DJobxwOh1/XG41GGI1GlJeXd7hoVqvVoqCgADk5ObDb7ZBlGVlZWZBlWVGtFRUViuLGjRunKM4XGRkZeOyxxzq8btCgQSgqKkL//v0V3ys6OjqgEx4u69evDzhHIL777jtFcSNHjhRcSdd25coVbN26VXF8WFgYdu/e7Xec3W7HmjVrcPvttyM3N1fx/X0hyzI+++wzjB8/Pqj3ISIiIuot2GwgIiIi6qHWrVuHSZMmBZznoYceUvygvT1arRZZWVltfm40GpGQkIA+ffq4v+fa5SDLMiRJQkxMTLunI7Rarcc4F6fTicbGRkX1WiwWRXHDhw9XFNeRyMhIPP300z5fP3LkSMXjpaKjo1FcXBxw46qysjIoP0v+OHPmjKI4ESdDupvc3NyAThjExMRg06ZNimKdTicyMzOhVquDOl7p1ltvRUVFBWbMmBG0exARERH1Fmw2EBEREfVAkyZNwjPPPBNwnuXLl+PQoUMCKvIky7LHmKPmbDYbYmJioNVqYTabW8U1Z7VaodVqMX/+/A7v6XQ6IcsyrFaropqVjpD69a9/rSiuI4888ghuuukmv2JWrVrl931ENRqA0J9qAKB48fGwYcN63cidhoYGbNiwIaAc6enpmDt3ruL4kydPYt68ebj33nuDtlg8PDwcJpMJy5YtC0p+IiIiot6CzQYiIiKiHqZv375CdiG8+OKLeP311wVUBMTHx3t83VajwWg0em0IlJeXt5lbkiTk5OR0WINWq1XcaACUj98BIHRBs8uUKVP8jhkwYADGjBnj8/VLlizBp59+KuQh+65du0J+qgEA6urqFMfGxcUJrKRrGzduHH7729/izjvvxM8//xxQrjfeeANjx44NKIfNZkNycjImT56MTz/9NKBcbcnLy1N8EoOIiIiI2GwgIiIi6nE2bNgQ8Hz5kpISrFu3Tkg9rhMK165dQ1lZGQoLC6FSqVpd19jYCL1e3+6YI2/7FgoKCtz5MjIykJaW5jVWo9EoKd/t6tWrikfK+HsCwReRkZGK4kaMGNHhNREREdi+fXvAy6BdnE4n1qxZIySXCCdOnFAUt3DhQsGVdC1JSUnYsmULampqcOzYMeTm5mLRokW48cYbA8p7ww03oKKiAuHh4QHX+Pnnn0OWZaxevRqXLl0KOF9L6enp2Lt3L/r27Ss8NxEREVFPx2YDERERUQ8SFxeHRx99NKAc1dXVeOSRRwRVBKSmprr/WZblNh/6S5IEi8Xi9fOW45RcdDqd+/qioiJs3rwZBoMBW7Zs8VqHtyaHPy5evKgo7oYbbgjovt785z//URTX0UPUuLg4FBcXY8mSJYrye7NixYoOF3p3JqXNBkmSBFcSeuPGjcOmTZvw/fffY8+ePVi5ciWGDh0q/D4333yz0BMJ27dvR3R0NEpKSoTldJkzZw5KSkowYMAA4bmJiIiIejI2G4iIiIh6kB07dgQUf+XKFTz88MO4fPmyoIqA7OzsDkfXuJoDkiShsLDQYyzS6tWr3Q2L+Ph4XLt2DXa7HQUFBe7r6urqoNVq3TF6vd7rPQM93fCLX/xCUVygb4Z789NPPymKa6sW12mG999/H9HR0YGU5iE3Nzdos/aVstlsiuLOnj0ruJLQSU5ORmVlJY4dO4b09HT0798/6PccNWoUtm3bJizft99+izlz5mDNmjW4evWqsLwAMHHiRPzzn//EbbfdJjQvERERUU/GZgMRERFRD5Geno5hw4YFlGPVqlWoqakRVNF1ZrMZKpUK2dnZXj8vLy+HTqdDTEyMu0Gg0+lgsVhgsViwefPmVicSVCqVR3NBo9F4jF9qbGyEwWBoda/mpyyUUNps6NOnT0D39UbpHH1vpyzWrVuHkydPCj3NAABVVVXIzMwUmlOE7du3KxrBc+TIkSBU03kkSUJmZiZqampgNBoxadKkTq9h6dKleOqpp4TmzMvLw5QpU1BVVSU07/Dhw/Hhhx8iNjZWaF4iIiKinqoPgGuhLoKIiIiIAhMeHo7Tp08rnuMPAK+//jqWL18usKrWrl1r/Z+eaWlp7saAJEkwGAyYN2+exzV1dXUwmUwwmUyQZRmyLLuXTjc2NiImJgYOh8MjRpIkNDQ0tLqfXq/3yOutKeFNWFgYzp8/79O1Ld1xxx2ora1VFNsWo9GI5ORkv+OWL1/uXvy9ePFiPPPMM0FZYF1fX4+77767S41Paq6goAApKSk+X3/p0iWMHz8eP/zwQxCrCo6BAwciMzMTy5cvR79+/UJdDgDPn0ORnnvuOeH7QZqampCUlISPP/5YaF4iIiKinobNBiIiIqIe4Omnn8Yf//hHxfE1NTW45557hI5PakmWZZSVlbX6fmRkZKul0CaTyd1wKCoqglarbXWNXq9HVlYWgOsP3pufdHAxm83upoQ3DofDp4XJAHDbbbcpfnN68ODBivc9tGXHjh2KFhY//vjjuOWWW/C73/0OERERQmtycTqdeOCBB4S/aS7SqFGj8Mknn/i8vPv3v/898vPzg1yVWEOGDMETTzyB9PT0UJfi1dy5c3H48GHhee+55x7s3LkTt956q7Ccly9fxty5c9lwICIiImoHmw1ERERE3VxkZCROnz6N8PBwxTmmTJkCq9UqsKrWdDqdxy4G4PrsfLVa3epau90OlUqFurq6dpc6N29K6PV6qNVqSJLk/rsvfB1xNGPGDJhMJp+ubSksLExRXHu2bt0a8FioYOgOjQaXqVOnori4uMPrXnrpJaxdu7YTKhInPT0dmzZtCnUZ7bp8+TKmTZsWlJ+ViIgIGI1GzJgxQ1hOnnAgIiIiah93NhARERF1c+np6QE1Gp5//vmgNxoAeH343/K0gourwdDRw/3mI5D0ej00Gg1kWe6w0VBeXo6MjAzExMS0X3QzkydP9vna5qqrqxXFdeTChQtByRuI7tRoAIDKykrMmDGjzXpPnDiBxMTEbtVoiIqKQmlpaZdvNADXx7+988477TYUlXI6ndBoNFi3bp2wnP369cP+/ftx9913C8tJRERE1JPcGOoCiIiIiCgwy5YtUxx77NgxrF+/XmA1/nE1OVyjjmRZ9vp5R/HA9f0LDofD4y9JklqdpsjOzvbY2+CrKVOm+B0DAF988UWH16hUKkiS5FfT55tvvlFUT7DU19djwYIF3abR4FJRUYF77rkHU6dOxb333otf/vKX+Omnn1BaWtrtFkI/9thjWL9+Pfr27RvqUnw2cOBAvPvuu0hISMB3330nPP+LL76IY8eOYd++fUL2VYSHh2P//v2477778PnnnwuokIiIiKjnYLOBiIiIqBsbPHgwhgwZojg+LS1NYDWtSZKE+Ph4yLIMjUbT6vPVq1dj9erV7ca3p/kb0VqtFmaz2eNzJU0Fb8LCwjBt2jRFsb48kDQYDIiKivLYH6FSqZCTk4Ps7GyvTYhgPJhVqqqqCg888ECXXQbti8rKSlRWVoa6DEXCw8ORn5+P+fPnh7oURVQqFT744ANMmzYNZ8+eFZ7fbDZj2rRpOHToEG655ZaA80VERODQoUOIj4+H3W4XUCERERFRz8AxSkRERETd2IABAxTH7tixA6dOnRJYTWtWqxUmkwk6nc7nUSk2m8390Nq1j6EtzU9CtDWSSYTExETFscePH/f4WpIkr78XruZCVlYW4uPjkZOTA41G02bD5dtvv1Vck0i7du3q9o2G7mzkyJGoqKjoto0Gl1GjRqG4uFhIM8Abm82GuLg4nDlzRki+QYMGobi4GIMGDRKSj4iIiKgnYLOBiIiIqBsLZJTOhg0bBFbiXcuTBt7Mnz8fCQkJiIyMRJ8+faBWq927GGRZhk6n8xqnVqvdpyJsNpvXt/9bjmUCOh7N5I23Uxm++vDDDz2+NpvNsFgskGUZWVlZsNvt7jFSOp0Oer0eZrPZfU+Hw+E1b6ibDU6nEytXrsSKFSvYaAiRxMREfPLJJxg/fnyoSxFizJgxeO+99xARERGU/DU1NZg6dSpOnDghJN+wYcNw6NChoCyAJyIiIuqO+gC4FuoiiIiIiEg5q9WKMWPG+BWTm5uLzMzMIFX0/2RZ9njgr9VqERUV5XFNTExMqwaASqWC1Wp1P3Q0GAwwGAwoLy+HSqVCampqqxFJBoPBYyyUJEmw2+2tTgaMGDGizQf43oSHh+PMmTOK5uDbbDbce++9Ht/TarUoKCjwOUdjYyMyMjJgMBiQmpqKoqIiNDY2on///vj+++/9rkmEqqoqrFixotvtZ+hJli9fjpdeeqlT7+l0OnHkyBEcOXIER48exaVLl/Df//4XZ86cQVxcHLZt2ybkPhaLBTNnzgxaEysiIgIHDx7EpEmThOQ7cOAAkpOTheQiIiIi6s7YbCAiIiLq5tLT07Fp0yafr798+TLGjRuHH374IYhVebd58+ZWOxq2bNni9fRCWVmZ15MJ7bFarZg/fz4cDkebD/W1Wi2MRqPPORcvXoz8/Hy/6nD529/+hieffLLV/VvWVVRUhHnz5iE7OxvA9VMbLUdIORwOqFQqj9+v8+fPd+pb1U6nE7m5uSFdKk7AU089haysrE6514cffohdu3bBbDajrq6u3Ws3bNjQ5kkkfx09ehQzZ87EpUuXhORrKSwsDHv27MF9990nJN/zzz/PPxdERETU67HZQERERNQDHD9+HKNHj/bp2qVLl2Lv3r1Brsg7tVoNi8Xi8b3GxkaMGDHCY+eCXq93P0x1Op1ex6rU1dVBp9PB4XDAYDBgwoQJ7nxpaWnIyclpc0+E2WxGRkaGTyOVKioqMHnyZF9/iR5mzpzpMUpKlmWUlZW5vy4vL4dWq4XD4cC1a9eQnZ3tPrGh0WhQWFjokc9ms0GWZffv1enTpzFs2DBFtfmrsrISK1as6PCBMwXXxo0b212qLsLnn3+OvXv3Yvfu3fj666/9in399dfx4IMPCqnjyJEjmDVrVtAaDgBgNBqFnUpISUlBUVGRkFxERERE3RGbDUREREQ9gEqlwuHDhzt88PynP/3Jr1MQweBwOFqNUjKZTO4Ft80fyDudTqhUKqhUKqjVami1WsTHx8Nms0GtVrvjJUmCwWDocKF0c3V1dR0urZ45cybefvttn3M219DQgKFDhwIA7Ha7+2SC654tmyxWqxUOh8O9FNput7tHJrkeLhuNRmi1Wvc9PvroI0ycOFFRfb6qr6/HihUrUFFREdT7UMfy8vKwbNmyoOS+ePEidu3ahfz8fHz55ZcB5Xr33Xf9PpXUliNHjiAxMRFNTU1C8nkjquHQ1NSEqVOn4osvvhBQFREREVH3wwXRRERERD2Aw+HAhAkT8Je//AUXL15s9XltbS1SUlJC3mgA0GrXAnD9LX6tVgtJkjze5tdoNGhsbITVaoXBYHCfEmh50qGxsREajQYZGRlt3tdms8Fms7m/di2hbs9zzz3X4TVt2b9/P4DrjRDXiQRXo6Gurg5OpxMWiwVqtRpqtRoRERGIj49HYWEhysrK3Cc3dDqd+zRBamqqR4MkmKOw6uvrsXLlSowZM4aNhi7g2WefDUqj4ZtvvoFOp0NUVBQef/zxgBsNAPDwww/j6NGjAqoDJk+ejMOHD2PgwIFC8nmTmpqKN998M+A8/fr1g8lkCtqCayIiIqKujicbiIiIiHqYm266CfHx8RgzZgwuXryI6upqVFZWhrosN0mS0NDQ4PUz19v/ADxGCrk033fQp0+fVvFqtRplZWWtlkK7Tkg0NjZCpVJBlmWYTCaP0U0tLViwADt37vTjV+YpKSkJH3zwgftr14JnAEhLS4PJZPI4jVFeXg6z2QxZlhEfH4+MjAxs3rwZAKDT6ZCTkwPg+t4Lk8mEuro6JCQk4OWXX1Zcozf19fVYv349XnvtNaF5RerXrx8efPBBxMXFYfjw4aitrcXx48dRWlqKU6dOhbo84QLZG9KWpqYmvPjii/jrX/+Kq1evCs0NAJGRkSgtLcXYsWOF5HM4HJg9ezZqa2uF5PNG1AmH0tJSzJ49W0BFRERERN0Lmw1ERERE1GkkSUJZWZnHCCRvysvLvY5haT5iacSIEXA4HO7PNBoNCgoKWjUagOsP9305ydDcl19+2eGYpbbY7XaMHz/e43tmsxnx8fEAPBsl165dQ1FRETQajft7JpMJEyZMgF6vdzdHWv5+ZGdnY8uWLfjmm28U1djSgQMHkJub2+VPMSQlJSEvLw+DBg3y+vmbb76JtLS0Tq4qeKZPn46DBw8KzVlaWooVK1YI+9lpy8CBA2E2mzFq1Cgh+c6dO4cHHnggqGOKDhw4IGRpdE5ODp5++mkBFRERERF1HxyjRERERESdwtdGAwBERUW5TwE017y54GoEqFQqFBYWorCw0GujwWg0+t1oWLVqleJGA4B2Txs4nU4AQHx8vHsXg+sEg4vBYIBKpYLBYIBer/doTtTV1SEtLQ2bN29GQ0MDvvvuO8V11tfX4/nnn8fYsWORnJzc5RsNCxcuxJ49e9psNADXl/SKGInTFYwZMwb/+Mc/hOb8wx/+gNmzZwe90QAAP/74I6ZPn46amhoh+QYMGICSkpJWjTyRFixYgE8++STgPBkZGX7tkCEiIiLqCXiygYiIiKiXcI3naamurs7vh/FKSJIEh8PhnmduNBphtVrd44G8aWxshMlkgtlsdjcaXHsbDAaDe99BW1ouVPZFREQEvvrqK9x0001+xbk0NTVh5MiR7qaCRqNBamoqZFn22gwBgISEBPevC/j/cVHNT29cu3b9P9tbnvrYtm0bli5d6nedp06dwoQJE/yOC5W7774b5eXlPl//3HPP4c9//nMQKwquiIgIHDlyBMOHDxeS7+uvv0ZycjKsVquQfP741a9+hZKSEmEnHC5cuIDU1FS89957QvK11L9/fxQXFwf85+PKlSuIjY1FdXW1oMqIiIiIurb/BQAA///s3XtwU3XaB/Avu+/sUFB7qrKWi9tTUW6L7SkWK+tAT7wERKUpslxcsKlSRGBpilbcxZmkDI4X1Cbiel1swmVFXW0qq2hdm5QySgFpWqHrIrtN8DLghSYgl911Zt8/+ua8DU3bnJOTNsD3M9ORnpzfc56klHHOc37Pw2IDERER0XnCbrcrT9J31l3LokSQZRk2mw02m025ud55DoPetBQb3n33XRgMBs3XfOKJJ2C1WpXvo33u4d0Wfr8fXq8X7e3tMBgMykyJcKuonJwcBIPBiPZRDocDFotFiTVnzhzNxaJRo0bhiy++0LS2r9XW1mLy5Mmq1owcObJPnuBPhJqaGhiNRl1ieb1ezJ07VymA9YfLLrsMtbW1GDVqlG4xH3roITgcDt3idXbJJZegsbERw4cPjyvOvn37MHHiRJ2yIiIiIkpubKNEREREdJ7obgdAXz7dHh6A3PkpfqfTCYPBgObmZt2vF95REKv58+fHVWgIhUJ4+umnI45ZLBYMGDAAZWVlyrFwkcHv98Nut0OSJLS3t6OpqQltbW1IS0tDWloaPB4PRFGMKJhkZGRE7JDo/FmqNXfuXM1r+9KwYcNUFxoAYObMmQnIJvGWLl2qW6HhmWeewS233NKvhQYAOHLkCIxGI/7+97/rFvOxxx7r8vuml++//x633XYbjh07Flec8ePHn9U7bIiIiIjUYLGBiIiI6DyRkZER9Xh3rX36ktfrhSRJqKmp0RwjFAqhoqICmZmZEYWLzrsMenLBBRdg3bp1mq8PAE899VS3N3Xdbrfy59LSUgiCAFEUYbVa4XK5UFZWhrS0NNTX10MURUiShAEDBqCpqSmi97vJZEJTU5Py/ZEjR7Bv3z5N+d5xxx2a1vW1CRMmaFp37bXX6pxJ4mVlZeHJJ5/UJdaKFSuwcuVKXWLp4ciRI7jpppt0LTjcd999qKmpwcUXX6xbzLDPPvsMs2bNijtOWVmZpmIZERER0dmGxQYiIiKi80RPA4/7qo1SItTX16OsrAyiKMJms8Hv90OWZaXgEGsB44knnsDAgQM153H48GGsXbu229f9fr+SiyAIylDrQCAAs9kMu92u7FIIBoPw+/0wmUzK+UBH+6WKioou76murk5TztnZ2cjKytK0ti/99Kc/1bQuniHf/eHCCy/E66+/rkuspUuX4vnnn9cllp7CQ6NbW1t1i2k0GrFnzx788pe/1C1mWENDA+67776442zYsEGZV0NERER0rmKxgYiIiCiJybKseuZAND0NUQb02d0gSRKKioriitH5Cf6KigoMGDAABoMBFRUVylcgEIg4R5Zl2O12BINB5Xh4zoHBYIDdbu/1urm5uSguLo4r9wcffLDH12VZjnh/sixDkqSIeRV+v1/ZgVJQUACPx6P8bJqbm2GxWGCz2SJmNgDAW2+9pTnvhQsXal7bV7S2ALrkkkt0ziSxnnzyyW53IKmxcOFCvPLKKzpklBjff/89brzxRrS0tOgWc+jQodizZw8qKytx4YUX6hYX6Gj15nK54oqRnp6OZ599VqeMiIiIiJITiw1ERERESSg8JNjj8aCysrLXYkFveism6BG/uroaTqcTTU1NmnZKdF4TCARgs9kAdLRYCg+V7jxYujfBYDCmcwcNGqR5wHJYY2Mj3njjjR7PkSQJoVAIDocjomBit9vR1tYGj8eD7OxsiKKItrY2uN3uiCfzzWZzREHlzOsfOXJEU+533nknBg8erGltX/nmm280rRsyZIjOmSTOhAkTcNddd8Ud54EHHsDmzZt1yCixgsEgbr75Zuzdu1fXuIsXL8ZHH32Ea665Rte4FosFBw8ejCvGrFmzcMstt+iUEREREVHyYbGBiIiIKIkIggCr1Yq2tjbl5nv4Rn48uw96u/kfb7uZ6upqJYYkSfB4PKiqqlIV1+v1ori4GM3NzT3u5ohnIHI0DocDI0eOjCvG0qVLez3HbrdDFEVYLBZIkoT6+nrlNVEUIcuy0jap8+cWLkyEX+vOa6+9piFzYPDgwZg/f76mtX1FayFF7yfcE+nFF1+MO8aGDRvwhz/8QYds+saxY8dwyy23YOfOnbrGvfLKK7Fjxw4899xzusU8ffo05syZg9OnT8cV58UXX2Q7JSIiIjpnsdhARERElER8Pp/yRH9noihGtNtRIz8/v9fWLNnZ2cjPz9dU0LDb7VGLGWazGU1NTapiOp1OSJLUY0EhPGi5vr4efr9fZbaRZs+eHfeN9m+//Rb79++P6dzwzoRgMKgUD0KhUMROB6CjwOBwOJCZmQlJkiIGXnfnzTffVJn5/zuzLVOy+f777zWvHTFihI6ZJMaSJUswfvz4uGJ8+OGHuPfee3XKqO8cO3YM06dPx/bt23WPXVxcjJdfflm3eK2trVi+fHlcMYYMGYKnnnpKp4yIiIiIkssAAP/t7ySIiIiIqIPdbkdpaWm3r1dUVEQtRoTl5+dDlmVlHoDW3RBerxderxc+nw/19fXdtu8xmUyorq7uNk5NTU2vT+T3lyuvvBKNjY0YNGhQ3LFSUlJUrzGbzaiqqkJZWZkyVyLcQqm3n3N3Dhw4gMsvv1z1OgC46667em0F1Z/++c9/YujQoarXTZo0CT6fLwEZ6ePnP/859u/fjwsuuEBzjAMHDuBXv/oVTpw4oWNmfSslJQUbNmzAbbfdpnvsqVOn6lrMcDqdmDNnTlwxpk+fDo/Ho1NGRERERMmBxQYiIiKiJBK+2dwTg8EQ8eR/UVGR0oJHj0HP0bjdbni9XrhcLqXwEG6X1NM1CwsLlZ0IySQlJQU7duzAuHHjdImn9WamyWTq8vn4/X7YbDZNcyTKy8uxevVq1euAjqe29e5zr6edO3ciOztb9brCwkK89957CchIH+vXr8edd94ZV4zc3NyYd9cku4qKil6Hrav13nvvobCwULd4gwcPxu7du5GZmak5xtdffw1JknD8+HHd8iIiIiLqb2yjRERERJRE/H5/RC//aKqrqyHLMiorK9He3g6n0wmz2ZywQgPQcVPcbrejvb0dVVVVMJlMqKqq6vGagUAgKQsNAPDKK6/oVmgAgClTpmhaF+3zEUUxaqHBarX2OgNj/fr1mvIAgHHjxqGoqEjz+kTTOrehtxZi/emqq66Ku9Dw4IMPnjOFBqDj7/miRYt0jTlt2jQMHDhQt3gnTpzAvHnz4ooxbNgwWK1WnTIiIiIiSg4sNhARERElmd6eaBcEAR6PBxaLJaEFhu6YzWZUV1dDkqQez9PyZH5fWLVqle6tnW6//XZd44miGJGjLMuw2WwRxYZwu6zOjh49ildffVXzddesWYOLLrpI8/pE+uqrrzStS+ZiwwMPPBDX+h07dmDdunU6ZZM8Nm7ciNmzZ+saU2t7se40NzfHvQNj6dKlmDBhgk4ZEREREfU/FhuIiIiIkozT6UQoFOrvNOKWjMWGm266CQ8//LDucbOysnS9qR2ehWG1WlFdXa0MB6+uro44Hq1o8sILL2i+7qWXXopVq1ZpXp9IWoeBJ2uxIT09HXfddZfm9T/88AMWLFigY0bJZevWrTAajWhvb9cl3o8//qhLnM7WrVvX4zD7WDz//PP6JENERESUBFhsICIiIkpCyXijXo2amhrNN4cTZdiwYdi4cWPC4ut54zc80Nhms8FkMik7GgRBgMlkgs1mgyAIUT/jXbt2YdeuXZqvvXz5cuTk5GhenyjnWrFhyZIlca1/+OGHcfjwYZ2ySU4NDQ2YOHEi9u7dG1ec06dP9zoLR6vFixfj1KlTmtdnZWVh2bJlOmZERERE1H84IJqIiIgoCcUyKDqZJeNg6IaGBuTm5iYsfigUQnp6uub14bZU4TZZYc3NzXC73fD7/RBFEbIsIz8/X3m9uLgYXq8XgiAoRYopU6bg/fff15xLS0sL8vLyNK9PhGuvvbbXeSbRfPfdd7q30IlXSkoKAoEALrzwQk3r9+3bh4kTJ+qcVXJbu3at5pvyNTU1mDt3rs4Z/b/S0lI89thjmtefOnUKY8eO1TyXhIiIiChZcGcDERERURI6sxf/2abzzfBk8MQTTyS00AAAqampcT2hbDab0dTUpBQaQqEQCgsLYbFYkJqaiqKiImRkZMBut8NgMCittqqqqtDW1gabzabE2r59O7Zv3645l6ysLKxdu1bz+kTQurPh0ksvTbo5FHfffbfmQgMA3HvvvTpmc3YoLy9HYWEhvvvuO9Vr4ykExMLhcKCpqUnz+pSUlKT7fSMiIiLSgjsbiIiIiJJMVVUVzGZzf6cRN6/Xi8LCQgSDwX7N49Zbb8Wf//znPrlWKBTC6NGjNc/ccLvdKCgoANCxOyQ/Px8Wi6XLeU6nM+IGZ3NzM2RZjvisJ02ahLq6Ok15hP3mN7/BW2+9FVcMPR09ehQpKSmq102ZMgW7d+9OQEbaHDhwQPNui40bN2LRokU6Z3T2uPjii+FwODBr1qyYzl+2bBnWr1+f4KyAcePG4ZNPPokrRl5eHlpaWnTKiIiIiKjvcWcDERERUZIQBAFNTU3nRKEB6Nid4fF4lPZA/SEzMxOvvPJKn10vNTU1rgHU4fkCLpcLACIKDYFAQPmz2WyGLMvKeRkZGV2KOh9//DFqamo05wIAf/zjH5GVlRVXDD1pbS02ZswYnTPRLjc3N662TlarVcdszj5Hjx7FggULsHjxYhw6dKjHc4uLi/uk0AAAra2tcDgcccWoqKjQKRsiIiKi/sGdDURERERJINynvz9vzCdKMBiEwWBQ5gn0pd27d2P8+PF9ft2pU6dqamP03/92/K95uH1Sfn4+QqEQZFmGz+eDKIrw+XxITU2F3+9HcXGx0nYpJyeny2c8YsQItLS0aNoNEPbVV1/h+uuv19RP/qKLLsLQoUMxZMgQ/OQnvT/n9J///AfHjx9HKBTCsWPHuuwQee211zBjxgzVeVRWVuL3v/+96nWJsHz5cjz++OOa1r722mvnTDFSD6mpqfjd736ntKU6deoU2traUFdXh2eeeQZffPFFn+YzaNAg7N+/P67ZLTfffDN27NihY1ZEREREfYfFBiIiIqJ+luhCQ3NzM4LBILxer3LM6/VCFEWIoggAyp8TNWuhPwoOTqcTc+bM6bPrdaa2nVLn9kkAYDAYUF1dDUEQUF9fHzHDw263o7S0FAAwYMAApUABdAzCNZlMEbHLy8uxevXqON4N8Omnn8JgMODEiRPKseHDh2PMmDEYOnQo0tPTla/LLrsMQ4cOxdChQzFo0KC4rgt0FDv8fj8CgQAyMjJw/fXXq46xbds2zJw5M+5c9PDII49gxYoVmtayzU7yu+OOO7Bp0ybN6/fs2YPJkyfrmBERERFR3/mf/k6AiIiI6HyWiEJDIBCA2+2G1+uF1+tVPTNBkiTIsgyz2Yzs7Gxdcgq/z1gLDoIgxDXrYf78+f1WaAA6nriura2F0WiMqeDgdDrh8/kiWuQEAgEIgoDU1NSIc8OtlgAoxSKgo/VS54JS2Nq1azF//nyMGjVK/Rv5P1dffTV27tyJDz74AKNHj0ZOTg7S0tI0x1Nj+PDhGD58uKYiQ9jYsWN1zCg+Wud51NXVsdBwFnjzzTexcOHCiAKhGrm5uTAajaitrdU3MSIiIqI+wJ0NRERERAnQ1NSEYDAIp9Op9NWPxuPxaL4pdSaXywW32w23261LPKDjZrbZbIbFYuly01sLn88Hg8HQbSFBlmWUlpZClmVkZmZqKjiMGDECPp8PgwcPjivXl19+GSUlJXHFUDvMN7xLoaysDJIkoaioCEDHzgen0wmTyaS00ampqYHb7UZVVRWAjl0O3Rk/fnxSDUjuD5dccglOnjzZ32lg6tSpmn5HZ8yYgQ8++CABGZHeMjMz0draqnm9x+PB9OnTdcyIiIiIqG+w2EBERESkM7PZrNwABqAUHRwOB/x+v3K8czuceLhcLthstojYehMEARaLRZeig9frhcFgiIhdVFQEi8XS5Ul9Lf3p6+rqMGnSpLhy3LlzJwwGA15++WXMnz8/rlhbt25FSUlJTE+0h9sp+f1+ZRdItM87FApBkiR4PB6Ioojm5uZed8fcf//9WLNmjeb3cbbTOkcjEQ4dOoQhQ4bEfP7u3bsxZcqUBGZEenv00UcjBryrlZOTg88++0zHjIiIiIgS76cAbP2dBBEREdG5QhAEbNu2DQMHDlSODRw4ENdddx0sFouyiyEnJwePPvpoXNdqbm7GvHnzYLfb42o5FIvTp0/D6/XihRdeQEpKCq677jrNsURRVJ7Ct1qt2LJlC6ZNmwZBECLOkyQJNTU1OHz4cMyxy8rK4h6g+80332Dq1Kk4ceIEtm/fjpKSkoifp1qjR4+G0WjEG2+8gX/961/dnifLMlauXImBAwdCEAQIgoB58+YhJycnogjT3NwMk8mElStXKn+fBg4ciCNHjvTYourjjz+GwWDAL37xC83v5WzW2tqKnTt39ncaAICTJ09i2rRpMZ9fUFCAb7/9NoEZkd58Ph8WLVqEn/3sZ5pjvP/++zpmRERERJR43NlAREREpCO9div0pqKiAjabrdfzJElCfn4+JEmCKIqQJKnLTX2fzwe/3w+fzwev14v6+vpe48qyDLfbrUtrpZ6cuQuiJyNGjMDnn38e9zXz8/Oxa9cu5ftly5Zh7dq1cccNhUIoKSnB1q1bo75us9mU3QnhYdE+nw9lZWXw+/0QRVH5r9VqVQoNzc3NSpGht0LL2LFj0dDQEHeLqbNRY2Ojbi3L9PDUU09hyZIlvZ43f/58vPnmm32QEemtoqICDz74oKa1J0+eRGZmJo4dO6ZzVkRERESJw2IDERERkU5EUURbW1tCrxEKhWAymaIOAu6cR2lpKUwmU8QT8bEKBoPK7IeamppuzxMEAW63G/n5+aqvoUZhYWFMPe43b96MmTNnxnWt+++/H88991yX442NjcjKyoordtjGjRtRXl7ebVul7j5Xr9fb5WZ5c3MzZFnudWfLxIkT8cADD2DGjBlx5X42O336dJ8NtY6V0WiEw+GI+nv6+eefo7y8nE+3n8VSU1Nx8OBBXHDBBZrWd/fvEREREVGyYrGBiIiISCeSJMHpdCI7Ozsh8cPtc7qbzSDLMoqKiuJuI9SZ3++HzWbrcci10+lUBhnrLZbiCgBMmjQJdXV1cV1r06ZN3Q6EzsrKQmNjY1zxOwuFQli3bh0eeeSRqK9LkoSmpiaEQqEed48UFxfD6XR2+/qYMWOwevVq3H777fGmfE646qqr8OWXX/Z3Gl1MnToVEydOxI8//ogvv/wSn332Gfbs2dPfaZEOHn74YaxatUrT2r/97W+YMGGCzhkRERERJQ6LDUREREQ6EgQBdrtd95vvPT3BLggCrFZrXMNIe+P1elFWVtbtTIBEFBxifWofAHbt2oWrr75a87V8Pl+vQ6X1aqfUWSAQwOzZs9HS0hJx3GazwWQyQZZliKIIs9mM0tJSuFwuOJ1OeL1eeL1e+Hy+qD/3ESNGwGq1xj3c+lxTVlaGF154ob/ToPNIWloavv76a83rr7nmGrS2tuqYEREREVHisNhARERElAAWiwWVlZW6xOrpprssy6iuru4yhyFRLBYLHA5H1Nf0LDi4XK6Yd2gUFBRgy5Ytmq918uRJTJgwAYFAoNdzX3/9dd13CYRCIRiNxi4Fh87CLboMBkOPuzwGDRqEVatWYcWKFbrmeK7YvHkzFi5c2N9p0HnmueeeQ3Fxsaa1jz76KFavXq1zRkRERESJwWIDERERUYLoMUQ5FApBluWoOwrMZjOqqqriSVETt9uN4uLiqMUPt9utDDfWIhQKwWKx9Nga6EyffPIJxo0bp/mad999N1599dWYzk1NTUVtba1u8xvCWlpakJeXF1eMwsJCPP3000hPT9cpq3PP/v37kZub299p0HlmzJgxaGpq0rT24MGDce3aIiIiIupLLDYQERERJZAgCPB6vZrnOHQ3HLmqqkrX2Qxq+Xw+GAyGLgUHQRDg8/mQkZGhOmYgEIDJZOq2VVM0kydPRm1treprhX344Ye47bbbVK1JVMFh0aJF2Lhxo+p1mZmZWLduHW688UZd8zlXDRs2DO3t7f2dBp1n3nnnHdxwww2a1ubl5fW484mIiIgoWfykvxMgIiIiOpcFg0HIsqxprcPhiFposNvt/VpoADoGGHs8ni7tm4LBIEwmk6aYZrNZVaEB6CjGaHXy5EksXrxY9bpQKISSkhKEQiHN145mypQpqtcsX74cra2tLDSooPX3kSge69ev17z2jjvu0DETIiIiosRhsYGIiIgowbQUBgKBQNTBv+FBwclAkqSobZx8Ph8qKipUx9PyOc2cOVP1mrCHHnoIX375paa1LS0tMBqNOHTokObrn0nNbpC0tDS8/fbbePzxx3W7/vli2rRp/Z0CnYe2bduG48ePa1rLAhkRERGdLdhGiYiIiCjB2traIIqiqjXRBgFLkqS573ciVVRUwGazRRzT0k4pGAwiMzMz6iyIaLKystDY2KgmVcVHH32ky24APVsqNTQ0wGg09nrepEmTsGnTJgwbNizua+rl4MGDOHDgAL744gvl6+uvv0YoFIr46k1qaioEQYAgCLj44osxcuRIXHHFFRg9ejSGDRuGIUOGYPjw4XHl+t133+Hyyy+PKwaRFi+99BIWLFigae2QIUPwww8/6JwRERERkb5YbCAiIiJKIC0Fgvr6+i5PsgqCgKamJtVFi74SrTiiZYB1cXFxzMOhf/3rX2PDhg2q4ocZjUY0NDRoWms2m+H1euH3+wF03CB/4403MHnyZE3xwrZu3YrZs2f3eE55eTlWr14d13XitW/fPtTV1eHTTz/F/v37+6UAJggC7rnnHqxZs0bT+smTJ2PPnj06Z0XUsxtuuAHvvPOOprUmkwnvv/++zhkRERER6YttlIiIiIgSSMv8gjN3CQCAxWJJ2kIDAFRWVnY55nQ6EQgEVMVR83mNGTNGVeywvXv3qio0SJKk/EwkSYLVakVpaanyBL7dbofRaER5ebmmfMK2bt3a4+vPPPNMvxQa9u/fj2effRZGoxFpaWmYOHEiVq5ciU2bNvXbTptgMKi50AQA06dP1zEbotjU1dXhxIkTmtbm5+frnA0RERGR/lhsICIiIkqggoICVefX19d32SEgiiKsVquOWelPkqSoMxeiFU56ouaG2hVXXKEqdtiWLVtUr7FarWhra1N2l1gsFrS3t6OpqQmZmZkAgGeffRZ5eXloaWlRHf/QoUN4++23u339xRdfRElJieq4Whw/fhyvvvoq7rzzTqSnpyM3Nxfl5eVoaGjA6dOn+ySHWHz77bf49NNPNa299dZbdc6GKDYffvihpnXXX3+9zpkQERER6e9/+jsBIiIionOVIAiQJEnVmmgthNTesO9OKBSC1+uFz+dTjgmCAJPJpGq2QnesVmuX/N1ut6pWSoIgQJblLgWXaP7973+rzLDD0aNHVZ0fHsgtiiLq6+vh8/kgiiIkSYIoisrP2efzKYOjf/vb32LZsmVITU2N6RolJSXdzjTYvHlzXIOwY+Xz+fDSSy9hy5YtOHXqVMKvp4d3330XV199tep1WVlZGDlyJP7xj38kICui7n3wwQeYMWOG6nVad3IRERER9SXubCAiIiJKkDPnLsTC7XZHfC8IgurdEWcKBAIoLi5WCgs2m035CrdnysnJQX19fVzXEUWxy+6GYDCImpoaVXFi/dy0tiP5yU9i+1/g8E4Gs9mMQCAAg8GA6upqZGRkoK2tDWazGQ6HA4IgwOPxwOPxwG63IxQKYc2aNcjLy8OmTZt6vEYoFMLUqVOxffv2qK+//vrrCS80/OlPf8KUKVMwadIkVFVVnTWFBgA97gbpzbx583TMhCg2f/3rXzWtu+iii5Cenq5zNkRERET6YrGBiIiIKEHU7mqoqalBMBiMOGYymSAIguYcXC4XRFHsdeiyz+eDLMsoLi7u9gn7WESbuRDrwOewWIsNP/zwg6q4YSdPnozpPIfDofwMzWYzKisrYbfbYTKZYLFY4PF44Pf74XK5IAgCMjMzI3ahBAIBlJSUKEWHzp9rS0sLHnnkEYwePbrbQsPGjRtx++23a3qPsaiqqsLYsWNxzz33YPfu3Qm7jtrfAzX27t2Lw4cPa1o7d+5cnbMh6p3f79f8b9eoUaN0zoaIiIhIXyw2EBERESWI2p0N0VoHRZuDEKuysjLV651OJ2RZ1lxwKCgo6FIciaUlUmfZ2dkxnae1X/8nn3yi6nyXywWTyQRJkhAKhVBRUQGXywUASgECADIyMroUi4COwkJJSQnS09ORkpKClJQU5OXlYc2aNd1+zsuXL8esWbNUvrPYPP/888jMzMSSJUvg9/sTco0wm80Gj8cTcUwQBFRWVuo28Ly6ulrTupEjR8b8d41IT83NzZrWsdhAREREyY7FBiIiIqIEUTsHIdpNeTUDkztzuVzKTXC1fD5fXEWOM4sswWBQ1c21WHdy1NbWqh5Y/NFHH8V0g72goABFRUUAOj6P8M/BbDbDZrPBbDYr70mSJAQCAQDQ5Sa6wWDA448/HleMaLZt24asrCysWLFC826A3kR774IgoKioCPn5+RBFUWnfpdeOh7/85S+a1y5YsECXHIjUaG1t1bTuyiuv1DkTIiIiIn39LwAAAP//7N19kBP1/Qfw93V+nYJA2RNQtCh7UBCYKnuOVR7E26u2ogK3BwIqZW5PwFGrXE4cRQvehkEQKiSHD9SH6SXFB3xMrooPCCTpVLBqSQJYBqwmUXwoCpeA+DDO9H5/3OxOctncJZvNcTrv1wwzkOz3u9/dPRjm+9nP58NgAxEREVGJFLrpnN64GbDW8wHo6APgcDgsjdX5/X7j7f1CmZVS6nxt3cnn2lOpFB599NGC5l22bFlexzU2NmZshpeVlWUd097envX72tpay88N6PiZefrppy2PN3PgwAFceeWVmDlzJt5//31b507n9/sRDochSRLq6uoQDofR1NQEoCNjJhgMIhaLGQ23C814yWXHjh1oa2uzNHbevHno06ePLesgyteBAwcsjSsvL7d5JURERET2YrCBiIiIyCaSJKGqqgpNTU1wuVwFjTV789/qprWmaablfKzMY4VZkKXQcj0NDQ1oampCTU1Nl9kdTU1N2Lp1a15zrly5Ert27crrWFmW0dzcDKDjueob4y0tLWhqakJLS4tRVikSiRjXLMtywT0qdP3790draysGDhxoabyZ559/HhMnTswqZVQKfr8fgiAgHA7D4/F0m7kQi8WMY2RZLqo3ybPPPmtpnCAImDFjhuXzEllx+PBhS+OK+TtCRERE1BMYbCAiIiKyoH///nC5XAgEAojFYmhvb0c4HEYwGDTKxBTCLDhgdWPJ7/dbGtdZPB5HKBQqeJxZHfxCMxsURYGmafD7/QgGg2hvb0dbWxsCgQBaWlqMQMy3336LmpoarF69Oudchw8fxvXXX4977723oDXoAYa6ujr4/X5Eo1EIgmCUUQIAh8NhvL2fSCSK6oGwfv16W2uy33HHHZg/fz6++eYb2+bsitm16+WlQqEQmpubM4JqemAiHA4jEAgUlY2zefNmy2Pr6+stjyWywmomjp2BSCIiIqJS+L+TvQAiIiKiH6J+/foVXaoonVlJGSs17aPRqK1Nf4PBYMF9I8yCJHZkWgiCYAQZEolExj1bsWIFNm7ciEWLFhnHJJNJPP3005YbCOtBBKAjo6G+vh6SJEGSJCSTSfj9ftTU1Bhlo4YPHw6Hw2GpV8Zvf/tb2/oHHD16FHPmzMGbb75py3z5EEUx4z4nEgmoqopgMIh4PI5IJGL8fVEUJeNYPUPEakYIALz11ls4dOgQhg0bVvBYWZZRUVGBWCxm+fxEhTh69KilccxsICIiot6OwQYiIiKiHxE7NvXTBYPBjE333uyLL77AqlWrsGrVKlvma25uRiQSQTAYhCiKCAQCCAaDRtmklpYWo3yS1+uFx+OxdP/79euHRx55xJY1Hzp0CFOnTsUHH3xgy3zdCYfDSCaTEAQhYyNUlmUj6BWPxzMCZw0NDQiFQkgmk6ipqQHQkY1TbJDsiSeewNKlSy2NdTgcRi8JolL7+uuvLY1jfxEiIiLq7VhGiYiIiOhHxK6mu8Uqpklyb+HxeBCJRDIaXsuyDIfDAUVRjEBDKBQy3uIvtFwUAPzpT3/CGWecUfR6Dxw4gClTpvRYoAHoyGCQZdkIJqRSKaRSKfh8PkiSBEEQ0N7ejvHjx8PlcqGlpQWVlZVQFAWqqhpllurq6gpuqN7ZU089ZXns/Pnz+dY49Zif/vSnlsZ99913Nq+EiIiIyF4MNhARERH9iPSWTX4rm+49xeFwGL028iEIAhKJBOrr6+H1egF0bLI7nU40NjYWtUkuy7ItPQPeffddVFVV4fPPPy96rkIoimI00gY6AjSiKCKVShn3uKKiAtFoFLW1tVBV1WhgnkwmM0on1dXVoaqqyvL9fP/997Fjxw5LY/v27Yvrr7/e0liiQlkNNvRU/xUiIiIiqxhsICIiIqKcrAYv7C7nZCdFUSDLMkRR7PL6ZFmGz+dDMpmELMvweDxQVRWhUAgOhwOapsHtdlu+R3369MFjjz1m7SLS7N27F1OnTkUqlSp6LivSMwL8fr9xv4COoIwkScb9bm1tRUNDA6qqqlBXV5fR8FbTNASDQaP5thUbN260PPbWW2+1PJaoEKeccoqlcd9//73NKyEiIiKyF4MNRERERBZ8//33CIVCRhmYYpm9zW0lO6CqqsrWcjBWmlSXUiqVQigUsq0JdnqJpM5aWlqgKAoCgUBWPwK/32/82epaFi5caKmhcbrDhw9j2rRpOHHiRFHzFCP9Z1cv4yXLMgRBMLIYdG63G6IoIhgMwuPxwOFwGEGSVCoFp9NZVKPol19+GYcOHbI0dujQobjxxhstn5soX5MmTbI07tRTT7V5JURERET2YoNoIiIiIguOHj2a8Ua7Xp9e32SVJAlVVVV5z2cWbLCaHaAoSlEbtjpBEIwGvoUIhUJZnxUatIhGo4hEIojH44hEIkgmk3n3o5AkCfF4PK/7V1NTg7a2NgAdG+WpVAqRSASaphnPRP/MTn369MFdd91V1BwnTpzAVVddhcOHD9u0qsJIkoSGhgaMHz/e+CwWi+VVBqmxsdFoCt3e3g4Axn0v1sMPP2y5Sfidd96JP//5z0WvgagrlZWVlsYNGTLE5pUQERER2YvBBiIiIiIb6JvR6Rvi+iZqPswCE8FgEE1NTQWvpampyZZgg9WNX7M3/Qutw+9wOCw1u25oaIDb7UYkEkF1dbURcNADJ4qiZNxrURSzrrNzkKIUTbcXLVpU9FvK1157Lfbt22fTigqnN3lOFwqF4HQ6EY/H4Xa70dTUhGAwiGQyCUEQ0NDQAKAjwwHILMFkV7bKX/7yFyxfvhx9+/YteOzQoUOxaNEiW8pbEeVy2mmnWRo3ZMgQnHXWWfj4449tXhERERGRPVhGiYiIiKhECi2x1HlD3uomtyiKxmauVfpb61aYrbvQzAar197Y2GicLxAIQBRFNDU1IRaLwePxdFk2SScIQsYmuJ75YJc+ffpg6dKlRc2xbt06vPHGG3kfL8sy2tvbbQ2caJqGsrKyrAbXHo8HwWAQbrcbkiQhFoshEAggHA5DURSkUimEw2EIgpDxPAoJznUllUoVFWy75557MGDAAFvWQmRm6NChlsfOnDnTxpUQERER2YvBBiIiIqISKfRNbbNGw2YlifLR0NBgudGuIAgIBAKWxgLmgYJCSkoVw+FwGL/XN7o1TSuqj4Wqqkbgwg433nhjUVkNBw4cwLJly0y/00t5daYHe9IbMnc3Jl9+v9/ou1BTUwNRFI0shtbWVrS2tqKyshJlZWWorq6GLMsoKytDLBbLyNzR77MdHnjgActjBw8enPP+EhWrX79+GDFihOXxM2bMsHE1RERERPZisIGIiIioRAqt82+24VvMG9otLS0Fl2HSN+itbs6bNW8udCPbaoAF6Nj4LmZ8LrIsIxwOZ2RoSJIEn89XUNZGnz59cPvttxe1lnnz5pl+LggCYrFYxppEUURNTY3Re0OSJNTV1WWsuaWlBYFAICNQU4hkMmn8nAqCAJ/Ph5aWFpSXl0NVVaiqCr/fj7a2NgSDQUQiEeNnQg/ghEIheL1eI2hRrFgshtbWVsvjFy9ejJEjR9qyFqJ0v/vd74oaP2nSJJSXl9u0GiIiIiJ7MdhAREREVCKFlqwxe/vf7/cXtQZN0xAIBLrd8BcEAS0tLUZ5G6vMgiP5lC5KV2ypn0LLHjU3NyMUCiEajXZ5nCAICIfDaGhoMO6VoihoaWnJ+57NmjULgwYNKmh96TRNw3vvvWf6XTKZRDQazXiWsVgMfr8/4/l7PB7ju0AgYDwfqz9regAj/c+KokDTNKP/RTwezwiA+Hw+456lUimj/0OhPytdcblcRY0vJjuCKJfZs2cXPccVV1xhw0qIiIiI7FcGwJ7iqERERESUQRRFxGKxgsbU1tZmbfp6PJ6MzVyr4vE4/H4/4vE4IpEIRFGEKIqQZbmoMjq6VCpluune1tZWUADD7B7kq6WlpcvyUV6v1+gl0NLSAgAoKyszvtf7CKiqmnfpp2g0ClmWsxpLm3nttdcsl5Q6dOgQRo0a1eUxqqoa11WIeDyOiooKS+vSNA1NTU3wer1QFCWjVFMwGEQwGDQCEH6/PyugUFlZWXAWUL62bt2KKVOmWB4/f/58PP/88zauqDSuvvpqyLKMs88+G1988QUikQi8Xi+OHTt2spdGaQYMGICPPvoIffr0KWoen8+H6667zqZVEREREdmHwQYiIiKiEorH4xg+fHjex3u93qzNcitBi5PB6XRC07SMzxRFgc/nK2ie8vLyvDbuO3M4HDnfZg+FQlBV1SjxJMuy0R+goqLCtL9GPkGeQgINZ5xxBj788MNuj8vlxhtvhNfrzfm9qqpwuVyWM1P8fj/q6+st3XtRFI3sBY/Hg/Hjx+c9trGxseiG5rmMHTsWu3fvtjw+lUph1KhROH78uI2rss+kSZOwatUqXHTRRVnfnThxAitWrMCGDRtOwsrIzM0334x169YVPc9XX32FIUOG2LAiIiIiInuxjBIRERFRCRX6hn5dXV1WI+J4PA6n02njquyXSCSyAg1AR6PqQrS2tua12S2KYkaGgCAIOftTNDY2QpbljIBC+u/NGj93Lg1kJplM5h1oAID6+vq8jjNz6NChrECDLMuoq6szGjyblXPyer2ora1FeXk5ysrKUFZWhsrKSjQ2NiKRSGQcqyiKEayRZbmgZ6ffz0gk0m0Pi9bWVlRXV6OyshKpVKqgnhddGThwIGRZxq233gqPx4M9e/YUFWjQ53zhhRdsWZ/d1q5di+3bt5sGGoCORsRr1qzBM88808Mro1xuueUWW+bp37+/5QwpIiIiolJisIGIiIiohKw0eDbbtHe73Vmbw72JWekiK+WZ8u3XoKoqgsEg2tvbEQgEMnoAdJ7P7K359GBD581uQRCMrAego6yTWT8HQRAK2iifP39+3sd2tmLFiqzPXC4XPB6P0RQ6XTQaRUVFBVRVRXt7OxoaGuDz+eByuVBVVQW/3w9JkrKCWKqqoq2tDYFAwCg3VSi9TJLT6URZWRmqq6uNQIvT6YSiKEajaEmSuix71ZW+ffvi0ksvxapVq/DOO+/g888/x6uvvoq1a9di7ty53ZacyteUKVNw99132zKXXTZt2oRbb701r2NnzJhRdFNyKt7VV19tuVSZmcsuu8y2uYiIiIjswjJKRERERCVWaCklwLy0T3rpn96kubkZDocj6/N8GlN3lm8JpUL6QEQiEdTW1mbdT/25dC7/lL5u/TtBEBCPxzP6EQAdwYzq6upu13DxxRfjjTfeyGu9neXq1SBJEoLBYNaaQqEQFEUx+lKYZW4AHUEtp9OZs89DrufaHUEQoKoqPB5PxrOMx+PweDymwbR8TZ48GZdccgl+85vf4OKLL7Y8T6H+97//4ZxzzsGhQ4d67JxmRo0ahc2bN2PcuHEFjfvmm28wevRofPnllyVaGXUnFoth6NChts337rvvFtWPhIiIiKgUmNlAREREVGJW6tGbbf4Gg0E0NjbasSTbRKNR0w1pVVULDjR4vd6CShJ1lemRSqWMbARJkhAOh4037gVBgMvlMjbpm5qa0N7eDp/PB5/PZ6w7FAoZG+PJZDJn9kauzfx08+bNy+u6zDQ3N5t+HolEsu5xIpGAoihQFAWBQKDLtWmaBp/PB4/Hk5Xh4PV6LQUagI575Xa7s56lKIoFBxrKy8uhqipeeukltLW1Ydu2bbjnnnt6NNAAAD/5yU/wyiuv9Og5O5swYQL+8Y9/FBxoADqyQGbPnl2CVVE+/vjHP9oaaACACy64AAMGDLB1TiIiIqJiMbOBiIiIqMQEQUBbW1vB42pra017PuTTuLgn5GqOLAgCYrFYwY2Kq6ur8y6jpNM0zbRXQ319Pfx+P9xud8a9crvdUFW127WlUimIoph1bWZZKvk0OI7H4zj99NO7uxxTw4YNw5EjR0y/69wUu7a2FpFIBOFwOO/7r2dvpF9bPB63teRLIYYMGYJZs2ZhxowZeWWN9KR169Zh2bJlPX7e2bNn469//WtRc2zatAk33HCDTSuifI0ZMwbhcLgkc0+fPh3btm0rydxEREREVjCzgYiIiKiEBEEwzVLIR64SOKqqZjUL7mm5Ag0ATBsV58PlcuWVJZDOLBiTSqXg9/uNbIT6+nqkUikAHZvz+toSiQSam5vhdDrh9XqNY4COUkpm12b2Zn5dXR2qqqqMX52voaKiwnKgobW1NWegAUBGZkMikYDf7zfKPnWex+l0wul0Zlwn0JHZIYpiRsBEFEXbGjfn46yzzsLixYuxY8cOfPTRR3C5XL0u0AAAS5YsweWXX96j55w7d27RgQago2E09Tyr//7nI1dzcCIiIqKThcEGIiIiohKRJAmBQMAo31MoQRCyGv/qVFXNWV6n1LoKNDgcDsvXq5c7KqT8ktmGuB5o0Hk8nqz1er1eiKIIh8MBTdOgqiokSTJKLymKYroOs+CG3jtB/9W53NLkyZPzvp7ONm3a1OX348ePz1pb56yXxsZGKIoCTdOgaRpEUcwKOCiKknVthQZ+rJg3bx527tyJgwcPYs2aNZg4cWLJz1ksr9fbY1kfU6ZMsdRk3synn35qyzyUP4/HU9Kg3YUXXliyuYmIiIisYLCBiIiIqAT0mvnFbjTpTX7NOBwO1NbWZm0cl1JzczMkSTINNKiqmlHSxwpBEBAIBNDQ0JDX8WYb4pFIJOuzZDJpvO3v9XpN+y/E43EoimLcz6amJuNXIBBAIBDIqxxW5yCF1f4CR44cwZYtW7I+V1UVgUAA7e3tGdcfj8dNezh0LvGUTCazMjQkScpqoO3z+RCLxSz1HOlK3759sWDBAuzfvx+PP/44KisrbZ2/1AYOHAi/35/VmNtu48aNwwsvvGDbfIWWKKPiOBwOzJ07t6TnmDBhQknnJyIiIirU/53sBRARERH92LhcLsvNdc3oG+P19fVZ3/n9fkiSBLfbjZqaGtvO2VkikYCqqjk3LGVZtrVciNvthizLqK+v77JptFm5JrNgQ/omfFeb5/F4HH6/H3V1dZBluaAsi2g0Cr/fn5UhYDXY8PTTT5t+Loqi6brMrrtzACHXsbmyGOwspzR27FjccMMNuPbaa0u+UV9qo0ePxjPPPIOpU6eWZP5zzjkHr7/+um0NgOPxuGngikpjzpw5WL16dcnP8/Of/xyjRo3C+++/X/JzEREREeWDwQYiIiIim+hljwrZoM5XVwEH/Y18WZahaRqqqqpsO28qlYLb7Ybb7c656a+qaknqkiuKAlEUUV9fb7qRDpiXUdIJgoDx48dDEISM0kK55tJ13qCPRqNIJpOIRCJGH4jOTaJzNbcuLy/HyJEjuzxfLrkCOx6PB8FgELIsZzTH1ss5pUsvs5Suc6krs3O1trbC7/d3e7+6M2LECKxduxZXXXVVUfP0NlVVVXjyyScxb9482+fevHkzBg8ebNt8jY2Nts1FXZs+fXqP9tT59a9/zWADERER9RoMNhARERHZRJKkkgQadKqqQhCEnG/76xvQsixDVVUoimL5DfJoNAq3253V/6CzhoYG28vspJMkCZIkZWx4i6KIqqoqKIpiupmeq7G2ThCELq8pXVlZWdZnsixnBRtyKabJcSgUMv08Ho8jHo8jGAxm3AM9wyWRSBjr0xuUpwepJEnK6usQiUSy7pnb7S6q9M7gwYOhaRoWLFhgeY7ebubMmXjooYfwhz/8wbY577//fowZM8a2+W655Ra89tprts1Huc2bNw+PP/54j57z/PPPx1NPPdWj5yQiIiLKhcEGIiIiIpsEg0F4vd6sjVw7KYoCSZJQW1ub841zvVGxIAhG8EHftM8VfAiFQsYGdjAYzFl+R6dvYlttBp2vaDSa1SA3Fot1Oaa7xsaKonTZdFfPDEkkEvkssUuTJk2yNG7Pnj346quvuj0uEokYwQZ93R6PJyPjQW9+HQwGIYpi1jNLJBLw+/1ZfRysBhqGDh2KO+64AzfddJOl8T80119/PX72s59h4cKFRc8ly7KtgYv58+fj+eeft20+ym3p0qUZf+96Sq7sJSIiIqKToQxA+8leBBEREdGPhSiKiEQiOTf19Ya9giAUvTGlaRqam5vzfks/XedsgUIoigKXy9Xtpn5XvF4vgsEgHA5Hl5tlZuWJ2tu7/u9rKBQygiYAjMBLPB7HwIEDkUwmUVlZaRpQSS8J1dzcbNp7w+z85eXlps/hueeew7Rp07pcr5mHHnoIt99+e7fHKYoCn89n/Lm+vh5+vx/BYDDvTcja2loEg0HEYjGjB0Zra6ulQJLT6cQdd9xR8LiT5bvvvkN7ezv69OlT9FybN282LXOWr379+iESiWDYsGFFr+Wtt97CwoUL8cEHHxQ9F3Vt0KBBePLJJ20tX1eIZDKJM84446Scm4iIiKizn5zsBRARERH9mMTjcdOyQl6vF9XV1RBFEW63G5qmFV3XW9M0hMNhS5kUVgINoijC5/PB5/MVFWiIRqNwOBzweDyQJAmVlZXwer1IpVIZx7W2tpq+XV9fXw+n0wmn04nm5mbTc2ialhFwSCaTxpv7giAgEAhk3DdRFNHU1JTRe0JvEp3ObANe7+lgpm/fvqafd+fvf/97Xsd1Dii4XC4IggBVVRGNRrsdrwcn9HG64cOHF/SML7jgAoTD4V4ZaEilUti7dy9efvllPPDAA7jtttswffp0jBkzBoIgYOLEibac55prrsGWLVssN3W+7777bAk06P/WFBtoOP300zFr1iwsWbIEqqryDXoTv/nNbxAOh09aoAHo+Pds6NChJ+38REREROmY2UBERERUAvpb8x6PBx6Px/QtekEQCnoDvbvz2RHAMCPLMurq6owm1cVIpVKQJCnn/VAUBQ6HA6Io5jyus3g8ntVDoaKiImusIAhoa2vLGp9MJjM22jvTNA1OpxNAx/PsHNyJx+Oorq42XeuDDz5oqWfBWWedhS+//LLLY3w+n2nwIxKJGL0iHA4HHA5HVqZNKBQyAjK5+m50lQGS7t5778Vtt93WzRX1nLfffhu7du3CW2+9hV27duG///1vt2PmzJlj29+dffv2Ydq0aXmdVydJEnbt2lX0uTds2IA777yzqDkGDx6M1atX4/e//33Wd2+//Tbuv/9+vPTSS0Wd48dg5cqVWLJkiW3zRaNR9O3bF6NHjy547GWXXYY333zTtrUQERERWcVgAxEREVEJiKKY10a5nQEHoGOD2O/3w+Px5GwwnA9JklBVVWVs/NshlUpBluW8siryvX9ARyPjhoaGjM+8Xm9WcCQQCHTbwDuRSEBRFMiyDJfLZXzu9/vhdDoRDodNxyWTSbjdbiMooZs2bRqee+65vK5Dt3v3bkyePLnb4zRNg8PhgNvthiiKGUGQZDJpZC0AyLhuvcG0KIpwuVwZAYtUKgVN04zeIKIo5szaOO+88+DxeDB27NiCrs9OJ06cwPbt27Fjxw6888472L17t+W5NmzYgEWLFtmyrk8++QRXXnklDh48mNfxr776atHN5detW4dly5YVNcfEiRPx4osvdhl8A4BwOIyVK1filVdeKep8P0TXXHMNli9fjhEjRtg255EjRzBhwgS4XC5LZdduuOEGbNq0ybb1EBEREVnFYAMRERHRSaY3783V56EY6Q2f9c379CCE3jRaEARjc1lRlG43G62orKy03CeiK5IkmQYB0s+naZrRIyMUCkFRFCiKYpRPArJ7NEiSBL/fn5U10RWzPg979uzBqFGj8p5jzpw5eb05LgiCEQjIFbSKRCLweDyIRCIoKytDe3u7kUFi9pxra2uNAEVXFi9ejDVr1uR9TXb65JNP8Le//Q2vvvoq3njjDVvn3r59u+Wm3p0dP34cCxYs6PZZTpgwAYFAoKhz+f1+XHvttUXNccoppyAcDuPss8/Oe8w777yDNWvWYMuWLUWd+4egtrYW99xzD8aMGWP73Jdeeil27tyJVatWobGxseDx9913X1agk4iIiOhkYLCBiIiIqBcoZcDhZCsko8GqYDCYVTddLycky7LRRDmRSECSpIy39fWxTqfT6OugEwQBHo8HNTU1pudNJBIZwQizhtbnn38+tm/fnlcT4qeeespS2SV9rW6321IPj3yf0SmnnILHH38ctbW1ltZo1c6dO7FlyxZs3boV+/btK9l5BgwYgG3btuG8886zbU6324277ror5/dPPvkkZs6caXn+//znP5gwYQJOnDhheQ4AWL58Oe6++25LYz/88ENs2LABTzzxRNHr6G2mT5+O5cuX49xzzy3J/LNmzTIyRBYsWIAHH3yw4DmeeOIJ27JyiIiIiIrBBtFEREREvUAkEoEoink19f0h6YlAA9DRS6EzSZIQCAQymj4ripKzLJBZGRu9LJWZaDQKURRRXl6O2tpaNDY2mja03r17N+bOndvtNTz88MOWAw36WvMtPdVZe3t7t89o+PDhCIVCPRZo+PTTT7FmzRqMGzcOl156KdavX1/SQAPQkY1w1VVXWb6PZhwOB/71r39BkqSs74YNG1ZUoAEA5s2bZ8sG/80332x57IgRI+B2uxGPx/HAAw/Ylh1ysowcORIrV65ELBbDs88+W7JAw5w5czJKUeVbdquzX/ziF3YtiYiIiKgoDDYQERER9RLJZBKyLBfVa6E3iUajPRJokCQpo79C5+/0UkGNjY2ma9EDBGZZJU1NTRnBinR6Twg9IGHWZFm3detWjBw5Evfddx8++uijjO8CgQBqampsaTarZzU4nU7U1tbC6/VmBbBSqRRCoRAaGxtRXV2NVCoFQRC6bAA+efJk7Ny5E7/61a+KXmN3fD4fampqMHLkSGiahlgsVvJzpvvyyy9x+eWXF9TguTvjxo3Drl278Oijj+L00083Pi9mgx/oaFK8Z8+eYpeHc88915bSaf3798fChQuxfft2HDx4EJqmlWyj3m79+/dHXV0dAoEA9u3bhyVLlmDo0KElO991112XVWLL6s/6mWeeaceSiIiIiIrGMkpEREREvZBZ0+MfktbWVqiqmjOLwC569kI+G6UejwdOpzPrrfX0fg5lZWUAOrIcmpqacjbtra+vN82myFefPn1wzjnn2JrJIggCNE0z+m6k069RDyykUxQFDocDDofDNBijqio2btxo2zrN7N+/H4888gg2b96MVCpV0nPla+zYsQgEAraXNjt27Bg0TcPGjRvx6aefory83NI88XjctubcU6dONUqNlUIikcArr7xSkj4bVvXv3x+TJk3C5MmTjV89RVEUvP7666bfffPNNwXPl0qlShoYISIiIsoXgw1EREREvZAoij3+RredzHoXlIKqqhmZB16vF5IkZTVKTheJROD3+431SZJkZCW43W6jcXQuZr0dejtFUeDz+RAKhXIGUMzcdNNNWL9+fcnW9e6772Lt2rV5NcQ+GS666CJs2bIF/fr1s33ugwcPYvTo0ZbHX3fddbYFCC655JKcm9+lsGfPHuzfvx/vvfce9u7di/379yORSJT0nKIoQpIkTJ06FVdccQVOO+20kp7PzNdff43Zs2djx44dOY/54IMPLGUq9O3bt5ilEREREdmCwQYiIiKiXij9bfsfIq/X22VZnkKIoghBEHKWY/J4PBBF0XgzXxAEBIPBLgMOxShlIKWqqgrRaNT2jBBRFKGqKuLxeN4ZGQ6HA6tXr7Z1HbqPP/4YS5cuxYsvvliS+e0kSRJefvllDBo06GQvxbB3715ceOGFts03cOBAfP7557bNZ8WJEyewd+9e/Pvf/0YikcDx48eRSqVw7NgxJJNJHD9+HMeOHcOxY8dw5MiRrPEjR46EKIr45S9/iTPPPBODBg3CqaeeivLy8oxyaifLZ599hmuuuQZvv/12l8f985//tNSgfMSIEfjss8+sLo+IiIjIFgw2EBEREfVCsVisy7frfwjKy8stbZqLoohkMmmM1YMJ6W/kS5LUbS+IUgVs4vE4KioqbJ+3vb3jv+WNjY05+z+Iomhr8+JclixZgpUrV9o+7/Hjx+F2u7F+/Xp8++23ts9fKiNGjMCWLVt6zd/JxYsX47HHHrN1zmeeeQYzZsywdU7qsG3bNtTV1eHo0aPdHvvaa6+hqqqq4HNIkoQDBw5YWR4RERGRbdggmoiIiKiX6a6Mzw+F1cyGYDAIl8uFmpoaNDU1oaamBlVVVXC5XKirq4OmaQiHw93eI03TUFlZWVR5llQqBafTicbGRuMzPUugVLoqc9TS0oK2tjY4HI6SnX/u3LklCTSsWbMGo0ePxqpVq35QgQYA+PDDDzFlypSSNzvP17PPPmv7nCtWrLB9TgKWLVuG6dOn5xVoADp6elhRilJfRERERIX6fwAAAP//7N1xkCRleT/w7/6iKS4X3d4qKwWKbo+iJ3js9SpyFRCmJxZoRXR7NRwcUjc9ucJIgm4vKS0pCNNjuKLqKG97gVTFoE6PAiJqpsdLFIgwPWiiBxzTcwUiqEzPeSbEstxu4ZSkUrW/P7be156Z7pnuntm9Pe75VF3J7U2//U7PHCXP8z7P86oTvQFCCCGEENJtWCDb931omgZFUTA3N7cxmwpoNBowTRO6rmN6ejrydQsLC5En9AexbRuqqvY9h2CA3XGcWCf8HccZuMcorVYLpmnCNE1eYeF5Hsrl8roPMI76TFVV5YkISZLW5d4XXHDBSIOvw/zoRz/C7t278dxzz411XSY4yFuW5XVrc/WrX/0Kl1xyCb7xjW+kOnk+LpZlrct38Omnn8YnP/lJ3H777WNf+1T005/+FFdffXXiIfDHjx9Pdb8//uM/TnUdIYQQQsg4UbKBEEIIIWQTEUVxaAJB0zQeCBdFEYqiQFXVdZtRAACdTgeWZcEwDB7kdxwHzWYz8hrW+ihO4Je1RVJVFfl8nv+81WrBsiz+GvZsJElCuVxGoVAY2Fqot0ogl8vx6wVB4P8bDB7Pz8/zewaxxIPruolPuAuCgKWlJQBAoVDoe+/B9wz8vqUSsJZ8sW27K9kStr9RvfGNbxz7DIU777wTn/rUp8a6Zq/eYd2KoiRONsRtT/XSSy/h/e9/Pw4cOIBrr7020T3GpdForNvad911F5577jksLy9j27Zt63afV7p//Md/xA033JCqgidt1c+rX/3qVNcRQgghhIwTJRsIIYQQQjaRYVUNlUql6+S567owDAOGYfDgPvuV5kQ/0+l0YNs2HMeBZVmhgVjHcVAoFFAulyPXUVU1VuDXsiysrq7y1kitVosH17PZLARBQLVahaZpsCwLO3bs4Cf9RVGMnA8RTDZUKhW+l949eZ6HyclJ/s+D9pmGYRhdCYVCocBbQg1rB8U+z6D1aOfz1a9+lT+DUf34xz/G3r178eSTT45lvSSSVh1IkoRmswnHcWAYBiqVytBrrr/+enz3u9/FF77wBUxNTaXdair/8R//sa7rNxoNSJKEPXv24O/+7u9w5plnruv9Xkksy0KxWBypiieYaEziD/7gD1LfkxBCCCFkXGhANCGEEELIJuI4TmSFQqvVStw+R5ZlCIIATdMGBmE7nQ40TYPneYlPhZum2XcyP2hiYmLoGpIkwbZtTE5OotPpQJZlLC0tQVGUrtexBIdpmvw5RVUisHVZyyk2eDqMZVm8amI92vDIsox6vc5/73keBEFIvZ7ruigUCmPb5759+3D99dePZa2DBw9i165dY1krjrDgbJLh5PV6vSuZ43keMplMrOtPP/10fO1rX8P5558fe7+jOH78OF73utdtyL2YT37yk/jMZz6z4UmVk8m//Mu/oFQq4amnnhp5rTvvvBN79+5NfN38/DweeOCBke9PCCGEEDIKGhBNCCGEELKJKIqCWq3W93Pf9/sC73HYtg3LsoYGpVkFQ5rgtaZpoX3JG40GZmdnY60RrCzQdZ0nCHqx9klxnwVrzSQIwsDgMXvfvu/HDlInYdt2V/ubURINwFrbn3q9jmKxyH8mSRKq1Wri4eIXX3zx2BIN//RP/7ShiYYocb8fiqL0VY0k+Q688MILyGazuPXWW5NuMZVjx45tyH2Cbr/9dmzbtg2f/vSn8bOf/WzD77+Z1Wo1XHDBBbj88svHkmgAgD/8wz9Mdd3//d//jeX+hBBCCCGjoGQDIYQQQsgm4rouFEVBLpfrCuArihKrp3yUOMmGtDzPg6IofGhtp9NBoVCALMux1w0GyC3LwsLCAoC1ao5MJoOpqSne3kaSJIiiyJ/POIYlm6aJiYkJCIKwLi2KgOEtmIJDfyuVCpaXl9FoNAYOA9Z1HeVyGeVyGc1mE4qioFqtxk5mbN26NVbboDg+9alP8c8traSJkihzc3PIZrP8V9h3JDhHIyhNwu2zn/0s3vOe9+AnP/lJmu3Glraf/6hefPFF3HHHHdi+fTsuu+yysc/2ONl8+ctfxs6dO3HllVcOnFuTxpYtW1Jd9z//8z9j3QchhBBCSBo0s4EQQgghZBOybZu3AGK/H8Wwk9pxEhmCIGDHjh1otVp967muC1VVIUkSDMNIVB3QbDZ5MJj1i2c0TeN70zSNt2tiiYwdO3agWCwin89jfn4+daJgPaoZglRVDQ1sA2vv2TAMPrcCWPu8g7M5FEWJbIXVO+cjycn8z33uczj99NPjvYkIL730Eq644go88sgjI61TLBah6zpvkzXMoGHqiqKEVje4rstnkYiiGJrcSPt37fDhw5iZmcEtt9yCv/3bv021xjAvvvjiuqybxMMPP4yHH34YZ5xxBnbv3o1du3at63D6zeK5557D5z//edxzzz0DE4Cj+qM/+qNU152oRBQhhBBCSBAlGwghhBBCNjHDMMayzrAgfFSyQVVV5PP5rlYzUTMSLMtKNUC5VqvB931ks9m+AcVRJ/Q9z+OB4k6ng0qlsu4Jg7REUQwdou37PlRV7XpmnU4H09PTfUFw1uKq2WwOPP3farVitxA6//zzB87aiGvURAMb/s2+Y+xZhSUcWIKBJbaSEkVx6BD2URN7N910Ew4ePIi77roLb33rW0daq9evf/3rsa43iv/6r//CgQMHcODAAbz1rW/liYe3vOUtJ3prY9VsNvHpT38a3//+9zfkfmlncmyGRBQhhBBCCLVRIoQQQgg5CRSLxZFbzAw6jRuVjBBFsa+nfe/v44o6ha7rOnRdB7DWEslxHL7XYrHIW+IEByzbto3p6WkAa0FpXddTtZmSZRnFYjH1ewqjKAry+Tz/vMISDWwIdm9yhr2HsED60tISXzNsRga7d9yky+233x7rdYNcc801I1c06Lre9/zL5XLXPAqWsGm32zAMYyyts8J0Op2R2pUxhw4dwszMDPbs2TPW1kphw7A3g5/85Cf47Gc/i+3bt2Pnzp0oFov44Q9/eKK3NRbHjh3bsEQDkD7Z8Ktf/WrMOyGEEEIISY6SDYQQQgghm0zv6WtZlqHreleANWyw7TCDqhuSVAVEJQ0GYSf4V1ZWuoLmjG3bPMGgaVpX8oGd6mfvf3l5mc9tAMJPwMfFnu04kw1LS0swTRPtdhsrKyuha0cFjdln1FvRoaoq/04sLi5ClmV0Op2+61nbrWF27949cuubz33uc7j77rtHWgNYSzaEJcLYPIqlpSW02+2hFQnjMD093ZXkGNXXv/51zMzMYO/evWMZ7jzqYPGNcOTIEezfvx+5XA5nnHEGCoUC7r777rEkcU4EltTcKG9+85tTXUfJBkIIIYRsBpRsIIQQQgjZZCRJ4kHWarWKarUKAKhWq6jX6ygWi6hWq4lPd0cF+xqNRqJ1onrdRwkO4hUEAZqmod1udwXhi8Uib6FULBbhui7m5+f7gtClUgmmaXbNPygWiwODsOxUfFggnu0h7FlqmoZyuZwowCsIAqamprp+H7Wner3eF0BnzyCbzfKqDkmS+Put1Wp8JkZY8H1hYSHWZ8OSOWn927/9G2666aaR1mA8z4tsF6aqauwEyrjout41R2Qc7r33Xpx77rkolUojBYWD362Tged5uO+++3DNNdfg7LPPhiiKuPrqq/GFL3wBhw8fxvHjx0/0FoeamZnZsHu96U1vSnXdL3/5yzHvhBBCCCEknQkAm7MWlxBCCCHkFCXLclfLoCiLi4uJZjoET8cHOY4TGdDVdT30pHfcIb7A2tyJhYWFvp9PTU3xigrLsviQaRZw13UdlUoFgiBAEAQ4joN8Pg9d13kQv1KpQJIkyLIcWZ0hiiLa7TYAIJfLYXp6GoqiQBTFroAyGxzMqizYZ5DJZBKdyhYEAbquh77nRqMBTdNgWVZXG6hKpYKlpaWBAe5OpwNJkrrep2mafXMXhn02l19+Ob785S/Hfj+9fv7zn+Pd73732Ifkuq674afIh9F1HaVSKfLP5+bmUKvVEq9r2zZ27tyZ+LqVlRW8/vWvT3zdZvYnf/InOOuss3DWWWdBFEWcccYZOP3007t+xfWzn/0Mx44dw7Fjx9DpdPCLX/wCx44dw89//nO4rpt65sWWLVtSXZfUJZdcgm9961uJr3viiSdw0UUXrcOOCCGEEEKSoWQDIYQQQsgmIIoistksWq0Wms0m/3mj0YBpmnBdF4Ig8HkATKFQwMrKCjqdztAh0GlEJRts2+an4wf1uQ8G+oNarVZoYF2SJNi23TUo2vO8roHQTJKEh23byGazsV4b1Gg0UrdYCnt2bLi2IAiwLCt0T77vw3EcSJLU9RzCkkthz7dWqw0cEv3YY4/h3HPPTfOWAAAXXXQRnnjiidTXR1EUhVfxbCamaaJQKHT9TJZlnhxKmvQDgP379+MTn/hEqv2cc845oX+nyHBslkZS73vf+/Doo4+uw466XX/99di3b1/i6/75n/8ZH/3oR9dhR4QQQgghyVAbJUIIIYSQTUCSJJimyRMNvu8jl8vBMAzMzc1haWkJCwsLqNfrmJ2d5f36y+UyLMsaGFwG1qoa6vV64pZAUSfNZVmGbduwbRvtdhurq6tYXV1Fs9lEuVxGPp/n7aDC2LYd+nPHcfjQZHZyXhCErkQDC8bHTTQIgtAVtE9icnIydZ/83mSK7/v8vXmeB1mWu07Ns89cEATIsgxBELpaSYW1i3Jdt29Y9NzcHP88VldXu5IlF1544UiJhn379q1LogGIbvOVhu/7kUO0k1JVlX+PWfurer3OP99hFSlhfvrTn6beT5qKCLJm3NU44zY7O5vquueff37MOyGEEEIISedVJ3oDhBBCCCFkrY3Q8vIyb72jKAoURelrxSPLMk8usMTE8vLywB78S0tLvE1SvV5HoVCIrIIQBAFzc3P8/klJkgRJkoYO841KNgBrAV1WtSDLMgzDgCiKUBQFjuNAFEVeHRDWOin4c1EU0Ww2QxMGrVYLjuPAdV3eUql3aLIkSWg2m5idnU00RBtAX9VC2DMP/kxRlL7nYlkWZFnm76FYLPJh2Wx2xrDWQ8H3/hd/8ReJ3kPQsWPHcMstt6S+fhBBEGK1DgvT6XRgWVbX35WVlZWuBIAoipBlGZIkQVGUxO2aVFWFLMuR8zCq1Wqi78iPfvSjRPcPOv/883Hfffelvp5sXrlcLtV1Tz311Jh3QgghhBCSDrVRIoQQQgjZJCzLwtzcHBqNBnRd58FXdpI/GFheXFyEKIpYWFiA4ziRJ2Lr9XpfGyDP85DL5boC3aIoolgsQlGU1Cf5k5iYmIj9WsMw+FyGOFgFh2EY0DSt79R5pVKBruuhJ+lFUYSu631zEBzH4eux5zfM6mr3/80ulUp9SSE2zyKqrRSTpg1Uq9WCbdswDIO/1+effx5nnHFGonWYK664IlU/+WFYoiFpdUClUoFhGPx73Pu8B33HZFmGqqp9n3NalUplaIItaOvWrakHRR85coSqG1J64YUXUlU5bUQbpe3bt+Pxxx9Pde073/lOPPPMM2PeESGEEEJIctRGiRBCCCFkE8hms/xUvWmavKrA9/2uU9msfVI+n+cteSRJigxEhwVcg8FdQRBQLpfRbrehquqGJBpYC6G4NE2L/XpBEJDJZHhbqmAA2/d9zM7OQlVVZLNZNJvNrnZDzWYT2WwWqqoil8t1tVwJrpfJZFI/J0EQkM1mkc/nUSwWMTc3B2BwpUfYnzcaDTQaDZRKJTQajb7X53I5SJIETdN4ouHtb3976kTD008/vS6JBgCJEw21Wg2ZTAaqqnYlzHqfw7DkjaqqyGQyqQY8ByVNNADA8ePHceTIkVT3m5mZwdve9rZU157KJicnU7dTS1rVlMZll12W6rrf/e53lGgghBBCyKZByQZCCCGEkBNM13XYts1btLiuywOljuPwQJfneXxOQW8glc1P6MXaJ/ViCQeWZNhI7N7VanXsyQ3P8yBJUl/g2fd9yLIM13XRbDb7EhFA99wMx3Egy3Jfj/darQZJkiKDj5IkoVgshrYEKhaLWFlZgW3bME0Tuq7zz3zYc2B7bTQamJiYgCzLkGWZf3fiuOSSS2K9Lsz+/ftTXztIWOVJFN/3MT8/D0VRQqtSej+TON8t13UTt1QKSpNoYA4dOpT6vrt370597anqQx/6UOpr0yaGkkjb4uzw4cNj3gkhhBBCSHqUbCCEEEIIOcFM0+waBCwIAg+mTk9PdwVNWQVD7/Db+fn50MSC4zioVCqh9xUEYUMqGaIoioJ2u51qNsQgnufxqg+GnfCPc4pekiTU63W4rtvX9si27chEA5utoOt6rEqMVqvFP8e5ubnIz4JVQwDhcx/ChO3xXe96V6xre73wwgu4//77U10LRFcYsNZdcbRaLT6rI0rvs4mTxGAtutIYJdEAAN/5zndSX3v11VenvvZUdfHFF6e6biOGSp9zzjl4xzvekeraUZJWhBBCCCHjRskGQgghhJATzHVdWJbFT6grisKDqmzAMTstz4LYbEg08PsBuVGBaE3TNiRgloYgCKhWqwODzvl8Hu12O1FQONiLv9Pp8EqCuGtIkgRd12EYBm9d1btur2EVBmzWw9TUFCYmJvgcCt/3eTurXoIgYGlpiSciwu7Rm9hgMz56vf71rx+4vyjf+MY3Ul0H/P77u7KygnK5jHw+z6s5yuVyrGRXq9WCLMtDW9kkrWwIG8AeTAANMyjxEcd3vvMd/Pa3v0117Zlnnok//dM/Hen+p5Lp6enUCZqNqGq49tprU1/7gx/8YIw7IYQQQggZDSUbCCGEEEI2CRZIzufzcF2XVySwocUsqNxqtWAYBg98xwlyG4axXtseC13X+4LtrFLANE2Iopio7VIwqWAYBgRB6AssNxoNZDIZTExMIJPJ9LVeWlhYgCAIXUHlYcmKXC7Hf/XOAhAEAZ7ndQXFPc/j1ROs0qNYLCKbzWJhYQHNZrPr9Hy5XO76fbDqgYn6Prz00ksD9x7lwQcfTHUdAP7eBEGAqqowTRPtdhsrKyux53A0m81YPfN7EyyD1hdFse/75vs+FEWBLMuxEg5LS0tDXzPMww8/nPravXv3jnz/U8VNN92U+tr1Hgw9OTk5UlusUb5DhBBCCCHjRskGQgghhJBNQFGUrtP91WoVhmFgcXGRBz47nQ6Wl5chyzLq9ToPvOfz+cjZDMyop7DDsOHE7NeoVFVFuVzmiYXelkfs51HYoOzeIDCbvxDU6XS6ev+7rgtFUbqqGNiavc+OJQPYCf0gNjuDzWXoFfY5BQPpLLFk2zYMw+D3qNVqaLVavAKCVQWErccSFb0ee+yxvp8Nc/z4cXz3u99NfB2wlmBgA7DD/iwuVVXRbDaHXtM7x2HQMOCwxJWqqnBdlw8wH1YNJIriyPNOvva1r6W+9qMf/SgymcxI9z8VXHzxxSO1nVrvZMPf/M3fYOvWramu/dd//Ve8/PLLY94RIYQQQkh6EwBWT/QmCCGEEEJOdWzgr+d5PFjOBkJblgXf9zE5OQlZlqFpGg+UlkolHiCNSiiwGQRp5jN0Oh3Ytg3XdftaHWUymb4AryzLkCQJqqpix44die8XR6FQCA3k27bdd8qf7VNV1a79Ly8vhwbqDcPoCtSXSiVYloVms9n32kajMfR0vud5fUHv2dlZfgo/+NmwShZZlvnQ4larBU3TYNs2BEHoqmhxHAeiKEZ+ro7joFAo8Hu96U1vwrPPPjtwv70OHDiAG2+8MdE1jKIoA5NDSXmeh/n5+YGVPKur3f9po2kaHMdBq9XiSZ3ezxgI/z7E2b/ruiMF/E877TR0Oh289rWvTXX9N7/5TZrfMMD09DQOHTo0MPE0zJYtW8a4o26Tk5N45plnMDU1ler6j3/845EzeQghhBBCTgSqbCCEEEII2QRs2+YzAgqFAgDwk+u2baPZbPLXsODy8vIydF3nCYkwaRMNjUYDuVyOn94OC+5HnexnQ3czmczYA2GVSiV0L8BacH3csymi2vd0Op1Yw5rD2lex9j2sSkEQBLRaLaiqClVVIYoib8HkOA4PrnueB1VVUSgU4Ps+JEka+LlKktS1/6NHj+If/uEfhu6Z8X0f+/fvj/36XpZlIZfLxZ6BENRoNPo+S0EQUK/XQ+d7yLIcOvPCMAzYts1nRhSLxdA5DWGJJ8uyhn5/RVFMPWAaAF5++WV885vfTH39Rz7yEWzbti319a9kk5OTuP/++0dKNNx9991j3FG/W2+9NXWi4eWXXx5pngohhBBCyHqgZAMhhBBCyCbDqgVqtVpfW59Op8MDoMOC3Wz4cpJEQ6vVQi6XgyzLXSfIeysYgOHzC1zXhaqqofMQ0qhUKgPb1rCKj96T5qIo9p2Gn5ub63suYW1/HMfpe10mk4EoikNbVwFrwe7eoLkkSbwVkiRJfFZA733Z3nuZphk5gyOXy6FQKKBSqaBSqfR9bjfffDMOHz48dN+e5+HSSy8dOXlj2zYkSeIJkjh834eqqpAkKTRRoes6T6CxhE29Xh/a0khVVT5DIniv3mffe69hRm2l9KUvfWmk62+55ZaRrn8lmpmZwbPPPouZmZmR1vnKV74yph31Y39X07IsC8ePHx/jjgghhBBCRkfJBkIIIYSQTcbzPJRKJSiKAlEUkcvlAADz8/O80mBxcXHo0Fw2/yCuUqkESZIi29T0Bn7jJjHCWgklNSzREBTW2sm27a5gN5v/wBImkiShWq12PS/f92HbdlcwutPphCZeoiiKEvreVVXl67JZAWHvobcVFQuuh53uL5VKfFYEq5Lo9dvf/haXXHIJ7rjjjshe79/+9rdx0UUX4ciRIzHeYTxsyHfv0OwwhmHAdV24rgtJkrC8vNz3GlmW0W63+wZoJxX27IOCg9qjRM2liOuJJ57A97///dTXX3bZZbj44otH2sMryXXXXYeHHnpo5H/nHD16dN3mNbz5zW/GvffeO9IaYZU8hBBCCCEnGs1sIIQQQgg5Cdi2zfvPx6FpWt+g5Ci+70OW5aFr985EqNVqA0+FM+VyeaSAcJJEA2NZFg8Cs776uq6HBumjlEol6LqOdrvNkxBJ9sIGXg/ieR50Xe8LqLMh4AAwMTEBYG0QuK7roQmkVquVuJ3P1q1b8d73vhfnnnsu/vd//xfHjh2D4zh45plnEq2TRPBziRI2C0RRFJimGSuA7Pt+13dZkqTQ6zzPQyaTGZq0kyQpdGZHUHAORxp//ud/PlI7pV/84hd45zvfid/85jep1zjZTU5O4q677sIHP/jBsay3a9cuHDx4cCxrBb32ta/Fo48+OlL7q8ceeyx0Pg0hhBBCyIlGyQZCCCGEkJNUvV6H4ziwLKurTZEgCGi327EqD+ImGgD0BevjDEgOC7izYb1xg2Us6J9Eb7JlcXGR9++Pc1+WSOldJ2o4dRjHcXhlAguAR92bDfh2HIcPfmb3sSwLkiRFVqm0Wi0+XHyzCyZuwgxKmkiSBNM0IwePt1ot6LoeOr+EtVBig7cZy7IwPz8/dN+u6/Zd2/vnYRUSg2aM9HryySdx9tlnx3ptmK9+9av4y7/8y9TXn8wmJyfx0EMPjdw2ifne976HSy+9dCxr9arVaiOvrSgKHnzwwTHtiBBCCCFkfCjZQAghhBByEgoL4tu2zXvkx6k4ANZa1iwuLsZ6bVhlADt1HyZsODVLbriuC9u2IwPHQXFPoDOqqmJpaanrvp7nIZfLwXVd6LreNyQ4aHl5GZqmhZ5o9zwPhUIhciB3kCiKcBwHpmlC13V4ngfTNJHP52O9j7hs2+attsa9LoCuhJIoishms6kGfwuCgJWVlYGvYUmhQWuYptlXHVGpVKBp2sDviCAIod+5XC4X2TqMMQxj4HcmSpJE2Yc//GHcc889ie8RdNVVV6FarY60xsnotttuw3XXXTe29d7+9rf3zcsZh+XlZXzsYx8baQ2qaiCEEELIZkbJBkIIIYSQk1C9Xh9aVRCXZVkoFApDg/nB1j7M1NRU6HWCIKBer/edUg9WBgiCAMdxBp4YZ1gCYBhBEOC6LiYnJ+H7flf7HM/zMD8/D9u2IcsyFEXhFQOu6/IqETanoVwu9yVK2LpJhm730jQNuq6P3FM+aH5+PlYCZBBBELo+S1YFIssyr0ZhyZI0bYPCvj+94gT+m81m1/cqSQupsO9cMFkjCAJ27NgBURQhiiIkSYIgCPx/k0raAuzQoUMjnc73PA+zs7N44YUXUq9xspmensaPf/zjsa23b9++dRm6ffPNN+OGG24YeZ2dO3eOdZ4KIYQQQsg4UbKBEEIIIeQkI4oi2u32WNd0XRfz8/MDA8hhJ/2jgtzVarWvuiIs8BonAA0kq25gJ9wtywqtYjBNE6VSKbTtjSiKKBaLffsslUowDAOKokAQhIGn7+MQRRHNZjNVALvRaEDXdaiqyqsk2FyKtFgFSi6XgyRJWFhY6Pv8PM+DIAjodDqJBo8ziqIMPXU/qFIGCP8OJk18hH3nWAJq3OK0Ggt6//vfP3JlwiOPPIIPfOADI61xMrnuuutw2223jWWtgwcPYteuXWNZK2j//v34xCc+MfI6p3KrLEIIIYScHP7fid4AIYQQQghJRhTFkVp8+L4fumaz2Rx4Cjus5VG1WsXq6irq9ToWFhYgCAI0TesLVLdardDKBNu2+4YjhxEEIfYJccMwYJomPM+Dpml9LX9UVUW73Ua73Ua9XkexWES9Xuc/671PpVLpaoM0aqIB+H3gngnO3AjT6XSwvLyM2dlZyLIM27ahqioqlQp834/dCmvQ+pIk8WcS1oaL7Xd6ehrVapX/Pm7iYVj1QavVGrpGb+C+1WolrrCwbbvv7896JBparVbiapMHHngA//7v/z7Sff/sz/5srC2FNrtRqoyCjhw5gmuuuWYsazGSJOHw4cNjSTS8+OKLY6mMIIQQQghZT5RsIIQQQgg5ybC5DKVSKdX1kiShUCiEJh3K5XJf+6CFhQW02+2Bg25lWYZhGFhZWekaqAysJTdUVY2sStB1PXQvvdLOOmBB+V6iKEKWZei6DlmWQ4PmSdvgxBUMbrPT7xMTE8jlcvxXMCCuqio0TesLrKuqCkmSYFkWyuVy6r2yoHhv2yhgLWjemwxRFAX1eh3lchntdjv2jJBB4lSt9CYs0raOGtaqKQ3f91Gr1VAoFJDJZCBJUqrE1F//9V+PvJe///u/x3nnnTfyOqeKo0eP4pprron176G4brrpJvzgBz/AOeecM5b1FhcX8d///d9jWYsQQgghZL1QsoEQQggh5CTkeR50XUcmkxl6Kj6oUqnAdV2Ypsl78fdSVZXPhKhWqzAMI1XbHCYsSB7keV6soKwkSbF78/diA1U7nc7QqhDf9/lr1msQa/B9BBMEbMg3+xVFFEVeXeC6LkRRhKqqyGazPGGgqmrs5xocNt7pdFAoFHhCRNM0yLKMqamprqSNJElQVRW+7yeuLohDkiRks1ksLCzw6pPewdBphbXQYhqNBhqNBkqlEhYXF5HL5WL9PVMUBYqiwDTNgesP89xzz+HAgQOprweA0047Dd/61rdw1llnjbTOqeDIkSM4//zzxzYH4ZxzzsGhQ4dw4403jmU9AHjwwQdHHh5OCCGEELIRaGYDIYQQQsgrgKqqXQHjKJlMpisQKggCTNMcWxC3V61Wi3XqPTjYeZDFxcXEp8XZrADWKsjzPEiSBFmWoWkapqen0el0YBgGHMeBbdtdg4TTDEOOg1VWRFWMBGcchA1O9jwPKysrfK0gx3EgiiJqtVpktUO1WoXrupBlmSc/Wq0WZFnmVQarq6solUrQdZ0P/fZ9H6Io8iHLwz4TURQxNzfHqzCieJ7H9x03ucX2lpRhGF2zPCqVCp/1EYUNzI4SZ7h1XFu2bMGRI0dw5plnjrSO67rIZrP45S9/OZZ9bUYzMzM4dOhQqmuPHDmCSy+9dCwVDaeddhoWFxdx8803j7xW0PPPP48LL7wwVuUPIYQQQsiJRskGQgghhJBXgDjDd1utVmSwV9O0vvZHYTqdDizLgm3bPPglyzJUVeXB56Akg51N0xzaKslxnNDZD8Da+4u6Dwug9yYNLMvC3NxcaLskSZIgCMK6tNyJg82/YAmQ4HtTFKWv3VUYx3GQy+X6nkswmcL4vo/JyUmYpslnQDSbza5KGDZAms34AMKHU8/NzUGWZSiKMlJVzDBxk1m9ehMHcZJYq6uD/7NpnMkGtt63v/3tkddptVp473vfi+PHj49hV5vTQw89hIsuuijRNQcPHhxb66Q9e/bg5ptvxhve8IaR1wo6fvw4LrzwQjz77LNjXZcQQgghZL1QsoEQQggh5BWg96R2mGEBVdb7PyxpEOd61rantzrBsizMz88P3BsQL2EySJpgr67rKBaLqU/IbyRBEFAul2FZVlc1RKVS4VUZwNpz1DSNB9Mdx4Fpmpiamup6j4IgwLIs/rrFxUWeWGi32xBFEYIgoNPp8O/E/Pw8n5PAEjUAuqo/RFFEu91e12fBJElmMWH7i1O9MizZMDExEXsPcd1www1jOSlfr9dx5ZVX4je/+c0YdrX5TE9P49ChQ0Mro4C1pNott9yCO++8c+T7ZrNZ7N+/HzMzMyOvFeYDH/gAHnnkkXVZmxBCCCFkPdDMBkIIIYSQV4A4swyGDdN1HKdrcHHQ7Ozs0JPf7PR770lhRVEi102yv2HSnKDXdR0TExObPtHAZDKZrkRDLpfjw6FXV1exurqKfD4PTdNQKBQAgA8q7q2C6A3Qm6YJy7L4bIxGo4GpqSmIoojZ2Vn4vg9FUSAIArLZbFfAvtlsYnV1FYqijDSvIMj3fTQaDVQqFZRKJRQKBeRyua7vF6v+SKL3s+50OkMTDXG+v+vh1ltvxUMPPTTyOrlcDj/84Q/xjne8Ywy72nw6nQ4uvfRSHD16dODrWNukURMNZ599Nu6//3488MAD65ZouOqqqyjRQAghhJCTDiUbCCGEEEJeAYYNMvZ9P1YQOKy//+LiYuyZBY7jhLa1YeuyQHU+n0exWES1WkW9XueB8lGsR7seNm9gaWmJ73NY66Jh0l7veV5XYH1xcRGSJKFarXYlmxRFQb1eh+u6qNVqAKLbT7GT4L7v8+QDe47BGQaO48AwDOTzeaysrMC27a71Op0OKpUKf/2wIdxRSqUScrkcJiYmIAgCb9Gl6zpM04Rt230zLorFYuRcil6qqva16oqT5BqWzAsbtD4ue/bsSf08g9iQ6w9/+MNj2NXmwwY979u3ry/pcPToUXzsYx/Dzp07RxoEffbZZ+Pee+/Fk08+iQ9+8IOjbjnStddeO1KVFyGEEELIiULJBkIIIYSQU0DcZEFvILbVaiUeyGzbNiqVSt+6q6urPFBtmiZ0XY9d9RBHnOqOJHRdR7vdhmVZ0DSN7zPNjIAgTdOwsrKCcrmceDA324Pv+7Asi8/Z8H0fpVIJy8vLAH7fcoklBNicBUaSJCwsLPBntrq6inq9jna7jXq9DqC/8oFhFQa5XI7/zDRNqKrK21ilrW4QRXFoKyzDMPqqZ8rl8tA2YsViMXSIej6fH5qsGPYdHVc1Rxjf97F79+6xrLV161bcc889uO2228ay3mbDWiRt27YNp59+Ot73vvdhy5Yt2LZtG77yla+kXvctb3kLKpUKnnzyyVgt4UZRKBQih8YTQgghhGx2lGwghBBCCDnJxQnWx5llIAhCX3VA0kQDs5HBsk6ng+Xl5dR7TWpYUHsQQRCwsLAAQRCgqiosy+KJhzjXsWRQb8srWZah6zo0TePDndnMBRaYLxaLPLlhGEbX82KzGSqVCm+/FAzAC4KAfD6PVqvFKwwG0TSNJySCvxqNxsDr4iRfXNcNrdIwDAPtdhtLS0vIZrPIZrO8KmVlZSWyVRZLzEQN3BYEYei+1nuIeLPZRLFYHNt61113HR5//HGcd955Y1tzs/F9H48++uhIa5x33nn44he/iKeeegq7du0a086iXXnllbjvvvvW/T6EEEIIIevlVSd6A4QQQgghZHMIqwyIWxHRaz2Dr77vw7ZtWJYF27bX7VR51LqsSiDNfdnMgyBBELqqBKLuGUwOOI7TlRgKfk7BfxYEAY7jIJvNQlVVqKqKiYkJqKoKURS72goFkwiyLGNpaQk7duyA67r89cBasmV5ebkrGdH7LKK+N6ZpDmz5xZIww5JVUd8vURShaVriOQ7AWnJFkiQUCoWu/cdp0ZT270kS+/fvx/bt23H55ZePZb3t27fje9/7Hr74xS/ixhtv7KsWOVW95jWvwRVXXIG/+qu/wvbt2zfknv/5n/+Jq666CocOHdqQ+xFCCCGErBeqbCCEEEIIOQWJoohsNouFhQUUi0XU63XekidovYOorVYLjUYDpVIJi4uL/FT+IGwuhGma69q+ZtDaaVspRZ1OH/Y+bNvGxMQEn8EgSVJkQDy4N9d1eXB/fn4eExMT/Oe2bXclMFjFBjvJX6vVkMlkoOs6fN9HLpdDoVCAYRh9LaDK5XKsk/dx5iPEqRwZpZ+97/soFAoolUp9fyZJEur1On+GrKIkzn7SVh4E210xgiCEVlns2bMHjz/+eKr7RNm7dy+efvppXHXVVWNd92RzwQUX4POf/zyOHj2KO+64Y8MSDZVKBZIkUaKBEEIIIa8I/x8AAP//7N1/bBv1/T/wZ7/7/FFgkAs/NjrGcg4tbQHRC2La1K34AoOxDpYLHUOAWGwJFTqYciliWxHMNuso3QR2NsTPrj7vD6gG1HYpP8eIDYwxOppzBBswRM60MH60zd0YP6T90e8f0d3842zfOU6cJs+HhAA3vnv7RyR4v96v13MBgKkl8RERERFRWymK0nDzVdd1mKYJQRB8ZRvYm9PNGB8fLzt9n8/nnQKBvZ5Ksiw7mQG15PP5luU81FNvLbquo6enx9f1QqFQzXFJsVis5pifUqqqOkWhnp4e5HI5J+Q5l8uVfb75fB6JRML5bnR2drq+57lczilIDA0NYWBgAAsWLIAsyzBNE7quQ9d1p6AhSRJGR0ed5xcKBQiCgFwu56kLIJPJNBxL1NvbW7N7IZFIVBUACoUCVqxY0fDeqVQK0WjUKe7IsoxMJuO8h5X3sSzLVxHBMAyEw2FfnT0HDx6s+j5pmoa+vj4EAoGqz+zYY4/FCy+8gBNPPNHzPbzSdR233HILHnnkkZZfezaSJAlr1qzBRRddhO7u7hm993vvvYd169bhiSeemNH7EhEREU0njlEiIiIiOgQFg0EnXNlL8aDZ8GRZlpseiVSZ/6BpWsPxOJXPma0kSSrrLhBFEaZp1gxVBmp3NQDeO0hKOyAikYgzcqijo6OsAFMsFqGqqlPcqDcSqnSTvrSQYb8WwzCcz0UQhLLXYVmWU5TwykuxIZlMlq3BpiiKa6HBHm1V+jvR1dVV9nOBQKDqfcjlchBFEZlMpmq8UzOjmERRxMjICHK5nOtorHg87uReiKLovA+SJGF8fByGYcA0TSiKgkKh4Pq+7tu3D+eddx5GRkZw/PHH+15jPZIk4Q9/+AP279+PW2+9FXfccUdLrz8bnHbaaVizZg3WrFmDJUuWtGUN27Ztg6qqHF1FREREcw47G4iIiIgOEaIoIh6PQ5Zl1xEr02F4eLjp+feVp/jrnVa3RaPRhifJvXYBTJUgCJiYmGj6+Xb3hr2hXe/Uf09PT8OCQ2VHATBZwLHzE+xNfzvLIplMlhWZ3DpC7K6Gys4A0zSdDAdFUaAoCjKZTFnmhF1oaGbUlmEYVcWASpXfPVEUMTo6WvbdtywLkiS5FlMOHiz/35xGXTpuHRPNKhaLroUz+3Xb72U9pmkiHA7XHD118skn45lnnsExxxzTiiW7siwLGzduRDqdxjvvvDNt95lOHR0dOOussxAMBnHuuefi5JNPbtta9u/fj7Vr1+Kxxx5r2xqIiIiIphOLDURERESHCC8jhpqVz+dhmiZEUazadHYb5dLI6Oho2UZ3rc3XSpqmOYHFtcxUscFtc3+6eB1XFQqFnGKC/TnZhQHDMCAIgnPC396Uj8ViSCQSkCSpqtgjiiJEUXRGINUa81SLW7eA19fh5V7hcNjphqn8TgGTORS1NuN1XS/7LnspdtlZIG5jlfwoXXep0jFYlYrFomsBxh77FI1Gq7o9TjnlFDz11FPTWnCw7d69G9lsFtu3b8ebb7457fdrVkdHB1atWoVVq1YhGAx6Gq81E+677z5EIpEpFTCJiIiIZjsWG4iIiIgOIZWntf3I5/MwDKMsM6Fy89VtEziTyaC/v9/zfdw2VL0WCNw2lCvV22AuFY/HoSgK+vv7PZ++FwQBAwMDCIVCTY+e8quZDApBEKDruu/ugEYa5X8UCgUnVDqZTDbd+QJ4624AJjfug8FgVWdIo3uXZlEA3r83XrprACCbzULTNMiyDFmWnU1ty7KcsVqlKjszLMtCIpGAYRhIJpNOMUSWZUSj0aqxTrU6Sbq6urBz504sXry44Zpb5R//+Aeee+457Nq1Cy+99BLeeOONGbt3qaVLl+LUU0/FqaeeitNPPx2nnHLKjGcvNPL4449jw4YNeP3119u9FCIiIqJpx8wGIiIiokOIZVlNn7pOJBINN1s1TUM0Gi3bBFYUBclkEuFwuOE9QqGQ68ltL0USr+HVXk7SJ5NJZ3N6ZGQE/f39dU+1i6KIwcFBhEKhGRtRZQsGg0gmk4jFYp67BARBQFdXF4aHhwFMdmEEg0FYloVcLodMJgNVVX2f6ra7T2KxmBM4rSgKBgYGqgpGhmE0necBTBaWvBQb3Dog8vl8wyJHZbFBkqSG3/9QKOSp0GBZFkKhkDO2Cpj8TOyiUWmhIRKJIJvNIh6PO9+tQqGAUCgEXdchCAKSyaTz3tuh35WdDvbPVyoWiwgGg8hmszjzzDMbrr0Vli9fjuXLl2Pt2rUAJt+PF198Ebt378Zbb72FYrEIwzCwZ8+eKd/r+OOPx0knnYTu7m50d3dj8eLFOOmkk3wHtM+0119/HevXr8czzzzT7qUQERERzRh2NhAREREdQio3UP1IpVJ1cwNstcY16bqOoaEh1w1mO0+i3hz6TCaDcDhccySTl9E6lmU1LAaUFhpKuY22EQQBg4ODUFV1xosMbhKJBGKxmKexVXaOgs00TSQSCacgIEkSBEHwVRCQJAmqqpa9f6IoYnx8vKXjq2p9Rl7U6hyoVNlhU68Twg6+9tql4bVLotbvUmUew8GDB6FpGmKxmPP+25+FnSPh5ff37rvvbjiGbKaNj49jz549+OSTT/DJJ5/g448/dv75k08+KfvZjo4OHHPMMTj66KOxaNEiLFmyBIcddlibVt6cf/3rX9i4cSO2bt3a7qUQERERzTgWG4iIiIjmAC95DoZhIBAIeLpevbBc0zSh67pzKluWZU95DMBkwSIcDrue0M5kMujr66v7/Gw2W7eg0SjkN5FIYGhoCMD/OjZmQ5GhlGmaUFUVqVSq4c9GIhEoioLe3l4oiuKp2+Cwww7DypUrsXTpUnzuc59znvPRRx/VfI49vsdvdoebqRQaAGBoaMgZ5VRP5e9ErXFVsiyXdRY00ug7WKkyByIcDkOWZQwMDDhZGpXrKs2XME0THR0dME0TnZ2dDe9ndxctXLjQ8xpp6sbHx3H77bdjy5Yt7V4KERERUduw2EBEREQ0R9ibkvXUCq6tlE6nfW2ouqkVeGuaJoaGhsrWYZ+eb6RedwXgLdRZ0zRnPNBsVq8TRJIkJJNJZ+yUpmkNx1wdeeSR2LRpEy6//PKqjegDBw5g06ZNuOOOO1r3AlxMtdBgy+VyzqinWiq/C5XFNlmWEYlEfOVlFAoFyLLcdGB6aVeG3Xlhj1QyDMMpFJT+npYW0OyCz9DQUN0cktNPPx3btm3zXFyk5v3zn//Erbfeivvvv7/dSyEiIiJqOxYbiIiIiOYITdMajlDx0t3gFvDslz2yJhQKIZFIuBZBNE3D0NAQTNP0tPZaz63kNeD3UGCaJnp7e8s2liORiOs4o3oFh46ODjz33HNYsmRJ3fv9/e9/x1VXXYW//e1vU1q3Gy9jsvzSdR2apiGbzbrmXVRmhQQCAfT19TUVAF4sFiFJUlPdHfY6Srsr7PcjEAiUrV3TNPT19UHXdddCSLFYhKIoDUPPDz/8cNx7771Ys2aN7/VSY7t378bmzZuxY8eOdi+FiIiIaNZgsYGIiIhojlAUBel0uuHP1Zs3X6szIJvNNhxxBExupkaj0bIT55IkQdM017Biu1Oh0QgoN6ZpIhqNOiHJldf1G448W5WeZC/tZnBTq+Dw4IMP4oILLvB8z0QigZtvvhmffvppU2uuxe1zKRQKUFUVoihOqRhhj/cq/e61KmPCsixnlJRfpb9ThmFA0zRn9JgoiliwYEHZz9vFsuHhYZimCdM0neJfM7kZzz77LL761a/6Xje527ZtG7Zs2YI///nP7V4KERER0azDYgMRERHRHGIYhuvoolKmaSIQCFSd0BYEAaOjo1Wz6+0Z+aIoQlEUZ6O0ctO43ogmQRCQSCSmJbzWbYa+l3FKc5FbCPL555/vqQhVyTAMXH311cjn861aHkRRhK7r6OjogGVZUFW17DszHd0PrZDL5dDb29vU8yoD3S3LcsYh9fX1leUzAMDIyAg6OzudolJp9oTXvArbTTfdhBtuuMH3uqnc22+/jS1btmDr1q3Yv39/u5dDRERENGux2EBEREQ0h3gdIZTJZNDf31/2mFtOQyqVqjljv3JEjZdT19OxmVzrvq0YB1WLvWEMoCw42T6tDkwWPBplaLRSreDiRx99FGeffXbT1922bRuuv/567Nu3byrLcyiKAkmSkEgkauZR5HK5GX3vvPCad1IqFApBFEWEQiGnCFg6NknXdXR1dSGRSEDXdYRCISfou7+/H7qul2U2VBYm6lm3bh1uv/12X+ulck899RTuvfdePProo+1eChEREdEhgcUGIiIiojlEEAQYhuFpo7Z089RtY75RGG5lF4XbqXo3kiQhk8k07MDwqnLmfalWjlPKZrPI5XLI5XKex+lIkgRZlp2/pmsDvd5n1YpRSJZlIRqN4u67757ytbwQRRGaplV1BbSTYRjo6elpKrOh9PfLLo4JguB0Mdi/C8ViEYlEArIso6+vD6qqOj8LTHZKNAqHBoDLL78cW7Zs8b1OAp5//nmk02k8/PDDeP/999u9HCIiIqJDCosNRERERHOMn4DkcDgMXderRg55mVFfOSKmNPy2kdLRMI3Ygbj2xr2iKM6mfa3T/EBrRinZm7+apjW1yVxKEAQoigJVVVuaJ2FZFkRRdF1fZ2cn3n333Zbda2xsDOvWrcPu3btbds166gWMT5d8Pl+zK6WZzASgvAhoh34PDg6ip6fHKRIdPHiw7Pq1fo/rdRsBwLXXXotf//rXvtc4n42MjCCdTmP79u0ck0REREQ0BSw2EBEREc1BXrIbbKZpOienbV5GxpSOd7HvGQgEGt5PkiSMjIxU3bMWt0Bru/BQq8vA7z0qFYtFqKpaM0h7qhRFQSKRmHJ3h5eiUKtDnoHJDe+bbroJH374YcuvXWmm8jdKw81rjXKqlXfSSGUeimEY6OzsLPvsdF13RikBQDwedzqF7IKSXVSq1cmzceNGXHfddb7WNh99/PHHGBkZwRNPPIHt27djYmKi3UsiIiIimhNYbCAiIiKaY6aai9Do5LTN7eT1ggUL6j5HURQkk0nPRYB6nQv1jI6OOgG7fsVisZp5ApUEQajqUigWizU3gyvZY3KaPbnvpSik6zqWLl3a1PXr+eijj7B582bcdtttLb92qekOjc5ms0gkElVZCG4Fh0Kh4GQq+FHr+5jJZKBpGgqFAjRNQ0dHBzRNg6qqZUHtbgW3Sr///e9x8cUX+1pXLe+99x6OOOIIHHnkkS253mzwyiuv4Omnn8aTTz7pOfeCiIiIiPxhsYGIiIhoDpnqxmyjnIZSbqOQenp6XE/ZC4KAZDLpq3BQLBYhSZLvU+SVHRdeFQoFhEKhul0CkiShr6/PyWCox853yOVyyOfzNX9OFEVkMpmmRit5ycn45S9/ifXr1/u+tld79uzBT3/6U6TT6Wm5vqZpGBgYqHo8m81CFMWm3rdsNotMJoNMJlP3+1VacPCaSeLGDoq2ixp+1tyoY6ijowMPPvggVq1a1dTaKo2Pj2PlypUwTROyLOO8887Dueeei9NOO60l158p7777Ll566SX88Y9/xJNPPol33nmn3UsiIiIimvNYbCAiIiKaI1pxAtw0TSQSCQwPDzfc5HcrNvT29padGhYEAYODg1BV1ddIIy/jgbyuyYt6RRZBEDAwMFB12twPwzCgaVrN91UQBCQSCddN9UYq3/NKn//85zE2NoZFixb5vrYfo6Oj+NnPfoZnn322pdcdHx+vet8r80Eqiz+SJEEQBNeAaT/ZIva1JElq2EHih5eCWCqVgiRJWLFiRc0Olq6uLmQyGSxbtqwl6/rggw8gyzLGx8er/uz444/Heeedh/PPPx+rVq3Cscce25J7toKu63j11VcxNjaGsbExjI6OwrKsdi+LiIiIaN5hsYGIiIhoDmj1qBl7czyVStUdGXPwYPl/Sg4NDSGRSDgdAH6LDDYv44HcNDM+qd7YqMHBQUSj0aazHyo1KubUOsVfj5esjHPOOQc7d+70dd1m/elPf8INN9yAsbGxKV9LFEXXje9aHTSVdF2v6iLwW2yYDqqqIh6PO79fdkGjq6urbIyXIAiIRqOIRqNV35fVq1dj69atLQvPtiwL3/rWt/DKK694+vkTTjgBZ5xxBnp6erBkyRJ0d3eju7u7Zb8rpf7zn/+gWCyiWCzi7bffdv7+1ltv+S5IEhEREdH0YbGBiIiIaA5oFAhdLBabDiPWdR2ZTAa5XA6FQqFs09M0zbLNTl3XIQhC0x0AQPOFhmYKLrUKDZIkIZlMNp370IhhGAiHw64dCc0UHOwiTz1Lly7FPffcg6997Wu+rt2shx9+GDfffDPeeOONpq/h9pl6zRQB3DsIZkOxIRqNQlGUsm4aRVGQTqcbdqoAwC233IKhoaGWrkmWZfz1r39tybUWLVqEzs5OCIKAo48+GoIgoLOzE0cddVTdXJf//ve/ME3T+ev9999HsVhkgDMRERHRIYLFBiIiIqI5wC3MFpicTa+qKkzT9D0rvpFcLueMq2mVWhvJ9j3qjXZyG7dTT63RSaFQCPF4fFpOaFdSVRXDw8NVj2cyGfT19Xm+jmmaCAQCnvItrrrqKtx888046qijfK21Wdu3b8emTZs8n5gvJQgCFEVBNBpFV1cXLMuCKIqeczzcxmrNhmKDG0EQoKoqNE2r2U3U1dWFrVu3YuXKlS2994UXXoinn366pdckIiIiovmHxQYiIiKiOaL0FHihUICqqlX5Ca0uOLRarU1z+7UZhgHDMJDL5aDrOorFInRd993VUCt8utXjqLzQNA3hcLjssWY+Ky/dDbbjjjsOiUQCF110ka+1TkU2m8Xw8DD+8pe/NPV8WZYhCAIymYyv51V238zWYkMjGzZswM9//vOWX/fSSy/1/Z4SEREREblhsYGIiIhoDolGo07eghtBEKBpmq9T8zPNrbuh0Ul/e769V26jatpRaLC5FRwkScLo6Kjna3jJbqj0ne98B7/97W9xwgkn+HreVOzatQuJRALbt2+fkftVfney2SwURZmRe7fCN7/5Tdxzzz3o7u5u+bV/+MMf4sEHH2z5dYmIiIhofmKxgYiIiGgesgNqZ6vSAGBBEFo6s91ts9lt3M5Mc8uqiEajiEQinq/R39/v+5T6EUccgVgshmuuucbX86Zqz549uPPOO5FMJmFZ1rTdRxRFiKIIXdc9j1+aDbq7u7Fx40b09/dPy/UvueQS7NixY1quTURERETzE4sNRERERPOUJElIJBIIBoMzfm/LspDJZGoGIedyOfT29gL4X3Buq+5bOfNfFEWMjo7OSEZDI6VFFmCy0KLruudw76mc2j/jjDPwu9/9DsuWLWvq+c367LPPkE6ncd999zU9YmkuOfroo3HjjTdi3bp103aPiy66CI8//vi0XZ+IiIiI5icWG4iIiIjmOU3Tam76T4dUKuWEVtcbXWSf0m/l+mKxGKLRaNlj6XR61ozV0XUdPT09ZY/5He9k5xEIggBJkpzHJUlCsViEqqp1nz9d2QBevPbaa3jggQdw//33Y+/evW1ZQ7scd9xxuOqqq3DttddWBb23yqefforvf//7eOaZZ6bl+kREREQ0v7HYQERERDTPzUSxwbIsJBIJaJoGwzDK/sxtM71QKECWZZimCVmWEY1GW9KB0dnZWdbVMBvGJ1VyC3o2DMNzd0M9pmmis7Oz4c8tW7YMw8PDOOuss6Z8z2a98MILeOCBB5BOp7F///62rWO6nX322QiFQrj44oun9T4HDhzABRdc4CsHhIiIiIjIDxYbiIiIiOa5iYkJ1xFClmVN6YR1sVhELpdDJpNpmCNQWnAo7XwoJUkSVFVtujDiFjw9Ojpadvq/GZZlOaOPJEma8ql00zQRCATKXr/f7IZ6AoFAVcGnlr6+Ptx6660QRbEl927Wrl27sGPHDjz++ON49dVX27qWVli0aBGuuOIKXHnllTjxxBOn/X579uzB6tWr8eabb077vYiIiIho/mKxgYiIiGgekyTJ9aSznW1g/4wsy5AkySlKeOkyWLBgga+1hEIhCIJQdaq/kiiKiEajvosOvb29yOVyzr9PpauhXqeGJElQFAWqqjZdeKgMixZFEePj401dq1IzIdLXXHMNbrzxxlmRazE+Po6dO3dix44deP7559u9HM+OOOIIfO9738PAwMCM5qSMjY3hggsuwIcffjhj9yQiIiKi+YnFBiIiIqJ5TFVVxOPxqsfdRvm4qVWsAPwVGwRBgCiKZeHIjfgpFhSLxarT+c2Oj8pmswiFQlWdF5UEQYCmaejr6/N9D7fsBl3XsWLFCt/XqjQ8PFwzt0GWZfT19WFoaKjqzzo7O/GTn/wEV199NRYuXDjldbSCaZrI5/PYvXs3xsbG8PLLL8+qTfVly5bhzDPPxNlnn43+/v4Zf9/uvPNOXHfddTN6TyIiIiKav/5fuxdARERERO1jhwmXKhQKngoNwOQGeLFYbPre9ggjWZbL7tnMBn09pR0NtmYKDalUCoqiNCw0AJMb4YqiIJVK+b6PJElVxRG/3Qi11OtOkGUZqqqW3VuSJBw8eBB9fX3YsGEDFi9ejNtuuw3//ve/W7KeqRAEAX19fYjFYkin03j77bdhGAYefvhh3HTTTfjud7+LL33pSzOylsWLF+PCCy/EL37xCzz22GPYt28fRkdHcd999+HSSy+d0UKDZVm45JJLWGggIiIiohn1f+1eABERERHNLrVOvdeSy+Wa2ri3T9EDcIoOExMT0HUdgUAA2Wy24fO9qtyoVxTF32IB5PP5qswHL+zxUH4LKIqilBVgcrlc07kNxWIRmUwGiUTCGfskSRIGBgacLgZJkpzxPul0GqZpQtd15322u07279+PG2+8EZs3b8aPfvQj/PjHP8YxxxzT1Lqmwxe/+EWsXr0aq1evdh57//338fLLL2NsbAz79u3DgQMHMDEx4fx9//79OHDgQNW1Ojo6sHDhQhx22GE4/PDDsXDhQhx++OH4yle+giVLlmD58uU4+eSTsXz58pl8iXXt2rULl112Gfbu3dvupRARERHRPMNiAxEREdE8pigKRFGEqqoIhULI5XKuXQD1NFts6OrqcooMxWIRhmEgGAxClmWYpglJknyNVarHLVfBr2YKDTZVVSHLsq8Mh8puD7/vhWVZyGQy0DTN9TO1w7ZFUYQgCGXFm9KOE1swGCxbw0cffYTNmzfjN7/5DdauXYv169fjC1/4gq81zhS3AsRcFIlE8Ktf/ardyyAiIiKieYqZDURERETkEATB04igyudMTExUPe6W2SCKonNqXpZl5PN5RKNR50R9Pp+HLMuIRCLOyfpsNus61imXy3kO2q1ci5/nApPjk6ZSbAD8Z0QYhoFAIFD22MGD3v7TvVAoNCyo1Prc6slkMojFYohEIkilUmUdIwsXLsSVV16J9evXY9GiRb6uS1Oze/duDAwM4M0332z3UoiIiIhoHmNmAxERERE5/BYa7OcUCgVYloV8Po9UKoVYLOb6s4ZhOAUFOxsinU4jGo0iGo1iZGQEXV1dGBoagiAICAQC0DRtSq/JLVPCT4cB0Jq8BL+vozKzAZgsxnjh5XOsDAYvFArOSKVYLIZAIIBwOFx2T0VRMDo6CkVRqsZYffbZZ7jjjjvQ3d2N9evXY8+ePZ7WSs377LPPsGHDBnzjG99goYGIiIiI2o5jlIiIiIhoyvyMJbIDiqPRKJLJJARBQCqVgmEYzjincDiMYrGIjo6OpgogpSpHKPldL+B/hJEbv+OppqKrq8v1cUVRYBgGRFEs69SIxWKIRqMAJsdFiaIIwzCcAkkwGIRlWU6RJpvN1s32uOuuu3DXXXehv78f119/PXp6elryuuh/0uk0brjhBtfvNxERERFRO7CzgYiIiIhmTCQSKQtKFgQBhUIBoVAI0WjU2cCWZRm6rkMQBMTjcV9h0NOhXRu6bt0NU3lePB7H6Ogo0um085g9rqr031esWAFgsigTj8cRi8XKQrXtP28knU5j5cqVOPfcc7Fz584mXglVevHFFxEMBnHZZZex0EBEREREswqLDUREREQ0YxYsWADLssoeK80hKN0ktzsg3LIfqDn9/f1lY5HssVfpdBrxeByDg4NOcPfExATS6bSTq5HL5ZBKpQBMfk6lxYdGnn/+eVx88cVYsmQJNm/ejA8++KDlr22ue+ONN/CDH/wAvb29eOmll9q9HCIiIiKiKiw2EBEREdGMiUajZfkHxWIRkiRhZGQE8XgckUgEwGRGwooVK2BZFlRVndERRG78jl1yYxdP/Gj25HqtbAdd18veS03ToKoqwuEwwuEwEokEUqkUent7EYvF0NnZWTbGqjR3YnBwEJFIxFfXyd69exGNRtHV1YUrrrgCzz33nN+XNu+89tprWLt2LVasWIFHHnmk3cshIiIiIqqJmQ1ERERENKPsToZ4PI5QKIRMJgNZlp1N6+HhYUiSBEEQnHyBqYyLccsvyOfzCAaDnq8hSdKUcxvaPQrKVto9Yhd+NE1DMpksy26wixLxeBwdHR0QBKHsNdif2fDwcFPFoIceeggPPfQQvvzlL+OKK67A5ZdfjpNOOqnJVzX3PPvss4jH43jiiSfavRQiIiIiIk/Y2UBEREREM0YQBPT09CCbzUIURafgEA6HMTQ0hN7eXhw8eBCRSASFQgH5fN51XI8oik5YcSNu+QV+Q6cHBgZ8/bwbP2OHAPfuBD8FEjeCIJTlLQSDQUQiESfDobJoYBdYAoEALMtCLBZz/qxQKKCzs7NuULQXe/fuxaZNm3DaaafhnHPOwd133419+/ZN6ZqHsgceeABf//rX8e1vf5uFBiIiIiI6pPx/AAAA///s3b+P2/Qfx/EXfBlAHeJIICGh9nydECrEkRigQjpn6FznLzhnY7tkQIznbGyXG5niTIgynDMwxwHUsqA4IyyxxdIO6OyysPU7nGLy69LLXe6SludDitRz3I8/vi6VX36/31Q2AAAA4MakaZq/He/7vvb39/MH3eMqBumsvZLjOFMVDYZh6OHDh6rX6yu3NZqtTAjDcGpQ9cuM3+K/bDsny7JWDixmqzlWGRa9qBLEdV212+2pY0EQKMuy/Hcze4/ja07+W4xbXaVpunJo8zKPHz/W48eP1Wg0dP/+fVWrVT18+FC3b99e63W2zZMnT/TDDz/o0aNH+uuvvza9HQAAAOBSCBsAAACwEWmaajgcKo5j2bYt0zQ1HA4VhqH29/fzh9v7+/tyHGflyoBJi8KGVbXbbZXL5Us9YJ99yH8Rs3tcJWBZFDbEcaxmsynLsvKgpVar5XMYWq2WDg4OdHp6qn6/r1KppKOjI0n/zpuYbKN0ldZWFzEOHr766ivdu3dPDx480IMHD1SpVK71ujflt99+06NHj/T999/r2bNnm94OAAAAcGVvSHqx6U0AAADgv2f81vw4bPA8L3+YPX7DPgiClSoQztPpdOS67tSxOI4XznNYJooiVSqVCwcOhmHkraJWNTuceRwGXES1Wp0axD3JNE2NRiNJZ4HG+OG953l51cJYv99XmqZ5RUm5XM4rNOI4Vq1Wu/Hh3e+8846++OILff7557p//74+/fRT3bp160b3cBlPnz7VL7/8oidPnujHH39UkiSb3hIAAACwVoQNAAAA2DjDMGSa5twQ5nq9nr9dfxVxHGt3d3fq2CoP72fXushDdsuy1G63V275JC0OR0aj0YVbKXmeNzVfYVYYhvn8h1qtpjRNdXJykt/XuNphHP4s+3eYDUU2oVwu65NPPtFHH32kjz/+WPfu3dN777230T39+eef+vnnn/Xrr7/qp59+0u+//77R/QAAAADXjbABAAAAW8u2bfV6vbWsVS6Xp8KMyTf8L2P8UL7f7+cthUzT1N7e3pXbPlUqlakw4zK/hziO5XmeOp3O3HfjeRnSv8Oyu91uHnB4nqf9/f08oLEsS71eL2+n1Gg0FIahTNM8t4Ji027duqW7d+/q9u3bunPnjj744APdvXtXd+7c0c7OzlrCiD/++ENxHGs0GimO4/wzGo2UZdka7gIAAAB4dRA2AAAAYKu9eLGe/64uqhaYfOi+LZIkmatguMo+Z0MHx3HyodyTgiDQ8fGxwjDMh0nv7u7q8PBw6vfW7XavFKRsk3fffVeGYahQKMgwjPxTKBT01ltv6fnz50rTVFmWKU3T/Ofnz5/r77//3vT2AQAAgK1C2AAAAICtFkWRSqXSWtba3d2dGmx81eqG6zBb1bCuPcZxrEajoTiO1Wq1VK/XVa/XF4YYcRyf27Jpdn8AAAAAIElvbnoDAAAAwDLj+QONRkOVSiX/FItFvfHGGysN2l00JHrZbIOb1ul05h7kX2a49CKmacpxHEVRJNu2FUWRXNdVtVpdeO6kJEnU7XYlaW6INAAAAABIVDYAAADgFbfqoOfZ6gZpvdUTl5VlmUzTnBq2bJqmBoNBPivhqmq1Wj78ecwwDJ2enipJEgVBIMuyZBiGSqWSkiRRvV7P5zK0Wi2FYbi1cxoAAAAAbA5hAwAAAF5plmVpMBhc+PwgCObe5jcMQ3Ecq1AorHt7F5JlWV5tMKnX68m27bVdp1gsToUZ0tnw6SAI5LruVIjw4sUL9fv9tV4fAAAAwOuLNkoAAAB4pUVRpH6/f+HzHceZa02Upqls21aWZWve3cX3NBs0OI6z0oP+LMuW/h663e5c0CBJYRjKMIy5aoVGozFXBQEAAAAA56GyAQAAAFtt3NZn2VBi27bV6/UuvGaapqpUKnMP+C3LUhiGN1bhkGWZHMeZuzfLstTr9VZqnzTZIsk0TVmWNfXxPI/wAAAAAMC1IWwAAADA1nFdV1EUKYoitdttmaaZtz46PDxUo9GY+zurzl2IokiVSmXubX/TNBUEwbXPcEiSZGFFg2EY6vV6sixrpbVmhzoDAAAAwE2ijRIAAAC2zvjN/tPTU7muK9u2dXp6qsFgoHK5vPDv1Ov1S11jtnogjmNZlqVms3np/b/M8fGxLMuaCxokrRw0SJLneWvaGQAAAABcDpUNAAAA2BrjB//jB+5JkuQthizLUqlUOrcFknQ2f2Bvb2+la55X4SCdVTn4vr/ymufp9/vyPG9hSyjDMHRycrLyQGaGOAMAAADYBoQNAAAA2AqmaWo0GimOY5mmqWazqdFoJMdxJElBEKhYLOro6CgPBmaHGJumqSiKVp65EEWRarXawgBDOgs66vW6HMe51DyHTqejVqu1dP12u71yRYMklcvlc9cFAAAAgJtC2AAAAICt0Wq1dHBwoOPjY0nSwcHB1Pe+7ytJEh0eHp77Rn+9XtfR0dHK107TVLVaTUEQLD3Ptm1ZliXbtmUYxlzVw3A4VJqmCsMw/7xsvZOTk5WGQY81m01aKAEAAADYCoQNAAAA2BrjNkiVSkW9Xk9ZluWzGFqtlgqFgsrlsgaDgdI0VbFYnFvDdV212+1L7yEIAtVqtYVtldbJNE0dHR3llRuron0SAAAAgG3yP0nepjcBAACA/zbLsvTdd9/Jsiw9e/ZMaZrKtm19++23+uabbxRFkd5//3199tlnevbsmYrFokzTlG3bGg6Hevr0qaR/qwSu4sMPP9SXX36pt99+W8PhUP/88886bjFnGIa+/vpr+b5/qbZJkpQkiWzbXvveAAAAAOCy3tz0BgAAAIA4jtVsNpUkiXZ2dhTHsSSpVCrl5+zs7OTnjv/cbDbzcy3LunLQMGYYhjzP02g0uvQshVnjuQyj0Uie512qbZIkZVkmx3GuvfICAAAAAFZBGyUAAABsDd/3tb+/r0qloiAIVCgU8uHHlmXlD9p7vZ6Gw2EeAhiGocFgINM0r21vcRznMxj6/X4ecpzHNE3t7e3lMx7WEVhIZ7Mldnd3CRsAAAAAbBXCBgAAAGwFwzB0cnIi27YVRZEajYZ838+rGJIkkeu6Ojo6kmVZiuNY1WpVURRpMBis7WH+KtI0zcOQMdM0rzX0kM7mSlSr1Wu9BgAAAACsgrABAAAAW8EwDLVaLcVxrMPDQ8VxrHq9ng+BPj09VavVkmma6nQ6eaWB4zg6ODhYunaWZZKkQqFw7fdxU6rVqoIg2PQ2AAAAAEASYQMAAAC2UKvVOjdA6Pf7sm07/9l1XbXb7XPX6na7cl1XpmnK9/2pORCvMtopAQAAANgmhA0AAADYOkEQKE1TpWkqx3FkGIZ831eapnlwMGlR4JBlmVzXnXr73zAMBUGgvb29m7iNa0c7JQAAAADbgrABAAAAW8cwjPyN/Xq9LtM0Va/XJZ3NRFg0nLler+vo6EjSWfWD4zjnvvU/ee62ajabiuN4adWGRDslAAAAANuBsAEAAACvjfHMh1ar9dJzLctSq9XauiqH4XAo13XzwdOO48j3/XPnTRwfH+dBDAAAAABsCmEDAAAA/tNc15XnedrZ2dnoPpIkked58n1/7jvLshSG4Vzg0Ol05LruzWwQAAAAAJZ4c9MbAAAAAC7D8zz1ej31ej1ZlnXpdXzfl2maqtVqyrJsjTu8mCRJVKvV8gHWi0RRJNM0NRwO82ONRoOgAQAAAMDWoLIBAAAAr6QwDPMWSI1G40Ktk1ZZ87p1Oh0FQbDSvIXxoOwgCM4NJgAAAABgE97a9AYAAACAWecNgZ5UKpXyPxuGsZbr3lTQUC6X85kMq0jTVI7jXMOOAAAAAOBqaKMEAACArWEYhtrttkaj0dKH6oZhTAUMtm0vXbder7+03ZJpmkvXaDabqlarajab6nQ66vf76vf7U62NpLMBz7PHFu0fAAAAAF4ntFECAADA1giCQA8fPpR09hZ/uVzOKxwMw1CpVJJt2/lnLI5j1et1JUkyVzFgWZYGg0H+c7VaXdi6yHEcnZycLNxXkiQvDSMmGYah09PTc7+vVCoKw/DC6wEAAADAtqONEgAAALbGZNhgGIZOTk7UarXkOM7SSgfTNKcChPFMg36/r16vN3Xuee2LllU9eJ63wl2cBSXdbje/FwAAAAB43VHZAAAAgK2SpqkKhcK1rN3tds8NLSaDjkmrVjWMua6rdru98Lt1DbQGAAAAgG3BzAYAAABsFd/3N7L25MDpSatWNUxeK8uyhd8xswEAAADA64awAQAAAFvDsqxrbT207CH/8fGxut3u1LEkSa4UfiyaDQEAAAAAryPCBgAAAGwF27bV6/Uu1bLootrtto6OjhZ+N54NUSwWVavV1O12r9zqaFHYkGVZPvQaAAAAAF4XzGwAAADAjTJNU2maKk3T/JhlWer1ei9tLzQcDuX7vqIokm3bOjw8lHQ2AyGOY9m2LcdxtLOzs3Qd3/dVq9WufjMXEASB4jhWFEX5BwAAAABeN4QNAAAAuFG9Xk+2bcv3fXU6HUVRpNFotDRo6Pf78jxPYRjmxzzPy8OGSqUy9d14/WWhw3hIs2maOjg4kOu6qlarU+sAAAAAAC6GsAEAAAA3xnVdtdvtqWNpmp4bNGRZJtd1F7YjWhY2LDpnkTAMZdt2/nMcx9rd3b3AnQAAAAAAJjGzAQAAABu1rKJhNBpdqdIgCIKpdk2zJoMGSSoWi3PHAAAAAAAv938AAAD//+zdzVXbWhcG4M1ad44yywwxywxRAaKCiAowFcSpAKggpgJMBdgV2K4gcgVIFSBXwB3w2R9gmd/gkJvnGVmHIx155sW79t7CBgAA1qbf78fu7m7Udf2s/c+d5fAr7q3rOvI810YJAADgFYQNAACsVVmWkWXZo4HDwcFBTKfTiHhd4PDwnul0Gqenpyv3TyaTyLLM8GYAAIBXEjYAALB2TdPE5uZm699OT09jMBhEnuetgUNRFHF5eXlvFsP5+Xmcn59HmqatQUOe53FychLD4bD1zLIsH223BAAAwOMMiAYAYO3aBkVH3A6ETtN08Y//JEliPB7Hzs5ORDw+THru7p550DB/XpqmcXV1tXSPwdAAAABvo7IBAIC1K4qidb3f79+rMGia5l6Fw92goa7rmEwmMZlMYjabLdZXBQ0Rt6FCW3XDvCICAACA1xE2AACwdvNKhYf6/f7SWtM0MRgMFtez2SwODg4iTdPI8zzyPI8kSZZmMvR6vdbWSHefddeqAAQAAICnaaMEAMDa3dws/wSdzWatLZKSJImrq6vF33Z3d1cOcr7bnmlVa6QkSeL6+npp/eLiIjqdzku+BgAAAP/zz+9+AQAA/vuyLIvNzc3I8zzSNG3dsypAmFcuREScnZ2t3BdxWxnR6XRib28v0jSNNE2jqqp7e5qmidlstjSgem9vL/b29qKu66V7AAAAeJzKBgAA3lWe5zEajX7Js/b392M8Hj+6p9vtxo8fP958lkoHAACA5zOzAQCA/5THKh9eYlUFBgAAAMu0UQIA4F2talv00Kr2RWmaxtbW1rPPy7Js8Xk6nbYOiZ63dQIAAODXEDYAAPCuyrKMJEkiSZLIsiyyLGttc1SWZRRFsbR+d+hzp9N5so3S169fF5+LomgNMNoGRM9ms+j3+1FVVZRlaW4DAADAC5jZAADA2t3cLP8ELcsydnd3l9aTJImqqhaVCI/NbbgbTNR13doKKUmS1rBhMplEnufP/xIAAAAsmNkAAMDaTafTpbUsy1rDgaZpot/vL64vLy/j27dv9/YkSRLHx8eLoCHidlB0m7bqiYh4smICAACA1YQNAACs3aohzm1BQJZlcXh4uLhOkiR6vV5cX1/HaDSK0WgU19fXcXJycu++4+PjSJLkWWc89k4AAAA8TRslAADWriiKuLy8XFqvqiq2t7cX11mWxWg0WoQGdV0/OSz67jDqsixjf39/MSQ6z/MYjUat96Rp2jpMGgAAgKepbAAAYO0Gg0HUdb20nqbpokLhYdAwnU4jy7LY39+Pi4uLe/fXdR1nZ2exvb0deZ7HbDZrfcbx8fHK9xE0AAAAvN4/v/sFAAD4+2RZtqg+eOj4+DiqqoofP37cCxryPI+maWI8Hsd4PI6Tk5NFeNDpdO7NXMjzPMbjcWxubi4Ch+FwuHIAdNvAaAAAAJ5PZQMAAGvV6XTi58+frfMU5s7Pz1uDhucqy3KpwmFVVUPE7TDpu2cCAADwMsIGAADWptfrxfn5+bP3vyZomHsYODyl0+nEaDSKLMtefBYAAMDfTtgAAMDaDAaDe9ez2Sym0+nK/VtbW3F4ePjq8w4PD1e2a4qIpbO3t7fNbgAAAHgFYQMAAGszHo9jOBxGXddxdHQUaZpGnucrA4ckSaLX68VoNFo5b6HN4eFhXF1dRbfbXbnn+/fvi4HTk8kkIm4rL6qqeslXAgAAICI2IuLmd78EAAB/tyRJoizL2NraenRfVVUxGAwWLZI6nU5E3M5caJom8jyPoiienL1wcXGxuHduPlQaAACAlxM2AADwISRJEuPxOHZ2dt71nLagAQAAgLfRRgkAgA9hXpkwHA7f7YyjoyNBAwAAwDsQNgAA8GE0TfOuA5oNfwYAAHgf2igBAPBhJEkS19fX7/b84XAYRVG82/MBAAD+ViobAAD4MB62OBoOh7G9vR3fv3+P6XT67OcMh8M4OjqKT58+xWw2W6x//fo10jT9RW8LAADAnLABAIAPI8uyxefpdBqdTieqqoperxdZlsXGxkbs7+/H2dnZvfvquo6jo6PY3d2NjY2NKIoi+v1+NE2zVMlw9wwAAAB+DW2UAAD4ULrdbnS73SiKIsqyXLnv5ub/P2Mnk0nkef7oM4uiiG63++gzAQAAeB1hAwAAf6SqqmJraysiIk5PT+Pk5OT3vhAAAMBfTBslAAD+SFVVLT43TfP7XgQAAACVDQAA/Jm+fPkSnz9/joiIsiwFDgAAAL+RsAEAAAAAAHgTbZQAAAAAAIA3ETYAAAAAAABvImwAAAAAAADeRNgAAAAAAAC8ibABAAAAAAB4E2EDAAAAAADwJsIGAAAAAADgTYQNAAAAAADAm/wLAAD//+zZsQAAAADAIH/rQewtjWQDAAAAAACwyAYAAAAAAGCRDQAAAAAAwCIbAAAAAACARTYAAAAAAACLbAAAAAAAABbZAAAAAAAALLIBAAAAAABYZAMAAAAAALDIBgAAAAAAYJENAAAAAADAIhsAAAAAAIBFNgAAAAAAAItsAAAAAAAAFtkAAAAAAAAssgEAAAAAAFhkAwAAAAAAsMgGAAAAAABgkQ0AAAAAAMAiGwAAAAAAgEU2AAAAAAAAi2wAAAAAAAAW2QAAAAAAACyyAQAAAAAAWGQDAAAAAACwyAYAAAAAAGCRDQAAAAAAwCIbAAAAAACARTYAAAAAAACLbAAAAAAAABbZAAAAAAAALLIBAAAAAABYZAMAAAAAALDIBgAAAAAAYJENAAAAAADAIhsAAAAAAIBFNgAAAAAAAItsAAAAAAAAFtkAAAAAAAAssgEAAAAAAFhkAwAAAAAAsMgGAAAAAABgkQ0AAAAAAMASAAAA///s3XtQlOX7BvBrF1lE1gUlLXVEHRFFYRFlUARxwtOMoUniAEKFmkrhqSYV8dCBQAmdGMWzjo1IiDMmag5E4wE1wjNyqDhogGGjiQcEUXDx+0e/X1OOFer77LPsXp8/Gbnua2edVd6b93nbyS5ARERERGRsGo0GLi4u6N+/P/r27Ytu3brB0dERjo6OsLe3h42NDTQaDTQaDQCgqakJTU1NePjwIW7fvo1bt26htrYW165dw+XLl/Hzzz+jvLwcjx49kvzKiKit0+l0GDRoEFxcXNCnTx906dLlz88nrVYLjUYDa2traDQaGAwGNDU1obm5GQ8ePPjb51NNTQ2uXLmC0tJSlJWVoaWlRfZLIyIiIjPHZQMRERH9TUhICKytrWXXeCYtLS24f/8+6uvr0dDQgHv37uH69ev4/fffZVdTnIj3Z9++fWhsbFQ009QMHToUAQEBGDx4MNzd3dG/f/8/FwlKefDgAX766ScUFRXh4sWLOHr0KAoLCxWdYQz9+vXDsGHDZNdo8wwGA9LT018oo2vXrhg3bpxCjcxLQUEBiouLZdd4YRqNBgEBAfDx8YGnpyfc3d3Rq1cvqFQqRef89fOpoKAAx44dQ0FBgaIziIiIiFQAHssuQURERKajrq4OHTt2lF1DEXfu3EF1dTWqq6tx+fJl5OXl4ciRI6itrZVd7bmJeH969eqF6upqRTNl0+l0mDJlCiZMmABfX19069ZNSo+rV6/i1KlT+Oabb7B///42sdSJiorCpk2bZNdo85qammBjY/NCGf7+/sjNzVWokXlZsWIFPvvsM9k1nkuvXr0QGhqK0aNHY/jw4dL+za2pqcGpU6dw+PBhfP3112hoaJDSg4iIiMwH72wgIiIis+Xg4AAHBwfo9XoAwIIFC2AwGFBSUoKTJ08iNTUVp0+fltySlKJWqxEcHIyIiAiMHj0aHTp0kF0JPXv2RFhYGMLCwlBXV4ecnBykpqbi4MGDsqsRkRHZ29sjMjISwcHB8PHxgZWVlexK6NGjB0JCQhASEoKUlBR+PhEREdEL4wOiiYiIyKJYWVlBr9cjOjoa+fn5KCgoQExMDBwdHWVXo+fUrVs3xMXF4ZdffkFGRgYmTpxoEouGJ+l0OgQHB+PAgQMoLy/H8uXL0blzZ9m1iEggvV6PLVu2oKqqCsnJyfDz8zOJRcOT/vr5VFpaiiVLlkCn08muRURERG0Mlw1ERERk0Tw8PLBq1SqUlpZi+fLlsLW1lV2JWqlHjx5Yt27dn++dk5OT7Eqt5uzsjLi4OJSXl2PVqlXo0qWL7EpEpCAPDw/s3bsXFy5cwOzZs2Fvby+7Uqu5uLhg9erVKC8vR2xsLOzs7GRXIiIiojaCywYiIiIiAI6OjoiLi0NpaSkiIiJk16F/YWdnh4SEBJSWlmLevHlt+hkjnTt3RkxMDMrKyhAbG6v4Q6uJyLh69uyJ3bt34/z585g6dapJ3sXQWl27dkV8fDxKS0vx5ptvyq5DREREbQCXDURERER/0bNnT6SmpmLnzp3QarWy69ATQkNDUVxcjKVLl5rVb9s6ODggPj4ely5dwoQJE2TXIaJn1K5dOyxevBiFhYUIDw9v00uGJ/Xo0QO7du1CTk4OXFxcZNchIiIiE8ZlAxEREdFTREZG4syZM3B1dZVdhfDHnSfp6elIT09H7969ZdcRZsCAATh06BA2bdpkVssUInPm6uqKkydPIjExEQ4ODrLrCDN27Fjk5+cjLCxMdhUiIiIyUVw2EBEREf0DV1dXZGdnc+EgWUBAAC5cuIDQ0FDZVYxCrVYjKioK586dg6enp+w6RPQvZs2ahfz8fAwfPlx2FaPo1KkT0tLSkJKSArWalxOIiIjo7/i/AyIiIqJ/4eTkhOzsbAwYMEB2FYsUFRWFw4cPt6mHPytlwIABOH78OKZMmSK7ChE9Qa1WY/369di6dSt0Op3sOkalUqkQHR2N/fv3w9bWVnYdIiIiMiFcNhARERH9BycnJ+zdu5cXVYwsOTkZmzZtQvv27WVXkUan0yEjIwOLFy+WXYWI/k+nTp2QlZWFuXPnyq4i1aRJk5CTk2NxyxYiIiL6Z1w2EBEREbWCu7s71q5dK7uGxdixYwcWLFggu4ZJsLKyQmJiIj7++GPZVYgsnqOjI7KzszFu3DjZVUyCn58f9u3bB41GI7sKERERmQAuG4iIiIhaKSoqCq+//rrsGmZv9+7dmDFjhuwaJuejjz5CfHy87BpEFqtr167IycmBt7e37ComZcyYMdi9e7fsGkRERGQCuGwgIiIiaiWVSoW4uDjZNcza+vXrER4eLruGyYqNjcXChQtl1yCyOFqtFgcPHsSQIUNkVzFJU6dOxYoVK2TXICIiIsm4bCAiIiJ6Bu7u7njrrbdk1zBLMTExFn8GemusWbMGISEhsmsQWQy1Wo309HQMGzZMdhWTtmLFCowdO1Z2DSIiIpKIywYiIiKiZ8SH9Spv8uTJ+Oyzz2TXaBOsrKywbds2DB48WHYVIouQnJyMwMBA2TVMnrW1NbZv3w57e3vZVYiIiEiSdrILEBERkfnbsGEDGhsbFcvTaDTQ6XTQ6XTo1KkTBg4ciJdfflmx/P8yaNAg+Pj44IcffjDaTHPWt29fbNu2DVZWVrKrtBkdO3ZEWloahg0bhvr6etl1iMzWtGnTeMfVM3ByckJCQgKio6NlVyEiIiIJuGwgIiIi4T7//HNUV1cLneHs7IxRo0YhIiIC/v7+UKvF3sAZEhLCZYMC1Go10tLS8NJLL0ntUVtbi8rKSly9ehVVVVW4e/cuGhsb0dDQAJVKBTs7O9ja2qJTp07o3bs3nJyc0Lt3b+h0OmmdBw4ciI0bN/JYLyJBXF1dsWHDBqhUKmkdDAYDKioqUFlZicrKSvz666+or69HfX09GhsbYWtrC51Oh44dO0Kr1aJnz57o378/nJ2dodVqpXSeM2cO0tLSkJeXJ2U+ERERycNlAxEREZmFiooKVFRUYMeOHXBzc8OqVauEHnsxceJEPqhXAcuWLZNyDnpDQwO+++475ObmIjc3FxcvXnzmDLVaDR8fH/j7+yMgIACjRo2CtbW1gLb/LCIiAvv378f+/fsVy8zLy8P777+vWN6zmD59OvR6vaKZ27dvR0lJiaKZrWEwGIw+szWuXbuGJUuWyK7xwgoKCoTP2L59OxwcHITPedLVq1dx8OBBnDhxAkeOHEFtbe1z5QwcOBDjx49HYGAgfH19YWNjo3DTp7OyskJcXBxGjx5tlHlERERkOlQAHssuQURERKajrq4OHTt2VDSzV69ewu9seJq5c+ciMTERHTp0EJIv43WZ0/vj5uaGM2fOwNbW1mgzz549ix07dmDPnj24e/euotndu3dHeHg4Zs+eDWdnZ0Wz/011dTX0er3ir0eGQ4cOKb4kDAsLw549exTNNBZ/f3/k5uYqmlleXg4XFxdFM83Rhx9+iKSkJKPNMxgMOHDgALZv346srCzF8x0dHREeHo6FCxeiT58+iuc/zfjx45GTk2OUWURERGQa+IBoIiIiMlspKSmYNWuWsN8w9vb2FpJrKTZs2GC0RcPZs2cRFBQEb29vbNmyRciF+WvXriEpKQmurq6YM2cOrly5oviMp3FyckJ8fLxRZhFZAmdnZ6xcudIosx4/fox9+/bBy8sLU6ZMEbJoAP44Km7dunVwcXHBvHnzUFlZKWTOXy1fvlz4DCIiIjItXDYQERGRWfvqq6+EXYj18PAQkmsJQkND4e/vL3zOvXv3sGjRInh7eyMzM1P4PAB49OgRtm7dCr1ej/Xr1xvlOJ133nkHAwcOFD6HyBIkJCQofgfZ01RVVSEoKAjBwcFGORYK+OPzKSUlBe7u7ti8eTNaWlqEzfLz84OXl5ewfCIiIjI9XDYQERGR2YuPj0dVVZXiuTyK5PloNBp8+umnwucUFRXBy8sLa9asET7raRoaGjB//nyMHz8e169fFzrLxsYGCQkJQmcQWYKRI0diypQpwudkZmbCw8MDBw4cED7raerr6/Huu+9i+vTpuH//vpAZKpUK0dHRQrKJiIjINHHZQERERGavqakJycnJiufa29srnmkJoqOj0a9fP6EzsrKyMHLkSJSVlQmd0xpHjhyBv78/fvzxR6FzJk2aBD8/P6EziMzdqlWroFaL+zH58ePHSEpKQlBQkEk8Z2XXrl0ICgrCvXv3hOR3795dSC4RERGZJi4biIiIyCLs3LkTzc3NimYa45gNc9OuXTvMnz9f6IzMzEwEBgaaxIW8/1dWVoZXX30VJSUlwmaoVCosWrRIWD6RuRs3bhx8fX2FzoiNjcXixYuFznhWOTk5CAkJwcOHDxXLvHnzJqKjozF+/HjFMomIiMj0cdlAREREFuHu3bu4dOmSoplcNjy7yMhI9O7dW1j+0aNHERYWJvQc8ud148YNBAYGCn0w62uvvQY3Nzdh+UTmTPSyLj4+HqtXrxY643llZWXhgw8+eOGclpYW7Nq1C25ubti4caMCzYiIiKgt4bKBiIiILEZ+fr6ieSKP2jBX8+bNE5Z95coVBAcH48GDB8JmvKjKykqhHa2srBS5YEhkaYYNG4bRo0cLy9+zZw+WL18uLF8JGzduREZGxnN/f1FREcaOHYu3335b+HNqiIiIyDTxJ2QiIiKyGDU1NYrm1dXVKZpn7vz8/KDX64VkNzc3Y+bMmbh9+7aQfCWdP38eK1euFJb/xhtvQKvVCssnMkdRUVFQqVRCssvKyhAVFSUkW2nvvfcerl279kzfU1dXh2XLlmHIkCE4evSooGZERETUFnDZQERERBbj1q1biuZx2fBsZs6cKSz7iy++wPHjx4XlKy0pKUlYX3t7e0ybNk1INpE50mq1CAoKEpJtMBgwffp0k3qGzL+5desWli5d2uo/n5mZCQ8PDyQkJODRo0cCmxEREVFbwGUDERERWYza2lqTzjNndnZ2mDx5spDs3377DfHx8UKyRVq6dCkMBoOQ7IiICCG5ROYoPDwc9vb2QrJ3796NvLw8Idmi7Nq16z+PHbx8+TKCgoIQFBQk9Dk0RERE1LZw2UBEREQWw9raWtG84uJiRfPM2aRJk+Dg4CAkOzExsU3eZZKfn499+/YJyR4xYgS6d+8uJJvI3EydOlVIbl1dHVasWCEkW7RPPvnkqV9/8OABEhMT4e7ujszMTCO3IiIiIlPHZQMRERFZDEdHR0Xzzp07p2ieOQsMDBSSW1NTgw0bNgjJNob4+Hi0tLQonmtlZSXsWBgic9K5c2f4+fkJyf7yyy9x9epVIdmiZWdn4+zZs3/72pEjR+Dl5YWYmBg0NjZKakZERESmjMsGIiIishhKLhuam5tx+vRpxfLMmVqtxpgxY4Rkp6amtulzwgsLC3Hy5Ekh2RMmTBCSS2ROJk+eDBsbG8VzDQYDUlJSFM81pjVr1qC4uBhFRUWIjIzEmDFjUFJSIrsWERERmbB2sgsQERERGYurq6tiWbm5uW3y6B4ZRo0aha5duyqe29zcjM2bNyuea2w7duzAqFGjFM/19/eHRqNBU1OT4tlE5kLUUi4rKwvl5eVCso1l79692Lt3r+waRERE1IbwzgYiIiKyGCNGjFAsixdgWk/EhXQAOHHiBKqqqoRkG1NGRgbu3LmjeK5Wq4Wvr6/iuUTmxMfHR0huWlqakFwiIiIiU8ZlAxEREVkENzc3ODk5KZJ17949ZGRkKJJlCURdzMvKyhKSa2xNTU04duyYkGx/f38huUTmYNCgQUIepF5fX49Dhw4pnktERERk6rhsICIiIouwePFixbI2b97MI5SegZeXl+KZjx8/RmZmpuK5sohanAwfPlxILpE5CAgIEJJ7/PhxNDQ0CMkmIiIiMmVcNhAREZHZc3V1RWhoqCJZN2/exOrVqxXJsgR6vR6dO3dWPLekpASXL19WPFeWAwcOoKWlRfHcwYMHK55JZC68vb2F5H777bdCcomIiIhMHZcNREREZNa0Wi1SU1NhbW2tSN7q1atx69YtRbIsgaenp5Dc8+fPC8mV5caNG6ioqFA895VXXkG3bt0UzyUyB4MGDRKSe+LECSG5RERERKaOywYiIiIyW+3bt0d6ejqGDh2qSF52djbWrl2rSJalcHd3F5J77tw5IbkyFRQUCMlV6u8/kTlRq9VwcXFRPPfmzZsoLCxUPJeIiIioLeCygYiIiMySp6cn8vPzERgYqEheTU0NZsyYoUiWJXF1dRWS+/333wvJlUnUAkWv1wvJJWrL3N3dYWdnp3juhQsXFM8kIiIiaiv+BwAA///s3X1MlWUfwPEfBzgdCoXDeyCEBQuDphCVQU4bmRiFDGvZMrUXbaz+6I/mavSiw802W7b8o9xia9bSaiN1U0ltlr3QKt8Sk6R4OULKUUhMEgqkP3q2ep759MDj9Tv3uc75fv5zuu99IcLw/t33dUU5vQAAAACTCgsLpaamRhYuXCgxMTFGmn19fXLvvffKiRMnjPTCyTXXXGO8OTg4KIcOHTLedZrWx5STk6PSBWymtYXSkSNHVLoAAAA2YNgAAACslZiYKGlpaVJcXCzFxcVy8803S3FxsURERBi7xs8//yyVlZXS1NRkrBlONM4L8Pl8KocpO62lpUWlm5GRodIFbJadna3SbW1tVekCAADYgGEDAABQt3//fhkdHTXWi46OltjYWImMjDTWvJiuri5ZsGBBSG7ZEwgpKSkyceJE493Ozk7jzWDg8/nk7Nmzxv/OGDbg77Kzs6Wtrc3pZYxZVVWVyhkImZmZxpsiIseOHVPpAgAA2IBhAwAAUJeYmOj0Esbto48+kgcffJCtky5Bbm6uStemG6Xj1dnZafxQbYYN+Lvo6GiZPHmy08sYM4/Ho9KdNGmSSre5uVmlCwAAYAMOiAYAAPibgYEBWblypdxxxx0MGi6R1k3uUP689PT0GG/Gx8cbO78ECBVpaWnGmwMDAypfwwAAALZg2AAAACAio6Oj0tDQIFOnTpUVK1aE5JkAgZaQkKDSPX36tEo3GPT19al0Nc7OAGzm9XqNN7W+fgEAAGzBsAEAAEBE3n//fZk/f778+OOPTi8lZDBsGL/e3l6VblJSkkoXsFVcXJzxJsMGAAAQ7hg2AAAAyJ/nSqSmpjq9jJCi8eSwiIjf71fpBgOtYYON56YAmhg2AAAAmMewAQAAQETKysqkq6tLmpqa5Omnn5b09HSnl2S9iRMnqnRD+YZef3+/Sjc+Pl6lC9jI6/VKdHS08a7W1y8AAIAtGDYAAAD8S1RUlEyfPl1Wr14t7e3tsnnzZpkxY4bTy7KW2+1W6Q4NDal0g4HWx3bZZZepdAEbaR2Y/ttvv6l0AQAAbMGwAQAA4CLcbrfMmzdP9u7dK3v27JGSkhKnl2QdjSeHRUQGBwdVusFA62al1uAHsJHH41HpMmwAAADhjmEDAADA/zBr1izZu3evvPXWW5KcnOz0cqyhNWwI5TcbGDYA+rTe9Pn9999VugAAALZg2AAAADAGkZGRsnDhQjlw4IDcddddTi/HCrzZMH5agxStzwVgI63hG282AACAcMewAQAAYBwyMjJk8+bNUltb6/RSgt7o6KhKNyIiQqUbDFwunR/PtT4XgI343gQAAKCDYQMAAMA4RUZGyqpVq+T11193eilBTWtLEa3DXYOB1vYuPHEN/EXr7Si2KwMAAOGOYQMAAMD/6bHHHpP6+nqnlxG0tG5wax3uGgzY3gXQp7VdGcMGAAAQ7hg2AAAAXIKHH35Y6urqnF5GUBoeHlbpaj39HwwYNgD6tL4eOBsFAACEuyinFwAAAEJfU1OT2o1nEZGoqChxu90yYcIESUlJkfj4eLVrXUxtba0cOXJENm3aFNDrBrvz58+rdEN5GyWttzZC+VBtYLzOnj2r0g3l700AAABjwbABAACoW7Bggfh8voBdLyUlRYqKiqSkpERmzpwppaWlEhkZqXa9iIgIWbdunXz55ZfS0dGhdh3bnDlzRqWbnJys0g0GCQkJKt2+vj6VLmCjgYEBGRwcND7c83q9RnsAAAC2YdgAAABCjt/vl8bGRmlsbBQRkaysLKmpqZGlS5dKYmKiyjWTkpLk1VdflcrKSpW+jRg2jJ/Wv8/Tp0+rdGGfEydOyPPPP+/0Msasvb1dpXvmzBlJS0sz2tQaFgIAANiCYQMAAAh5Pp9PnnnmGXn55ZdlzZo1snjxYpXr3H333VJZWSlbt25V6dtG62n6pKQklW4w0LpZ6ff7Vbqwz7lz5+SNN95wehmO6+/vZ9gAAABgGAdEAwCAsHHq1ClZsmSJPProozI0NKRyjeeee06layOtp+m1nv4PBho3K0dGRhg2AP+ht7fXeDMhIUFcLv6LDQAAwhc/CQEAgLBTX18vDz30kIyMjBhvFxcXS0VFhfGujTo7O1W6WVlZKt1gMGnSJONNv9+vekA7YKOffvrJeDM6OlpycnKMdwEAAGzBsAEAAISljRs3yosvvqjSXrp0qUrXNq2trTI6Omq8e/XVVxtvBoOoqCjJzMw03tW4qQrYrqurS6Wbn5+v0gUAALABwwYAABC2VqxYId99953x7pw5c0L6EOOxGhgYUNlK6aqrrjLeDAbXXnutuN1u493u7m7jTcB2Pp9PpZubm6vSBQAAsAHDBgAAELaGh4elrq7OeNfj8ci8efOMd22k8fTwlVdeKVdccYXxrtPy8vJUusePH1fpAjZrb29X6TJsAAAA4YxhAwAACGvvvfeedHR0GO+WlZUZb9qotbXVeDMyMlJuueUW412nFRUVqXRbWlpUuoDN9u/fr9KdNm2aShcAAMAGDBsAAEBYu3Dhgmzfvt1496abbjLetJHGNlUiEpLDhhtuuEGle+jQIZUuYDOfzyenTp0y3i0oKJCYmBjjXQAAABswbAAAAGFv9+7dxpvZ2dni9XqNd23z7bffqnS1bsw7SeOJ6JGRETlw4IDxLhAKNN768Xg8UlpaarwLAABgA4YNAAAg7H3++ecyOjpqtOlyuaSwsNBo00bffPONSvfGG29U6TolPz9fUlNTjXfb2trk3LlzxrtAKDh8+LBKd+bMmSpdJ+Tl5cnhw4fl4MGDUltbG5Ln5QAAAHMYNgAAgLDn9/ult7fXeDcrK8t40zbHjx9XOYg1PT1dbr31VuNdp1RXV6t09+3bp9IFQsEXX3yh0p07d65K1wlz586VgoICmTp1qqxatUq+//57efLJJ8Xtdju9NAAAEIQYNgAAAIjIyZMnjTczMjKMN2301VdfqXQrKytVuk6YM2eOSlfrZioQCnbv3i0XLlww3i0sLJTs7GzjXSfMmjXr336dkZEha9eulZaWFlm2bJm4XNxSAAAAf+EnAwAAABGVrWZiY2ONN22kdcO7vLxcpRtoqampageK79mzR6ULhIKenh45duyY8a7L5ZL77rvPeDfQYmNj5bbbbrvo702ePFnWr18vzc3N8sADDwR4ZQAAIFgxbAAAABCRoaEh482YmBjjTRvt2rVLpXv99dfLjBkzVNqBtGzZMomOjjbe7e7ulubmZuNdIJR88sknKt3FixerdAOpurpaJkyY8I9/ZsqUKfL222/Lvn37pKqqKkArAwAAwYphAwAAgIjK/tNsL/Gno0ePytGjR1XaNTU1Kt1AWrRokUpXa8gDhJKtW7eqdKdMmSIVFRUq7UAZz/emoqIi+eCDD+Szzz6T2bNnK64KAAAEM/4HDAAAICKXX3658eb58+eNN2314YcfqnSrqqokPT1dpR0I1dXVkpOTo9Letm2bShcIJTt37pTe3l6V9hNPPKHSDYT8/Pz/uoXSPyktLZWdO3fKrl27pKSkRGFlAAAgmDFsAAAAEJG0tDTjTYYNf9myZYtKNyYmRl544QWVdiA8++yzKt1ffvmFYQMwBsPDw2pvAZWXl6sd/q5t+fLll/R23u233y6ffvqpbNmyRQoLCw2uDAAABDOGDQAAIOzFxcVJcnKy8e6vv/5qvGmrjz/+WH744QeV9pIlS+S6665TaWt65JFH1G7Cbd++nWEXMEYbNmxQa69evVqtrSU/P1/uv//+S+64XC6prKyUr7/+WqZNm2ZgZQAAINgxbAAAAGGvpKRE5XyFkydPGm/abNOmTSpdt9str7zyikpbS2JiouobGW+++aZaGwg1O3bskLa2NpV2YWGhPPXUUyptLS+99JLRQ+t7enrk4MGDxnoAACB4MWwAAABhr6ysTKWrdfPKVvX19TI8PKzSnj17tixfvlylrWH9+vWSmZmp0m5ra5PGxkaVNhCqNm7cqNauq6uT6dOnq/VNWrRokZSXlxtt7tixw2gPAAAEL4YNAAAg7FVUVKh0W1tbVbq26ujoUL0JvnLlSiktLVXrm/L444/L/Pnz1fqaW8IAoeq1115T2/rO4/HIhg0bVLbrMykvL0/lLbGGhgbjTQAAEJwYNgAAgLB25513Sl5envFuX1+f9PT0GO/abs2aNWptj8cjDQ0NUlBQoHaNS3XPPffI2rVr1fr9/f2ybt06tT4Qqrq7u+Wdd95R6+fm5sq2bdskLi5O7RqXwuv1yrvvviter9do1+fz8aYVAABh5A8AAAD//+zdfUzVZR/H8Q8PAiqiLYEyK7dMKR9omtRBbGLOmrSkZlG4tixNjKalziw386GcU6eVE5aKy4VFzHxIpxYyUQJ8jNSmHUkTrRQEDezQATmH+492d99r3untOb9zHc55v/70j+/34z8O+fyu66JsAAAAQc2qe/O5n/ra9u7dq9LSUsvmx8XFadu2bZYUSJ4aPXq01q1b59W70P/u448/1qVLlyybDwSyJUuW6OrVq5bNHzJkiLZu3ep3hUPHjh21ZcsWDRw40Ouz8/Pz5Xa7vT4XAAD4J8oGAAAQtKZPn66kpCRLZh8+fNiSuYFg0aJFls6/++67tXfvXsve4rgZWVlZ2rhxozp16mTZDofDoWXLllk2Hwh0J0+e1Pr16y3dMWzYMH3zzTfq06ePpXtuVFxcnIqKijRs2DCvz7569apWrVrl9bkAAMB/UTYAAICg9Pjjj+vdd9+1bH5FRYVls9u77du366uvvrJ0R2xsrLZt26YZM2ZYuud6oqOjlZOTo9zcXEVGRlq6a+XKlTp79qylO4BAN2fOHDU2Nlq6o3///iotLbX07ZYbkZSUpNLSUsveutm2bZuqq6stmQ0AAPwTZQMAAAg66enpKiwsVFRUlCXzGxoatGPHDktmB4q33npLra2tlu6IiorSkiVLVFZWpsTEREt3Xctjjz2m7777TpMnT7Z814ULF7Rw4ULL9wCB7ty5c/rwww8t3xMXF6cNGzaooKBA8fHxlu/7b1FRUZozZ4727Nlj2QkLt9tt+Sk2AADgfygbAABA0OjcubOWLl2qDRs2qEuXLpbt+frrr+V0Oi2bHwgqKyu1Zs0an+xKTk7WwYMH9dlnn1lyJ/nfjRgxQrt27dLOnTt1zz33WL5PkubPn6+Ghgaf7AIC3aJFi1RVVeWTXRkZGTp58qSWLl1qeekQHh6u8ePH69ixY5o3b55lhbv05wm2AwcOWDYfAAD4J8oGAAAQ8Lp27aoZM2bo+PHjmj59usLCwizdt3HjRkvnB4pZs2bpzJkzPtnVoUMHPffcc/r2229VXFysrKws3XLLLV6bf8cdd2jmzJk6ePCgiouLffpeRElJiXJzc322Dwh0DodD2dnZcrlcPtkXExOj6dOnq6qqSuvXr9cTTzyh0FDv/Vc9ISFBCxYsUFVVldauXavevXt7bfa1uFwuvffee5buAAAA/incdAAAAABvi4iI0MCBA5WSkqLU1FQ9+uij6ty5s092nzlzRoWFhT7Z1d41NDRo6tSp2rx5s0JCQnyyMywsTCNGjNCIESO0fPlyVVZW6sCBA9q3b59OnDghu91+3VMp0dHRSkhIUL9+/WSz2ZSUlKQBAwYoPNz3P1o7HA69+uqrPt+L9is+Pt7yR5B9Ze/evfroo48smV1UVKS8vDy98sorlsy/li5duigzM1OZmZmqqanRvn37VFFRofLych0/flz19fXXnREaGqqBAwcqMTFRNptNQ4cOVb9+/Xz2b6wkffLJJ9q3b5/P9gEAAP9B2QAAACy3evVqtbS0WDY/LCxMERER6tq1q7p3764ePXooIiLCsn3/JCcnR26328ju9ujLL7/UqlWrNGnSJJ/vjoqKks1mk81m09SpUyX9+UVuTU2Nrly5oqamJv3xxx8KCQlRx44d1alTJ8XExCguLs6rXx17Yvbs2Tpx4oTpGGhHYmJilJmZaTqGV7S2tlpWNkjStGnTZLPZNGDAAMt2/C/x8fEaM2aMxowZ89ef1dXV6fz583I4HGpqapLT6VSHDh0UGRmp6OhoxcXFKTY21vLH6P9JXV2dZs2aZWw/AAAwi7IBAABYbtSoUaYj+ERNTY2lv/gKVK+//roGDx6sBx980HQUhYWFqUePHqZj3JDCwkJ98MEHpmMAAcvhcCgzM1NlZWWKiYkxHUfdu3dX9+7dTcf4R3PnzlVNTY3pGAAAwBD/+CQLAAAgAMyZM0eNjY2mY7Q7TqdTmZmZqqurMx2l3bDb7T693gUIVt9//70mT57ss/cb2rOtW7dq5cqVpmMAAACDKBsAAAC8oLy8XKtWrTIdo92qqqrSs88+q6amJtNR/N6FCxeUnp6uhoYG01GAoPDpp5/q7bffNh3Dr/3888+aMGGC6RgAAMAwygYAAAAPNTY28kivF+zevVsvvfSSWltbTUfxW1euXNHYsWP1ww8/mI4CBJXFixdrxYoVpmP4JafTqRdffFG1tbWmowAAAMMoGwAAADzQ1tam7OxsHTlyxHSUgPD5559r0qRJFA7X8PvvvysjI0NlZWWmowBBacqUKcrJyTEdw6+43W5lZWWpuLjYdBQAAOAHKBsAAAA8sGzZMuXn55uOEVDWrl2r8ePHq6WlxXQUv9HY2KinnnpKO3bsMB0FCGrZ2dlavny56Rh+Y+7cuVq3bp3pGAAAwE9QNgAAANyk3NxczZgxw3SMgJSfn6+MjAz99ttvpqMY9+uvv2r06NHatWuX6SgAJE2bNk1vvvlmUJ/Aamtr0zvvvKMFCxaYjgIAAPwIZQMAAMBNyM3N5Z0Gi23evFnDhw9XVVWV6SjGHDp0SMnJyVydBPiZxYsX65lnngnKQtTtdmvmzJmaP3++6SgAAMDPUDYAAAD8H5qbm/XGG29QNPjIkSNHZLPZ9MUXX5iO4lNtbW3Ky8vT8OHDVV1dbToOgGvYvHmzkpOTtX//ftNRfKaxsVHjxo3T0qVLTUcBAAB+iLIBAADgBp07d05paWl6//33TUcJKvX19Ro7dqxefvnloPiK+MKFCxo7dqwmTJggh8NhOg6Af3DixAmlpKRo4cKFAf/OjN1u1yOPPKKCggLTUQAAgJ+ibAAAALiO1tZWrVy5UgMGDFBxcbHpOEFr7dq1SkxMVEFBgdxut+k4Xtfa2qo1a9YoMTFRGzduNB0HwA1qbW3V7Nmz9fDDD6ukpMR0HK9zuVzKyclRUlKSjhw5YjoOAADwY5QNAAAA/4Pb7db27duVkpKi1157TQ0NDaYjBb2zZ8/q+eef18iRI1VRUWE6jtcUFxfLZrNp4sSJqq2tNR0HwE2orKxUamqqXnjhBdntdtNxvOLYsWMaOXKksrOz1djYaDoOAADwc5QNAAAAf+N0OlVYWKikpCSlpaUF1X3c7cXu3buVnJystLS0dvt4cltbm4qKipSamqqRI0fq0KFDpiMB8IL8/Hzdf//9mjBhQrstHU6dOqWJEyfqgQceCMjTGgAAwBqUDQAAAPrzmojS0lJNmTJFPXv2VEZGhg4fPmw6Fq7j3ydPUlJSlJ+f3y7eOGhoaFBeXp6GDBmiUaNG8Ys8IAC53W7l5eUpISFBTz/9tHbu3CmXy2U61nUdOnRIWVlZSkhI0Jo1awLyyjoAAGCdcNMBAAAATGhpaZHdbldFRYX27NmjoqIiXbx40XQs3KSysjKVlZXp1ltvVWZmptLT0zVs2DB16NDBdDRJf56WKSkp0aZNm1RQUMB1JEAQ2bRpkzZt2qTevXtr3LhxSk9PV2JiokJCQkxHkyTV1NRox44dWr16tcrLy03HAQAA7RhlAwAACBgul0tXr15VS0uLmpub1dTUpPr6el28eFG1tbU6f/687Ha7jh49qqNHj6qlpcV0ZHhZfX29VqxYoRUrVig+Pl5PPvmkUlNTNXToUN11110+zXL69GmVlpZq9+7d2rp1qy5duuTT/QD8y48//qh58+Zp3rx5uu+++5SWlqbhw4dr6NCh6tatm89yuFwuHT9+XKWlpdqyZYt27drFCQYAAOAVIZLaTIcAAAAArHbvvffKZrNp0KBB6t+/v3r16qWePXsqMjLSo7lOp1Nnz57VTz/9pGPHjqmyslLl5eU6c+aMd4IDCGihoaEaNGiQHnroIQ0ePFh9+/ZVr169dNtttyk01LObjx0Oh06fPq1Tp07Jbrdr//79Kikp0eXLl72UHgAA4D8oGwAAABC0QkND1adPH915552Ki4tTbGysunXrpqioKEVERPx1DVNLS8tfJ2YuXbqkuro61dbWqrq6WqdOneKrYABeFx0drb59++r2229XbGysYmNj1aVLF0VERCgyMlLh4eFyuVxyOp1qbm5Wc3OzLl++rJqaGp0/f16//PKLqqurTf81AABAEKFsAAAAAAAAAAAAHvHsTCYAAAAAAAAAAAh6lA0AAAAAAAAAAMAjlA0AAAAAAAAAAMAjlA0AAAAAAAAAAMAjlA0AAAAAAAAAAMAjlA0AAAAAAAAAAMAjlA0AAAAAAAAAAMAjlA0AAAAAAAAAAMAjlA0AAAAAAAAAAMAjlA0AAAAAAAAAAMAjlA0AAAAAAAAAAMAjlA0AAAAAAAAAAMAjlA0AAAAAAAAAAMAjlA0AAAAAAAAAAMAjlA0AAAAAAAAAAMAj/wIAAP//7N1taNV1Gwfwq7lJ02yMNl8MS1QIpjSdgj0M7EEdrWREZ4K2oiQia6zeDBlNXTGaMFiOECOCSYHmGytyVDqRyJGEi2bE6kXRcCxhJo6VtprW/SLu0Um93c7/eHs/fD7v/tf/nOt3sYc3/+85v5+wAQAAAAAASETYAAAAAAAAJCJsAAAAAAAAEhE2AAAAAAAAiQgbAAAAAACARIQNAAAAAABAIsIGAAAAAAAgEWEDAAAAAACQiLABAAAAAABIRNgAAAAAAAAkImwAAAAAAAASETYAAAAAAACJCBsAAAAAAIBEhA0AAAAAAEAiwgYAAAAAACARYQMAAAAAAJCIsAEAAAAAAEhE2AAAAAAAACQibAAAAAAAABIRNgAAAAAAAIkIGwAAAAAAgESEDQAAAAAAQCLCBgAAAAAAIBFhAwAAAAAAkIiwAQAAAAAASETYAAAAAAAAJCJsAAAAAAAAEhE2AAAAAAAAiQgbAAAAAACARIQNAAAAAABAIsIGAAAAAAAgEWEDAAAAAACQiLABAAAAAABIRNgAAAAAAAAkImwAAAAAAAASyb3WAwAAcG1t2LAh5s+fP+nXj4+Px+joaAwMDMSxY8diaGgoK+t2dXXFZ599llGvf1q9enVUVlbG4sWLY86cOXHjjTdGRMTo6GgMDQ3F8ePH49ChQ/HRRx8lWmflypVxzz33pNWOHDkSBw8eTNT3clKpVCxZsiStNpmf16XmTOLEiRPxxhtvXPb+1q1bIy8v74p9/vjjjxgbG4uffvopTp48GX19ffHtt99mZca/z9DR0RGnT5/OuF9+fn6kUqmoqKiI2267LYqLi2PWrFlx4cKFGBkZiYGBgfj888/jww8/TPz3eyWbNm2KWbNmTVx/8skn0d3dnajn/PnzY8OGDRPXIyMj0d7enqgnAAD/n66LiD+u9RAAAFw7hw8fjnvvvTej9/7+++/R19cXnZ2d8frrr8f58+czXre+vj527Ngx5Rmuv/76qK+vj7q6upg7d+6k3jM4OBg7d+6Mjo6OGBsbm/KaLS0tsXnz5rRaX19flJeXT7nXleTm5sb3338fc+bMSatP5ud1qTmT+PTTT6OiouKy98+dOxf5+fkZ9R4eHo7u7u7Yu3dvdHV1ZTriRTOUlpbGN998M+U+JSUl0dTUFLW1tVFQUDCp93z55ZfR0dERu3btmvJ6V7Js2bLo7e1Nqx09ejTuuuuuRH1XrlwZhw4dmrg+ceLEpP+PAADgr2yjBABAxnJycmLp0qWxY8eO6O3tjUWLFv1b11+xYkV89dVX0dbWNqUHpDfffHNs27Yt+vv7Mw5a/m7JkiWxYsWKrPT6q7Vr114UNPwvmj17dtTW1sb+/fujt7c3qqqqrtksGzdujK+//jqeffbZSQcNERFlZWXR2dkZR48ejYULF2Z1pscff/yi2u233x6lpaVZXQcAADIlbAAAICsWL14cH3/88UXb/VwtdXV10d3dHQsWLLjk/fPnz8fp06fjxx9/vOw3LubNmxcHDhyI5557LiszPf3001np81dPPvlk1nv+p1u2bFl0dXXFzp07Izf337fza05OTuzatStee+21iS24/m5sbCyGh4fj7Nmzl+1zxx13RE9PT1RWVmZtrlQqdcn6pUIIAAC4FpzZAABAmpaWlnj33Xcvez8/Pz9mz54d5eXlkUql0r7NUFRUFHv27ImlS5dmtD3RZNXX10dHR0fk5KR/dmZoaCjefvvteP/99+PYsWMTM0yfPj2WL18e1dXVsX79+rRvCuTl5cX27dtj2rRpsX379kRzPfTQQ1FcXBynTp1K1OefFi5cmNUzFz744INE2yr9/PPPU3r9mjVr4ocffrioft1110VRUVEUFxfH3Llz4+67744777wz7TyCnJyceOaZZ2LevHlRU1PzLx/uZ8vu3btj3bp1F9X7+vpiz549cfDgwTh+/PhEvbCwMO67775Ys2ZNpFKptPkLCwvjnXfeiaqqqjhy5Eiiuaqrq6OkpOSS92pqaqKxsTFRfwAAyAZhAwAAaYaHh+OLL7644uvee++9aG5ujhdeeCFaWlomHvyXlpZGXV3dVTtkdvXq1dHe3p4WNIyPj0dbW1ts27btkg+lf/vtt+jp6Ymenp5obm6OxsbGaGxsjOnTp0fEnw+229raor+/Pw4cOJDxbDNmzIinnnoqWltbM+7xVxs3boxp06ZlpVfEn2HBZH632fLdd99N6ryE1tbWmDlzZjQ0NMTzzz8fhYWFE/fuv//+ePPNN6OmpuZqjhovvvjiRUHDqVOnoqGhId56661LvufMmTOxb9++2LdvX2zdujVaWlrSvmkwc+bM2Lt3b5SXl8fw8HDGsz3yyCNp1+fOnYsZM2ZERMSCBQti1apVaecuAADAtWAbJQAAEmltbY1XX301rfbYY49dlbUKCgqis7Mz8vLyJmqjo6Px4IMPxubNmyf16fdffvklmpubo6qqKkZGRibqubm50dnZmfagOxPZ2tYmPz8/1q9fn5Ve/w3Onj0bL730UixatOiig5BTqVRs2rTpqq1dUVERTU1NabX+/v5Yvnz5ZYOGvxscHIwnnngiGhoa4sKFCxP1kpKSeOWVVzKeraCgIO38ijNnzkRDQ0Paax599NGM+wMAQLYIGwAASKy5uTlGR0cnrsvKyuKmm27K+jpbtmxJ2wJpfHw81q5dG93d3VPudfjw4Xj44Yfj119/naiVlJTEli1bEs146623xgMPPJCoR8SfD5CLiooS9/lvc/LkyVi1alX09PSk1ZuamuKWW265Kmu2tbWlnQ0xODgYlZWVMTAwMOVe7e3t8fLLL6fV1q1bF2VlZRnNVltbGzfccMPE9f79+2P37t1pW1pVV1dHfn5+Rv0BACBb/gEAAP//7N17UNV1/sfxF4isIsuJDLQtiyUvpeyuuWZhq7ZqOa6WZOEF8ZI3yGY22tpdd9t1Kne1tm1qdlRWVpZUEG+UueslZwwqEy00SIfMSwGbtEZKnAUFwsPvj4bvj89BkHO+Xyzt+Zg5M7w/5/N9fz5cnHG+7/P9vCk2AAAAwDa326333nvPigMCAoxeDk6IiIhQcnKyMbZ06VLt2rXL75y5ubktbgwnJyerR48ePuU5evSoEc+fP9/vPTWZPXt2m2tcyaqqqpSYmKjTp09bY2FhYbYLQRcyYcIEDR061Io9Ho9mz56tkydP+p1z8eLFKiwstOJOnTpp3rx5fuXyPtpp/fr1crvd2rlzpzUWHh6uSZMm+bdZAAAAwCEUGwAAAOCIM2fOGHG3bt0czT9v3jwj54kTJ7R06VLbeZ977jnjRn7Xrl2VlJTkU44VK1aosrLSiseOHWvrU/hDhgzRHXfcYcUlJSXKzs72O9/lqLS0tMXRRpMmTZLL5XJ0He/C0KZNm2z3P2hoaNDy5cuNsfHjx/ucp3fv3kYh5NNPP9WOHTskSRs2bDDmfpeO3AIAAMC3E8UGAAAAOML7yJ9Tp045mt+7QfCKFStUW1trO299fX2LG8O+NiOuq6vTxo0brTg4ONjngkVz3k9wrF692u9cl7P09HTjCYOwsDBNnjzZsfzdu3fX3XffbcWNjY169tlnHcmdk5Ojc+fOWXFUVJR69+7tU46ZM2caDcJfffVV6+stW7aooqLCikeOHKnrrrvOxo4BAAAAeyg2AAAAwLbQ0FDddtttVlxXV6cTJ044lr9Hjx7Gmfe1tbV6+eWXHcu/evVqo7n0gAED1KtXL59ypKamqrGx0YoTExMVGOj7f7ddLpceeOABK66trVVaWprPea4EDQ0NWrt2rTE2atQox/KPHTvWaDb+3nvvGccf2VFZWamQkBAFBARYr+PHj/uUIz4+3oizsrKsrxsaGrR161Yr7ty5s2bMmGFv0wAAAIANFBsAAABg21NPPWU0sd29e7eqqqocyz9q1CjjE94HDhxocWyTHVVVVXr33XetODAwUKNHj/YpR1FRkd5++20rvuGGG1rcLG6POXPmKCwszIr/9a9/qby83Oc8VwrvnhzNj5ey62c/+5kR5+XlOZbbruHDh6tfv35WXFxcrP379xtz1q1bZ8T0bQAAAMA3iWIDAAAAbHn00Uf12GOPWXFdXZ0WL17s6Bo333yzETdvRu2U5sUGScaN3vZKT0834rlz5/qcY9asWUb8XX2qoUl+fr5xXNb1119vFLbs6NOnT4u1vi28n1LIyclpMeeNN97QJ598YsUDBw7UoEGDOnxvAAAAwIVQbAAAAIDPAgMDNWrUKG3btk0vvfSSdVzQV199pV/+8pfat2+fo+vddNNNRuzrcTTt4X3sk/ea7bF+/Xp99tlnVvzzn/+8RaGkLSNHjtSPfvQjKz58+LDtZsWXu9raWh07dsyKAwMD1b9/f0dy//CHPzTi4uJiR/LaFRwcrAkTJlixx+NRZmbmBee+8sorRuxdrAIAAAAulaBvegMAAAD4dnnsscc0ffr0Vt/v2rWrevXqpauuusoYLygo0MKFC7V7927H93T11Vcb8aeffur4GmVlZUYcHh7uc476+nplZWXpiSeekCR16tRJycnJSklJadf13k2lnexLIUm33nqr/vnPf/p17Ycffqjnn3/e0f20l/eRXN7NyP3V/Hfc2NjYIUUsfzz44IPG97h//34dPXr0gnMzMzP1+OOPW/HEiROVkpIij8fT4fsEAAAAmqPYAAAAAEN0dLSio6PbPd/tdmvBggVG81qnhYSEGPH//vc/x9eorq424m7duvmVJzU1VSkpKQoK+vq/2lOnTtXChQuNo4AupEePHrrvvvus2O12+10YaE2fPn1aHB3UXrm5ud9YseHLL7804u9///uO5O3atav19blz5741N+inTp1qxJs3b251bmFhoQoLCzVw4EBJ0nXXXad7771Xr732WofuEQAAAPDGMUoAAACwJSwsTJmZmfrkk0+UkpJiHankpKYb902++uorx9eoq6sz4s6dO/uV5+OPP9brr79uxZGRkZo2bdpFr0tKSlKXLl2sOCcnR5WVlX7t4UpTX19vxN5/D/5qnqehocGRnHZFRkYazcmbnpZpi/dRSgkJCR2yNwAAAKAtFBsAAABgKCsrU1FRUauvQ4cOqby8vMXN2aioKL344ovavn27X0cQteXcuXNG7O9TB23x/rT82bNn/c61atUqI37ooYcueo13Q+C///3vfq9/pXG5XEZcU1PjSN7mT5s0f8rhmzRjxgyj6JSbm6tTp061ec3atWt1/vx5K/7FL37R4mcGAAAAdDSOUQIAAIDh+eef17Jlyy46r1u3bpo6daqSkpI0ePBga3zMmDHasGGD7rnnHsf25H1z2elixoVy2rmhvWXLFh0/fly9e/eWJA0dOlSDBg3SwYMHLzg/Li7OaEidn5+vd9991+/1W7N582bNmTPHr2s74mmS9vK+ce52ux3JW1NTYxWuOnfuLJfL1aI/xKU2efJkI964ceNFrykpKdE777yj4cOHS5JCQ0OVkJCg1NTUDtkjAAAAcCE82QAAAAC/1NTUaNWqVbr99tv13HPPGe/dfffd+vWvf+3YWidPnjRiX3pKtFfzm/0XWtNXa9assb4OCAjQww8/3OrcuXPnGrHTvRqaeDweud1uv17eT5dcStdff70RO9XI+bPPPjPi/v37O5LXXzExMfrpT39qxWfPnlVeXp6uvfbai7527txp5JoyZcql3j4AAAC+4yg2AAAAwBaPx6OFCxfqH//4hzH+xBNPKDg42JE1jh07ZsS33HKLI3mb877R7L2mr9LS0owb9PHx8QoLC2sxLzo6WmPGjLHiiooKZWZm2lr7StK3b1/17NnTit1ut8rKyhzJfeLECSP+8Y9/7Ehefz300EMKCAiw4pCQEJ04cULl5eUXfS1ZssTIdeedd7YooAEAAAAdiWIDAAAAHPGrX/1Kp0+ftuLIyEjHjlI6cOCAEcfGxjqSt7mhQ4ca8fvvv28r36lTp7R161YrdrlcmjVrVot5SUlJRqPi7Oxso5fAd91dd91lxIcOHXIst3euYcOGOZbbHxMnTnQsV6dOnTRz5kzH8gEAAAAXQ7EBAAAAjqiurtYrr7xijDXv5WDHnj17dObMGSuOjo7WHXfc4Uhu6et99u3b14rdbrfy8vJs5/Vu8uzdKDooKEiJiYlWfP78ec7Z95KQkGDETvxemuzatcuI77nnHqM5s10LFy7U4sWLrVevXr1anTt27FhFRUU5trYkTZo0ydF8AAAAQFtoEA0AAADHfPjhh0YcERHhSF6Px6Pc3Fw98MAD1lhycrL27dvnSP4FCxYYcV5enurr623nzcvLU1FRkX7yk59IkgYOHKjhw4frrbfekvT1ufo/+MEPrPlvvPGGjhw5YnvdK0XTz6u5LVu2OJZ/7969Ki8vt34HERERmjZtmtLT023nHjRokJYuXWrFdXV1evbZZ1ud37zoJH3dJLywsNDndadNm2Yd19WvXz8NGzZMb7/9ts95AAAAAF9RbAAAAIBjampqjDgw0LkHadPT041iQ0JCgl588UUVFRXZyjtgwIAWn5737j9hR0ZGhl566SUrTk5OtooNc+bMMeauWrXKsXWvBH/961+NHgb5+fkqKChwdI3MzEz95je/seLf//73ysrKsn2UlXfxYN++fS3+fTQJDQ3V+PHjjbHf/va3fhUJXC6X8fc8Y8YMig0AAAC4JDhGCQAAAI4ZMGCAEVdUVDiWe8eOHfrggw+suHPnzkpLS7PVhDooKEgrV67U9773PWvs8OHD+ve//21rr81lZGSoqqrKiidMmKDIyEjFxMQYn9ovLS3V5s2bHVv3cvf4449r1KhRxljzoo1TVqxYobNnz1pxdHS0/vKXv9jKGRMTo6SkJGNsw4YNrc6fMmWK0Tz82LFjfhcIsrOzjTguLs6xRu0AAABAWyg2AAAAwBEul0vx8fHGmD/HwLTld7/7nREPGTLE1lMIK1eu1J133mmMPfnkk37nuxC3262NGzdacUhIiObOnauHH37YePJjzZo18ng8jq59uVqwYEGLI4d2795t/BydUlpaquXLlxtjjzzySItiQXuFh4crIyNDISEh1lhZWZkyMjJavWbKlClG7N37xBfbt29XeXm5FV9zzTXGE0EAAABAR6HYAAAAANuCgoK0evVqXXvttdZYZWWlduzY4eg627dv1/r1642xGTNmaNOmTXK5XO3O43K5tGHDBs2ePdsY37hxo7Zu3erIXptLTU1VY2OjFaekpBjH7NTV1Tl6dNPlKjIyUsuWLdOyZcsUFPT/J75+/vnnSk5O7rB1//SnP+no0aNWHBgYqOXLl+uPf/yjT3luvPFG5ebmtmiMvmjRolaPZbrhhhs0YsQIK25sbFRmZqZP6zbn8Xj02muvGWPex4QBAAAAHYFiAwAAAPwWGBiouLg45efna8KECcZ7aWlpOnfunONrJiUlqbi42Bh78MEHVVhYqPnz56tLly6tXhscHKx58+apsLBQkyZNMt47cuSI5s+f7/h+Jen999/X3r17rTgiIsI4Nmfbtm36z3/+0yFrf9sFBQVp5MiReuGFF/TRRx/pkUceMfo01NTUaPr06Tp+/HiH7cHtdmvq1Kmqrq62xjp16qRnnnlGe/fu1ZgxY9q8Pjw8XM8884w++OADqxl4k+zsbK1evbrVa2fNmmUUVg4ePKjDhw/7+Z18LSsry4hHjx6tyMhIWzkBAACAi6FBNAAAAAwJCQmKjY1t9f3AwECFhIQoIiJC/fv3v+ATBUVFRXr66ac7ZH9ut1vjxo3Trl271KdPH2s8KipKK1eu1JIlS/Tmm2/q0KFD+uKLL9TY2KiIiAjFxMRoxIgRuuaaa1rkPH78uMaNG2f0VnBaenp6iyObmqSlpXXYus0NHjy4xY1oX02bNq3dc5cuXWr0Q2gSHBys8PBwhYeH66abbmr1qZQvvvhC8fHxysvL83e77Xbw4EHFx8dr06ZNCg0NtcZjY2O1c+dOffzxx9qzZ4+OHDmiL7/8UqGhoerRo4cGDRqkoUOHGn0/muzevbvF0zPevI8ey8nJsf29vPPOOzp69Kj69u0rSerSpYumT5+uF1544aLXXn311bb+RrKzsx3teQIAAIDLB8UGAAAAGGJjY9ssNlxMQUGB4uLiOuSphiYlJSUaPXq0MjMzNWzYMOO97t27a+LEiZo4cWK7cu3Zs0eJiYkqLS3tiK1asrKytGTJEvXs2dMYLy4u1uuvv96hazeJjo5WdHS0rRy+FBvi4uL8Xmfnzp1KTk7u8N+L95rjxo3TmjVrdOONNxrv+fqzy8rK0ty5c1s9PkmSbr/9dsXExFhxQ0OD7WJQk5ycHKPHyeTJk9tVbAgNDbV17NKhQ4coNgAAAHxHcYwSAAAAHFFZWamnn35aw4YN08mTJzt8vbKyMt111136wx/+oNOnT/t8/ZkzZ7Ro0SKNGDHiktzQrq+v17p161qMv/zyyx2+9uXi/Pnzys3N1fjx4zV27NhLWmho8tZbb+m2225TRkaG6uvrfb6+pKRE06dPV2JiYpuFBkmaOXNmi7XLysp8XvNCMjMzjT4hgwcPNgobAAAAgNMoNgAAAMAnjY2Nqq2t1eeff66DBw9q7dq1mjNnjnr16qWnnnrqojdYneTxePTnP/9Z/fr105NPPqkDBw7I4/G0uffCwkItWrRIN998sxYvXtzmfKelpqbq/PnzVlxdXa309PRLtv63hcfjUXV1tf773/+qoKBA69at06OPPqro6GiNHDlS27Zt+0b3V1FRodmzZ+vWW2/V3/72N5WUlLQ5v7a2Vm+++aaSkpJ0yy23tKvBc1BQkO6//35jbPPmzXa2bSguLlZBQYEVBwQEaNasWY7lBwAAALwFSGq86CwAAADgMtG9e3fFxsYqKipKV111lSSpqqpKpaWlys/PV0VFxTe8Q1yOoqOjNWTIEPXs2VMul0sNDQ2qrKzURx99pP379xvNpQEAAIDvIooNAAAAAAAAAADAFo5RAgAAAAAAAAAAtlBsAAAAAAAAAAAAtlBsAAAAAAAAAAAAtlBsAAAAAAAAAAAAtlBsAAAAAAAAAAAAtlBsAAAAAAAAAAAAtlBsAAAAAAAAAAAAtlBsAAAAAAAAAAAAtlBsAAAAAAAAAAAAtlBsAAAAAAAAAAAAtlBsAAAAAAAAAAAAtlBsAAAAAAAAAAAAtlBsAAAAAAAAAAAAtlBsAAAAAAAAAAAAtvwfAAAA///s3X9UlvX9x/GXgAi6gb/SLFep6IalpEulMmtyNBeutmn+VuaY6UJCcioxQ8WEVHCMIZs/sGUTO4ralq45JFtpbGqe5g/iWDp/TAoNSRIhEPj+0fH6eoE/7vu+7hsu2vNxDuf0/tz39f68PyCevN739fnQbAAAAAAAAAAAAJbQbAAAAAAAAAAAAJbQbAAAAAAAAAAAAJbQbAAAAAAAAAAAAJbQbAAAAAAAAAAAAJbQbAAAAAAAAAAAAJbQbAAAAAAAAAAAAJbQbAAAAAAAAAAAAJbQbAAAAAAAAAAAAJbQbAAAAAAAAAAAAJbQbAAAAAAAAAAAAJbQbAAAAAAAAAAAAJb4NHUBAAAAcNx9992nsWPHenSO8+fPKz09/bqvJSQkqGXLlm6b67XXXtOxY8dcvn7YsGEaPny4QkJC1LVrVwUEBKhFixa6dOmSzpw5o6NHjyo3N1d/+9vfdOXKFZfmqL/mtLQ0lZSUuFyzJH3rW9/SvHnzjLi2tlYLFixwuI66ujplZGTo3LlzluqQpEceeUTDhw834g8//FBbtmyxlLNv3776yU9+opCQEAUFBSkgIEC+vr768ssvdf78eR05ckTvv/++tmzZovLycpfn6d69u6ZOnWrEX3zxhVJTUy3V7qrGWrMjHnroIYWHhyskJET33HOPAgIC5OPjo/LychUVFamwsFC7d+/W9u3bdenSJadyR0REKCgoyIi/+uorJSUlqba21nLdoaGhCg8PN41t3LhRBQUFlnMDAADA81pIqmvqIgAAAOCYcePGaePGjR6do7CwUMHBwdd97fLly/L393fbXCNHjtSOHTucusbPz0/R0dGKiorS3Xff7dA1RUVFWrt2rVJTU1VWVubUfPXXHBwcrMLCQqdy1NelSxcVFRUZcU1NjXx8bv45oPp1bN26VaNGjbJUhyTFxcUpOTnZiNevX6+IiAiXco0aNUpxcXF64IEHHHp/WVmZsrOz9dJLL+ns2bNOzxcWFqZdu3YZ8enTpx3+M+Eujb3mm4mMjNTs2bNv+PtbX2lpqbKzs7VkyRJ9+umnDl3z1FNP6Y033jCNxcbGKi0tzel6r+Xj46ODBw+qT58+xlhBQYH69eunqqoqS7kBAADQONhGCQAAAM3GkCFDdOTIES1btsypm8p33HGHEhISdPToUT355JMerLDx/PSnP1VkZGRTlyFJuuuuu7Rr1y7l5OQ4fNNdkgICAjRjxgwVFBTo2Wef9WCF7menNffu3Vv79+/X2rVrHW40SFK7du0UFRWljz76yOFa/vznP2vr1q2msfnz56tz585O1Vzf888/b2o01NbWatasWTQaAAAAmhGaDQAAAGgWoqKilJubqx49elz39StXrqikpERffPGF6uqu//Bu165dtXXrVs2dO9eTpTaalJSUG34/GsvgwYO1f/9+hYWFXff12tpaXbx4UefOnVNlZeV13xMQEKCVK1dq/fr18vKy/z9R7LTmkSNHKj8//4YNj5qaGpWWlurzzz+/4Y37wMBArVy5Uq+88sotn7CRvm4MXPuEUIcOHfTyyy+7tgB93QyMi4szjWVnZys3N9flnAAAAGh8nNkAAADQjOzcuVP9+/d36L3r16/XfffdZ8Rz5841bTlzIze6OXo9I0eONG0H5Kzjx4879L7o6GilpaU1uCl79uxZbdy4UX/5y1+0f/9+o3Z/f38NGDBATz31lEaPHq277rrLuMbb21tLly7VlStXtGLFCpdrt4O2bdsqKytLjz32WJPMP3jwYL355ptq27ataby8vFw5OTnaunWr3nvvPZWWlhqv9e3bV8OGDdPEiRPVr18/03WTJ0+Wn5+fxowZ0yj1u8JOa37iiSe0adOmBlublZWVafPmzcrJydGePXtM5zL0799fYWFhmjJliunvB0n62c9+platWmnChAk3nffUqVNasmSJli5dalrH2rVrtXfvXqfXsXTpUrVr186IS0pKvjENQQAAgP8lnNkAAADwDXXgwAF9//vfN+LJkyfrT3/6k6Wcnji/4FaGDRumHTt2mA5prq6u1rJly5ScnHzLw3b9/f01Z84czZs3T61btzbGa2pqNGLEiFs2YOx6ZsO14uPjTecuOMPVMxu6dOmiffv2qWvXrqbxnJwczZ49W6dPn75ljokTJ2rFihXq1KmTaTwxMfGWB2ZLjX9mgx3WfFVQUJDy8/PVsWNH03h2drbmzJnjUBNw5syZWrJkiQICAkzjCxYsUGJi4k2v9fLy0oEDB0zNk3379mnQoEEOr0GSHnvsMeXl5ZkaidHR0crIyHAqDwAAAJqe/Z9RBgAAwP+swMBArVu3ztRoKCsrU3h4uObPn3/LRoMkVVRUKDExUU8++aQuXLhgjHt7eyszM1O+vr4eqb0xJSQkOPzEi7usXr3adNO9rq5OcXFxevrppx266S5JGzZs0IABA3T48GHT+K9//Ws98sgjbq3XHey05qysLFOj4eoZBxMnTnT4aaOMjAyNGDFC58+fN43Hx8ebGpXXU1tbq5iYGNXU1BhjAwcOdOocCi8vL6WmppoaDf/85z9pNAAAADRTNBsAAABgWy+++KLp5m51dbWefvppl/Zyz8vL07hx40w3R3v27KlnnnnGLbU2tuLiYuO//fz8tG7dukZrnISHh2vkyJGmscTERNO2Oo46ffq0Hn/8cZ08edIY8/b21vLly62W6VZ2WvOECRM0ZMgQ01hCQoJ++9vfOl1Lfn6+xo8fr6+++soYa9WqlRYvXnzLa9977z398Y9/NI0tWLBAHTp0cGju6OhoU5OsurpaMTExjhUOAAAA26HZAAAAAFu67bbbNGPGDNNYcnKy/v73v7ucMzc3V2vWrDGNTZ061eV8TSkiIsJ0SG9ISIjLWyk568UXXzTFeXl5Wrhwocv5Pv30U02dOtXUCBo0aJBGjRrlck53s9Oa6x+mnJubqyVLlrhcS15entLT001jjz/+uHr37n3La+fNm6fPPvvMiDt16uRQLZ06ddL8+fNNY3/4wx+0b98+B6sGAACA3dBsAAAAgC1NmzZNbdq0MeLjx4+75Wb68uXLVVtba8T9+/dXr169LOdtbKdOnVJ8fLxpLCYmRmFhYR6dNzQ01LQvf3V1tWbPnm057zvvvKPXX3/dNGaXp07stOYf/OAH6tOnj6mWX/3qV5Zreemll/T5558bsZeXlyZPnnzL60pKSho0DSIjI/XAAw/c9Lrk5GTTNlBnzpxp0NABAABA80KzAQAAALY0evRoU5yZmanKykrLeU+cOKH9+/ebxjx9g95TVq5cqe3btxuxt7e31qxZo8DAQI/NOWnSJFO8fft2/fvf/3ZL7pdfftnUCAoLC1Pnzp3dktsKO615/PjxDWo5dOiQ5TrKysq0adMm05ijZ0hkZWXpnXfeMWIfHx+lpaXd8P0PPvhgg0PI582bp4sXLzpeMAAAAGyHZgMAAABsp3Pnzurbt68RV1ZWNtgb3orQ0FC1aNHC+Pr973/vttyNbfr06Tp37pwRd+vWrcGWOO706KOPmuL169e7LfeRI0eUn59vxN7e3goPD3dbflfZac31z2pwZy1RUVGm34vBgwc7fG1MTIypGfjwww8rMjLyuu/9zW9+I29vbyN+6623tHHjRtcLBwAAgC3QbAAAAIDthIWFmW5GfvDBB7pw4UITVmRfRUVFio6OVl1dnTE2efJkjR071u1zdejQwbSPf0VFhXbu3OnWOXbv3m2KHf10vafYac2dO3c2bfnliVpcdejQIf3ud78zjSUmJjZ4ymbGjBmmLakuX76sWbNmNUqNAAAA8CyaDQAAALCd733ve6a4/rZHMNu0aZNee+01I27RooXS09N15513unWekJAQeXn9/z8hDh8+rIqKCrfOsXfvXlMcFBTk1vzOstOa+/TpoxYtWni0FisWLVqkEydOGPEdd9yhxYsXG3H79u21YMEC0zXLly/XsWPHGq1GAAAAeA7NBgAAANhOjx49TPEnn3zSRJU0H88995z+85//GHGnTp20atUqt85R/yDta+dzl48++sgUd+vWze1zOMNOa+7Zs6fHa7GivLy8wWHV06dP1/333y/p60Oob7/9duO1wsJCJSUlNWqNAAAA8Byfpi4AAAAAzdeiRYtUXl7u0rXLly9vcJP1qvbt25vi//73vy7N4QlW1nyVr6+vm6r5fxcvXtS0adO0c+dOYwuq8PBwzZw5UxkZGW6Zo2PHjqa4qKjILXmvderUKVVVVRnfo7Zt27p9DmfYac0dOnTweC1Wbdu2TW+88YZ+/OMfS/r6z3pqaqrmzp2rX/ziF8b76urqNGvWLFVVVTVVqQAAAHAzmg0AAABw2ZgxY1y+dsOGDTdsNrRu3doUf/nlly7P425W1uxpeXl5Sk9PV2xsrDGWlJSkvLy8G36vnVH/53Lp0iXLOa+noqLCuPHu7+/vkTkcZac1N1YtVsXGxmro0KEKCAiQJA0dOlS7du1Sy5Ytjfds3LjRNudNAAAAwD1oNgAAAMB2fHzM/5taXV3dRJU0P/Hx8Ro6dKhCQkIkSd/+9re1bt06Pfzww6qtrbWU+9qbxZJUU1NjKd+NXPvz9vLykp+fnyorKz0y163Yac1Wa0lLS9OAAQOcuuaHP/yhysrKnLrm5MmTSk5OVnJysjF27dMaFy5c0Jw5c5zKCQAAAPuj2QAAAADbqX/obZs2bZqokuansrJSP//5z7V37175+flJkkJDQ5WQkKCFCxdayn358mVT7KmnDq7NW1VV1WSNBslea7Zay7333quHHnrIqWvqNzgclZKSonHjxhlNr2stWrTIlltAAQAAwBqaDQAAAHBZv379dOLECZeuvdkWMPXPRGjXrp1Lc3iClTVf1bFjRx0/ftxNFTV08OBBJSYmmg7fjYuL086dO5Wfn+9y3vo/s8DAQJdz3Yi/v7/pJnr9G+yNzU5rrv974Yla3OXKlSt67rnn9PbbbxtniEjSvn37lJ6e3oSVAQAAwFNoNgAAAMBllZWVTm+x4oizZ8+a4u7du7t9Dle5Y82N8aRGcnKyRowYoSFDhkiSWrVqpaysLA0YMMDlA67PnDljiu+++27LddYXHBwsLy8vI27qT8Dbac31D0q/5557nJqnuLhYp0+fvul77rzzTlNzoK6uzqk5rvXuu+/qwIEDGjRokDG2evVql/MBAADA3mg2AAAAwHY+/vhjUxwcHNxElTRvkZGR2r9/v7FffnBwsJYtW6aoqCiX8hUUFJji7373u5ZrrK/+tjtWnyKxyk5rrn/It7O1TJo06ZbvKS0tNZ2vYPUQ6vrnSnjqzAsAAAA0Pa9bvwUAAABoXB988IEpfvDBB5uokubtk08+aXAQ74wZM/TEE0+4lK+goMD0VEf37t3Vo0cPSzXW9+ijj5riw4cPuzW/s+y05qNHj5pu/nfr1k1BQUFuqyMgIEABAQFGfPnyZVVVVbktPwAAAL7ZaDYAAADAdvbs2aMLFy4Ycffu3RUaGuq2/BMnTtTixYuNr6tbDX0TrV27Vtu2bTNiLy8vrVq1SrfddpvTua5cuaL333/fNDZ27FjLNV7l6+ur4cOHm8Zyc3Pdlt8VdlpzVVWV/vWvf5nGxo8f77ZaBg4caNrOqf4WUgAAAMDN0GwAAACA7dTW1mr37t2msRkzZrglt5eXl1JSUjR//nzj69pPc38T/fKXvzSdA9C1a1dlZGS4lGvnzp2mOCIiwnSD2ooJEyaoS5cuRvzZZ5/pH//4h1tyW2GnNe/atcsUT5kyRT4+7tkdNzw83BTX37YJAAAAuBmaDQAAALClrKwsUzxhwoQGe9u74kc/+pFuv/12Iy4rK2vQ2PimKS4u1syZM02H/Y4ZM0YRERFO53r11VdN2wr16tVLzz77rOUafX19FR8fbxrbsGGDamtrLee2yk5rXrdunSoqKow4KChIM2fOtFxLmzZtNG7cONNY/cYGAAAAcDM0GwAAAGBLb731lg4dOmTELVu21OrVq+Xr6+tyTj8/PyUnJ5vGduzYofLycpdzNhfbtm1r0MBZsWKFvvOd7ziVp7S0VNnZ2aaxhQsXWj47IDk5WT179jTiiooKZWZmWsrpLnZa87lz55STk2MaS0hIUK9evSzVkpSUZGrCVVRUNJgHAAAAuBmaDQAAALCtF154wRQPHDhQa9ascTlfenq6goODjbimpkYpKSku52tuYmNjdezYMSNu3769S5/QX7hwoUpLS424Q4cO2rx5s0vnQEhSZGSkYmJiTGOZmZk6ceKES/k8wU5rTkhIMB0U3a5dO+Xk5Khz584u1TJmzJgGT0ds2LBBxcXFLuUDAADA/yaaDQAAALCtv/71r3r99ddNY1OmTNHmzZsVGBjocB5/f39lZ2dr2rRppvFXX31VBw8edEutzcGlS5c0bdo0VVdXW8pTXFys+fPnm8buv/9+5eXl6d5773Uq1wsvvKBVq1bJ29vbGPv444+1ePFiSzW6m53WfPLkSSUlJZnG+vTpo7ffftvprcaioqL0yiuvmM6gKCkpUWJiolN5AAAAAJoNAAAAsLXp06eroKDANDZ69Gh9+OGHeuaZZ+Tn53fDa318fDR16lQVFBRo/PjxptcKCwv1/PPPe6RmO3v33XeVmppqOU9mZqY2bNhgGuvTp4/y8/OVlJR0y0/8Dx8+XHv27FFSUpLppnt5ebkmTZqkixcvWq7R3ey05uTkZL355pumsd69e2vv3r1KSUkxHTp9PX379tWWLVuUkZGh1q1bG+O1tbWKjY3VmTNnHK4FAAAAkKT/AwAA///s3WtolvUbB/DL5mmZplmEgYcUassiPIQ0s2mTSKgIEZXQakaSoWhQL6JpgUUHNDuYZGKJGMUYJSLawbRRs4Np6ojMiGwLK6eRY1tz2vy/+NNDj9Ptcfec0z4f8MXveF/3w/bC+7vn/nWKiOMtzgIA4Jzz9ddfx4gRI1Lt6dOnx5o1axLtWVdXF9nZ2an22rVro66urtX7bdy4MaOaBg0aFB9++GHa++3/cejQoSgtLY3y8vI4ePBgZGVlxeWXXx45OTkxduzY6NOnT5M1FRUVMX78+Pjhhx9avPaJ95ybmxt79uxpcV1z+vXrF/v370+1//777+jcuXO71dG5c+f4/PPPY+TIkU3GVq9enfHB0V27do2SkpK44447mozV19dHWVlZ7NixI/bv3x/19fXRu3fvyMnJiZtuuimGDBnSZE1tbW1Mnjw5NmzYkNH1CwoK0g4xrqmpiXXr1mW09mTefvvtWL9+fbNzzvY9/1uPHj1i3bp1ccsttzQZO3r0aGzdujV27NgRv/zyS9TW1kbPnj3jyiuvjFGjRsWwYcPSvs3wjwULFrTpt0rKysoiLy8v1S4sLIxVq1a12f4AAHQczf+PBgAAmnHXXXclWn/gwIGMwoZ9+/bF+PHjY82aNTFmzJi0sb59+8bEiRNj4sSJGV1z+/btMWnSpNi3b19rSj4vHDt2LO6///7YunVr9OjRo9X7NDQ0xKRJk+Lll1+OmTNnRqdOnVJj3bt3j4KCgigoKMhor4qKirjvvvtiy5Ytra7noosuirvvvrvV68vLy1sMGzrSPdfW1sadd94Zy5Yti3vuuSdtrEuXLpGfnx/5+fkZ7XXkyJF45JFHYunSpa2qBQAAvEYJAIBzQkVFRYwdOzaKiori0KFDp72+uro6nnrqqcjLy/tPBw3/2L17dzzxxBOJ92loaIgHH3wwJk+enHb4dKaOHj0aq1atipEjRyYKGtpTR7rn2trauPfee2PatGnx448/tmqPrVu3xujRowUNAAAkImwAAOCc0djYGE8//XRcffXV8fjjj8f27dujsbGx2fnl5eXx5JNPRk5OTsyfPz8aGhraseKObfHixWmvIUqipKQkhg4dGjNmzIiPPvoojhw50uz8ioqKeOWVV2LYsGFRWFgYVVVVbVJHe+pI9/zWW29FTk5OPPDAA7Fp06YWa/njjz+ipKQkbrvtthg9enRs3769zWoBAOC/yZkNAACc0/r27Rs33nhjDBo0KHr37h0XXHBBVFdXx08//RTbtm1LOxuB9pOdnR033HBD5ObmRp8+faJbt25RXV0dv/32W3z11Vet/iv8jqwj3XP37t3TasnOzo7a2tqoqqqK8vLy2LVrVxw7dqzd6gEA4PwnbAAAAAAAABLxGiUAAAAAACARYQMAAAAAAJCIsAEAAAAAAEhE2AAAAAAAACQibAAAAAAAABIRNgAAAAAAAIkIGwAAAAAAgESEDQAAAAAAQCLCBgAAAAAAIBFhAwAAAAAAkIiwAQAAAAAASETYAAAAAAAAJCJsAAAAAAAAEhE2AAAAAAAAiQgbAAAAAACARIQNAAAAAABAIsIGAAAAAAAgEWEDAAAAAACQiLABAAAAAABIRNgAAAAAAAAkImwAAAAAAAASETYAAAAAAACJCBsAAAAAAIBEhA0AAAAAAEAiwgYAAAAAACARYQMAAAAAAJCIsAEAAAAAAEik89kuAACA81NhYWEMHjw41V6/fn18+eWXp5xfUFAQY8eOTbW//fbbeOedd9qklsceeywuvPDCVHvRokVx+PDh095nwoQJceutt8Z1110X/fv3j549e8bx48ejpqYmKioqYteuXfH+++/Hpk2bMt7z9ttvj1GjRp12Ladjx44d8d577510bMGCBdGlS5dU+8UXX4xDhw41mffQQw9Fv379zliNERHvvvtufPPNN036T/zZKC8vj+Li4sTXmzBhQuTl5aXap/qcunbtGvPnz098vZY899xzUVNT06T/xN+lpD777LP44IMP2mw/AACIiOgUEcfPdhEAAJx/Nm/eHOPGjUu158yZE0uXLj3l/IULF0ZRUVGqfeTIkcjPz282oMhUVVVVXHrppan2wIEDo6KiIqO1Xbt2jdmzZ8ecOXNi0KBBGa3Zu3dvLF68OF5//fUW5y5btixmzZqV0b6t9eabb8aMGTNOOlZXVxfZ2dmpdm5ubuzZs6fJvJ07d8b1119/xmqM+P9D9VWrVjXpP/Fno7i4OKZMmZL4ekuWLIl58+al2qf6nHr16tWqcOp0XXHFFfHrr7826T/xdympRYsWxaOPPtpm+wEAQITXKAEA0EF169YtVq5cmfYgvL1de+218cUXX8TixYszDhoiIq666qpYvnx5lJaWRv/+/c9cgQAAAB2EsAEAgA5r6NCh8fzzz5+Va48YMSI2b94cw4YNazJWXV0dO3fujNLS0igrK4vvv/8+jh071mTezTffHJ988kkMGDCgPUoGAAA4a5zZAABAhzZr1qzYsGFDbNy4sd2ueckll0RJSUlcdtllaf1r166NZcuWxccffxyNjY1pYxdffHFMnTo15s6dG7m5uan+wYMHR3FxceTl5TVZExHxzDPPxIoVK1qsKSsrK7Zt25bWN2bMmKitrW1x7cnOYDhdU6dOzehbJmPGjImXXnop1d67d29MnTo1o2v8/PPPra7vTKqpqYnhw4dnNPfhhx+O6dOnp9rFxcXx7LPPZrS2qqoqo3kLFy485Rkcmfj9999bvRYAAE5F2AAAQIeWlZUVr732WgwfPrxNHppnYuHChWmvTfrrr79ixowZzR5Yffjw4Vi+fHmsWLEiXnjhhZg7d25qbNSoUTFnzpy0h/D/qKysjMrKyhZr6t69e5O+7777rt0+k5Od43AyQ4YMSWs3NDSc9NDnc0ljY2PG9/Dnn3+mtQ8fPtzm93/gwIFz/jMFAOD84zVKAAB0eAMGDIhXX321Xa7Vq1evmDZtWlrf7Nmzmw0a/q2xsTHmzZsXq1evTuufOXNmm9UIAADQ0QgbAADokKqqqtJeOzRlypQmIcCZMG7cuOjVq1eqvXv37njjjTdOe5+ioqKor69Pta+55poYOHBgm9QIAADQ0QgbAADokLZs2RIrV65M61uyZMkZf2Cfk5OT1i4rK2vVPpWVlfHpp5/GwYMHU/8GDx7cFiUCAAB0OP8DAAD//+zde2zN9x/H8Vcv5tSJnixVdIJYNEFoqkRDV5FwCEJWZBYJ25yq7NQ6SifMLC6NS1ESpFsR4h9t1smitGyJaaUbKZ02yJbGLS5FDdWuxWn7+0N+J/myi57vOdpz+nwk54/Pu+fz/rwl/mj76vl+CBsAAADQYaWnp+uPP/5wr3v06KE9e/b49Eyr1WpYP3nyxONeEydOVGRkpPt18uRJs+MBAAAAQIdE2AAAAIAOq76+XsnJyXr+/Lm7NmHCBKWnp/vszIcPHxrWAwcO9NlZAAAAABAoCBsAAADQoZWWlmrLli2G2tq1axUTE+OT8yoqKgzrKVOmaMiQIT45CwAAAAACBWEDAAAAOrzVq1ervLzcvbZardq7d69CQ0O9ftbPP/+sGzduuNcWi0WFhYUaMWKE188CAAAAgEBB2AAAAIAOz+VyyeFwqKGhwV0bOXKk1q1b55PzMjMzDesBAwbo1KlTysrKUs+ePX1yJgAAAAD4M8IGAAAA+IXKykqtXr3aUFu6dKnGjh3r9bO+/fZb5ebmGmpWq1XLli3T9evX9cMPPyg5OVm9evXy+tkAAAAA4I+8/7lzAAAAwEe2bdumyZMna8KECZKkLl26aM+ePYqLi1N9fb1Xz0pJSdHdu3e1YsUKhYSEuOsWi0XTp0/X9OnT1dzcrKqqKpWWlurEiRM6ceKEnj175tU5gJd98MEHiouL82jvkSNHdPjwYS9PBAAAABA2AAAAwM8kJyfr3LlzioiIkCRFR0dr+/btSk5O9vpZX331lYqKipSVlaUxY8a88vWQkBDFxsYqNjZWn332mR4/fqyioiLt379fx48f9/o8gCQlJiYqMTHRo723bt0ibAAAAIBP8BglAAAA+JXr169ryZIlhtr8+fOVlJTkk/PKysqUkJAgu92u/Px81dXV/eN7bTabPvzwQxUXF+vcuXOy2+0+mQkAAAAAOhrCBgAAAPidgwcPKi8vz70OCgrSrl27fHqHwk8//aTZs2erd+/emjVrlnJzc1VdXf2P74+Li1NxcbF27typ4GC+7QYAAAAQ2HiMEgAAAPxSamqqxowZo759+0qSoqKilJOT47NPOPxfY2OjCgoKVFBQIEkaPHiwZs6cqaSkJA0fPlxBQUHu9wYHBys1NVXvvPOOZsyY4dO50Hmkp6dr7969Hu1tamry8jQAAADAC/yJFQAAAPzSgwcPtHDhQjU3N7tr77//vhYsWPBG57h8+bLWr1+vESNGaNiwYcrOzlZDQ4PhPUlJSVq5cuUbnQuB6/nz56qrq/PoxQXmAAAA8BXCBgAAAPitoqIi5eTkGGpZWVmKjo5ul3kuXryo9PR0xcTE6MKFC4avLV++XDabrV3mAgAAAABfI2wAAACAX8vIyNClS5fca5vN5vEjZrzlypUrGj9+vGpqaty18PBwzZs3rx2n8l+tra0BdQ4AAAAQiAgbAAAA4NcaGxvlcDj09OlTdy0xMVFffvllO0714jFP33zzjaEWGxvbTtP4t7/++suw7tatm1f6Wq1Ww/rlx18BAAAAeH2EDQAAAPB7v/76qzZu3GiorVq1SiNHjmyniV6oqqoyrKOiotppEv92//59w7p///5e6fvuu+8a1rW1tV7pCwAAAHRGhA0AAAAICGvXrtUvv/ziXlssFu3bt08Wi+W1e9jtdn333Xfu18v3QbTVy4/lCQ7m229PVFRUGNaDBw9Wv379TPW0Wq2vhFGVlZWmegIAAACdGT/tAAAAICC0tLTI4XDoyZMn7tqwYcO0detWhYSEvHaPmTNnul8LFixQr169PJ5p1KhRhvWdO3c87tWZ/fbbb4b7L0JDQ5WWlmaqp9PpNFzY3djYqJKSElM9AQAAgM6MsAEAAAAB4/Lly1q5cqWh5nQ69fbbb7/W/vLycsP9AMHBwXI6nR7NEhER8cqF0GfOnPGoV2fX0tKigoICQy01NVWTJk3yqF98fLxWrVplqBUVFenPP//0eEYAAACgsyNsAAAAQEDZuXOnjh496tHex48fq7Cw0FDLyMjQ2LFj29THZrPp+++/N9zRUF9fr/z8fI/mgrR582bDp1YsFovy8vI0bty4NvUZPny4Dh8+rPDwcHfN5XIpMzPTW6MCAAAAnRJhAwAAAALOwoULde/ePY/2btq0SU1NTe51WFiYiouLtXjxYr311lv/uX/SpEkqLS19JaDYvXs3fzlvwo0bN/T1118bajabTT/++KN27dqlyMjIf90fHh6uDRs2qKys7JWLunfs2KHz5897fWYAAACgMwlt7wEAAAAAb7t165bS0tJ06NChNu89f/68MjMztW7dOnctLCxM2dnZWrJkiQoLC3X69GldvXpVtbW1stlsioqKUnx8vOx2u+Lj4/+258u/KEfbZWdnKyYmRh9//LG7FhoaKqfTKYfDoZKSEp06dUo3b97UvXv3FBERoT59+ighIUHjx49Xt27dXul57NgxffHFF2/wX2HenDlzNHr0aI/3V1dX8/8RAAAAXkfYAAAAgICUl5enqVOnau7cuW3eu379etlsNi1btsxQ79evn5xOZ5vucaisrNS0adMMn5aA5z755BM1NDTI6XQqKCjIXe/atavsdrvsdvtr98rPz9dHH32klpYWX4zqM6NHjzYVNpw9e5awAQAAAF7HY5QAAAAQsD7//HNdvXrVo70ZGRlyOByqra31aL/L5VJubq4SEhJ0+/Ztj3rg7y1atEhz5szRtWvXPNpfU1OjTz/9VLNnzyYEAgAAALyEsAEAAAAB6+HDh0pJSVFzc7NH+/ft26ehQ4dqzZo1qq6ufq09jx490oEDBzRq1CilpKSovr7eo7Px7w4dOqQhQ4YoLS1N5eXl//nphNbWVlVVVWnFihUaNGiQcnJy3tCkAAAAQOcQJKm1vYcAAAAA/EF0dLTee+89DRw4UDabTd27d5fL5VJdXZ2uXbumiooKlZWVyeVytfeonU6fPn00btw4DRo0SD179lRYWJiampr04MED/f777yopKdGVK1fae0wAAAAgYBE2AAAAAAAAAAAAU3iMEgAAAAAAAAAAMIWwAQAAAAAAAAAAmELYAAAAAAAAAAAATCFsAAAAAAAAAAAAphA2AAAAAAAAAAAAUwgbAAAAAAAAAACAKYQNAAAAAAAAAADAFMIGAAAAAAAAAABgCmEDAAAAAAAAAAAwhbABAAAAAAAAAACYQtgAAAAAAAAAAABMIWwAAAAAAAAAAACmEDYAAAAAAAAAAABTCBsAAAAAAAAAAIAphA0AAAAAAAAAAMAUwgYAAAAAAAAAAGDK/wAAAP//7NmxAAAAAMAgf+tB7C2NZAMAAAAAALDIBgAAAAAAYJENAAAAAADAIhsAAAAAAIBFNgAAAAAAAItsAAAAAAAAFtkAAAAAAAAssgEAAAAAAFhkAwAAAAAAsMgGAAAAAABgkQ0AAAAAAMAiGwAAAAAAgEU2AAAAAAAAi2wAAAAAAAAW2QAAAAAAACyyAQAAAAAAWGQDAAAAAACwyAYAAAAAAGCRDQAAAAAAwCIbAAAAAACARTYAAAAAAACLbAAAAAAAABbZAAAAAAAALLIBAAAAAABYZAMAAAAAALDIBgAAAAAAYJENAAAAAADAIhsAAAAAAIBFNgAAAAAAAItsAAAAAAAAFtkAAAAAAAAssgEAAAAAAFhkAwAAAAAAsMgGAAAAAABgkQ0AAAAAAMAiGwAAAAAAgEU2AAAAAAAAi2wAAAAAAAAW2QAAAAAAACyyAQAAAAAAWGQDAAAAAACwyAYAAAAAAGAJAAD//+zZsQAAAADAIH/rQewtjWQDAAAAAACwyAYAAAAAAGCRDQAAAAAAwCIbAAAAAACARTYAAAAAAACLbAAAAAAAABbZAAAAAAAALLIBAAAAAABYZAMAAAAAALDIBgAAAAAAYJENAAAAAADAIhsAAAAAAIBFNgAAAAAAAItsAAAAAAAAFtkAAAAAAAAssgEAAAAAAFhkAwAAAAAAsMgGAAAAAABgkQ0AAAAAAMAiGwAAAAAAgEU2AAAAAAAAi2wAAAAAAAAW2QAAAAAAACyyAQAAAAAAWGQDAAAAAACwyAYAAAAAAGCRDQAAAAAAwCIbAAAAAACARTYAAAAAAACLbAAAAAAAABbZAAAAAAAALLIBAAAAAABYZAMAAAAAALDIBgAAAAAAYJENAAAAAADAIhsAAAAAAIBFNgAAAAAAAItsAAAAAAAAFtkAAAAAAAAssgEAAAAAAFhkAwAAAAAAsMgGAAAAAABgCQAA///s2bEAAAAAwCB/60HsLY1kAwAAAAAAsMgGAAAAAABgkQ0AAAAAAMAiGwAAAAAAgEU2AAAAAAAAi2wAAAAAAAAW2QAAAAAAACyyAQAAAAAAWGQDAAAAAACwyAYAAAAAAGCRDQAAAAAAwCIbAAAAAACARTYAAAAAAACLbAAAAAAAABbZAAAAAAAALLIBAAAAAABYZAMAAAAAALDIBgAAAAAAYJENAAAAAADAIhsAAAAAAIBFNgAAAAAAAItsAAAAAAAAFtkAAAAAAAAssgEAAAAAAFhkAwAAAAAAsMgGAAAAAABgkQ0AAAAAAMAiGwAAAAAAgEU2AAAAAAAAi2wAAAAAAAAW2QAAAAAAACyyAQAAAAAAWGQDAAAAAACwyAYAAAAAAGCRDQAAAAAAwCIbAAAAAACARTYAAAAAAACLbAAAAAAAABbZAAAAAAAALLIBAAAAAABYZAMAAAAAALDIBgAAAAAAYAkAAP//7NmxAAAAAMAgf+tB7C2NZAMAAAAAALDIBgAAAAAAYJENAAAAAADAIhsAAAAAAIBFNgAAAAAAAItsAAAAAAAAFtkAAAAAAAAssgEAAAAAAFhkAwAAAAAAsMgGAAAAAABgkQ0AAAAAAMAiGwAAAAAAgEU2AAAAAAAAi2wAAAAAAAAW2QAAAAAAACyyAQAAAAAAWGQDAAAAAACwyAYAAAAAAGCRDQAAAAAAwCIbAAAAAACARTYAAAAAAACLbAAAAAAAABbZAAAAAAAALLIBAAAAAABYZAMAAAAAALDIBgAAAAAAYJENAAAAAADAIhsAAAAAAIBFNgAAAAAAAItsAAAAAAAAFtkAAAAAAAAssgEAAAAAAFhkAwAAAAAAsMgGAAAAAABgkQ0AAAAAAMAiGwAAAAAAgEU2AAAAAAAAi2wAAAAAAAAW2QAAAAAAACyyAQAAAAAAWGQDAAAAAACwyAYAAAAAAGCRDQAAAAAAwBIAAAD//+zZsQAAAADAIH/rQewtjWQDAAAAAACwyAYAAAAAAGCRDQAAAAAAwCIbAAAAAACARTYAAAAAAACLbAAAAAAAABbZAAAAAAAALLIBAAAAAABYZAMAAAAAALDIBgAAAAAAYJENAAAAAADAIhsAAAAAAIBFNgAAAAAAAItsAAAAAAAAFtkAAAAAAAAssgEAAAAAAFhkAwAAAAAAsMgGAAAAAABgkQ0AAAAAAMAiGwAAAAAAgEU2AAAAAAAAi2wAAAAAAAAW2QAAAAAAACyyAQAAAAAAWGQDAAAAAACwyAYAAAAAAGCRDQAAAAAAwCIbAAAAAACARTYAAAAAAACLbAAAAAAAABbZAAAAAAAALLIBAAAAAABYZAMAAAAAALDIBgAAAAAAYJENAAAAAADAIhsAAAAAAIBFNgAAAAAAAItsAAAAAAAAFtkAAAAAAAAssgEAAAAAAFhkAwAAAAAAsMgGAAAAAABgCQAA///s2bEAAAAAwCB/60HsLY1kAwAAAAAAsMgGAAAAAABgkQ0AAAAAAMAiGwAAAAAAgEU2AAAAAAAAi2wAAAAAAAAW2QAAAAAAACyyAQAAAAAAWGQDAAAAAACwyAYAAAAAAGCRDQAAAAAAwCIbAAAAAACARTYAAAAAAACLbAAAAAAAABbZAAAAAAAALLIBAAAAAABYZAMAAAAAALDIBgAAAAAAYJENAAAAAADAIhsAAAAAAIBFNgAAAAAAAItsAAAAAAAAFtkAAAAAAAAssgEAAAAAAFhkAwAAAAAAsMgGAAAAAABgkQ0AAAAAAMAiGwAAAAAAgEU2AAAAAAAAi2wAAAAAAAAW2QAAAAAAACyyAQAAAAAAWGQDAAAAAACwyAYAAAAAAGCRDQAAAAAAwCIbAAAAAACARTYAAAAAAACLbAAAAAAAABbZAAAAAAAALLIBAAAAAABYZAMAAAAAALDIBgAAAAAAYAkAAP//7NmxAAAAAMAgf+tB7C2NZAMAAAAAALDIBgAAAAAAYJENAAAAAADAIhsAAAAAAIBFNgAAAAAAAItsAAAAAAAAFtkAAAAAAAAssgEAAAAAAFhkAwAAAAAAsMgGAAAAAABgkQ0AAAAAAMAiGwAAAAAAgEU2AAAAAAAAi2wAAAAAAAAW2QAAAAAAACyyAQAAAAAAWGQDAAAAAACwyAYAAAAAAGCRDQAAAAAAwCIbAAAAAACARTYAAAAAAACLbAAAAAAAABbZAAAAAAAALLIBAAAAAABYZAMAAAAAALDIBgAAAAAAYJENAAAAAADAIhsAAAAAAIBFNgAAAAAAAItsAAAAAAAAFtkAAAAAAAAssgEAAAAAAFhkAwAAAAAAsMgGAAAAAABgkQ0AAAAAAMAiGwAAAAAAgEU2AAAAAAAAi2wAAAAAAAAW2QAAAAAAACyyAQAAAAAAWGQDAAAAAACwyAYAAAAAAGAJAAD//+3ZsQAAAADAIH/rQewtjWQDAAAAAACwyAYAAAAAAGCRDQAAAAAAwCIbAAAAAACARTYAAAAAAACLbAAAAAAAABbZAAAAAAAALLIBAAAAAABYZAMAAAAAALDIBgAAAAAAYJENAAAAAADAIhsAAAAAAIBFNgAAAAAAAItsAAAAAAAAFtkAAAAAAAAssgEAAAAAAFhkAwAAAAAAsMgGAAAAAABgkQ0AAAAAAMAiGwAAAAAAgEU2AAAAAAAAi2wAAAAAAAAW2QAAAAAAACyyAQAAAAAAWGQDAAAAAACwyAYAAAAAAGCRDQAAAAAAwCIbAAAAAACARTYAAAAAAACLbAAAAAAAABbZAAAAAAAALLIBAAAAAABYZAMAAAAAALDIBgAAAAAAYJENAAAAAADAIhsAAAAAAIBFNgAAAAAAAItsAAAAAAAAFtkAAAAAAAAssgEAAAAAAFhkAwAAAAAAsMgGAAAAAABgkQ0AAAAAAMAScTTplkzbqAgAAAAASUVORK5CYII=;clipPath=inset(28.33% 29.67% 45.67% 29.33%);" vertex="1" parent="1">
          <mxGeometry x="-500" y="499.38" width="222.7" height="141.24" as="geometry" />
        </mxCell>
        <mxCell id="rAWmaDzB11iuQqpBFQuq-3" value="&lt;h1 style=&quot;margin-top: 0px;&quot;&gt;&lt;font style=&quot;font-size: 60px;&quot; color=&quot;#ffffff&quot;&gt;BIOTEC FILES&lt;/font&gt;&lt;/h1&gt;&lt;div&gt;&lt;br&gt;&lt;/div&gt;" style="text;html=1;whiteSpace=wrap;overflow=hidden;rounded=0;" vertex="1" parent="1">
          <mxGeometry x="-220" y="530" width="480" height="80" as="geometry" />
        </mxCell>
        <mxCell id="rAWmaDzB11iuQqpBFQuq-4" value="" style="sketch=0;pointerEvents=1;shadow=0;dashed=0;html=1;strokeColor=none;fillColor=#FFFFFF;aspect=fixed;labelPosition=center;verticalLabelPosition=bottom;verticalAlign=top;align=center;outlineConnect=0;shape=mxgraph.vvd.document;" vertex="1" parent="1">
          <mxGeometry x="350" y="520" width="73" height="100" as="geometry" />
        </mxCell>
      </root>
    </mxGraphModel>
  </diagram>
</mxfile>
